<?xml version="1.0" standalone="no"?>
<!DOCTYPE svg PUBLIC "-//W3C//DTD SVG 20010904//EN"
 "http://www.w3.org/TR/2001/REC-SVG-20010904/DTD/svg10.dtd">
<svg version="1.0" xmlns="http://www.w3.org/2000/svg"
 width="486.000000pt" height="324.000000pt" viewBox="0 0 486.000000 324.000000"
 preserveAspectRatio="xMidYMid meet">

<g transform="translate(0.000000,324.000000) scale(0.100000,-0.100000)"
fill="#000000" stroke="none">
<path d="M2065 3218 c-38 -22 -44 -39 -29 -81 28 -79 52 -105 134 -146 73 -36
82 -38 122 -30 24 6 53 17 65 24 21 14 25 11 88 -58 73 -80 80 -97 70 -163 -5
-36 -11 -47 -33 -56 -57 -23 -78 -33 -94 -46 -12 -10 -57 -17 -145 -21 l-128
-6 0 -35 0 -35 125 3 c86 2 120 0 110 -7 -12 -9 -12 -11 3 -17 9 -3 24 0 33 7
14 11 18 11 29 -4 13 -18 42 -22 64 -8 17 11 140 -26 198 -60 41 -23 54 -39
33 -39 -5 0 -10 -4 -10 -10 0 -5 5 -10 11 -10 14 0 82 -70 75 -78 -3 -3 -12 1
-21 8 -9 7 -18 10 -21 8 -3 -3 6 -14 20 -25 26 -21 56 -82 56 -115 0 -11 5
-29 12 -41 20 -36 20 -51 0 -35 -26 20 -57 62 -54 71 4 13 -18 36 -51 54 -22
11 -70 16 -186 18 -150 3 -154 2 -94 -10 80 -17 119 -39 53 -29 l-45 6 49 -51
c52 -53 52 -51 -1 -66 -6 -2 -9 -13 -6 -24 3 -12 1 -21 -6 -21 -6 0 -11 4 -11
10 0 5 -3 9 -7 8 -5 -1 -18 2 -31 6 -16 5 -21 13 -17 23 5 13 3 14 -11 3 -13
-12 -17 -11 -25 1 -5 8 -9 11 -9 7 0 -4 -21 0 -46 9 -27 9 -41 19 -34 23 15 9
61 0 55 -11 -3 -4 8 -3 26 3 22 8 27 13 18 19 -11 6 -11 14 -2 39 13 36 12 37
-54 46 -39 5 -68 1 -120 -14 -73 -23 -157 -72 -134 -80 17 -6 -137 -162 -159
-162 -9 0 -29 -14 -46 -31 -47 -49 -81 -63 -164 -63 -73 -1 -76 0 -141 45 -41
28 -82 49 -108 53 -83 13 -387 37 -451 35 -37 -1 -77 4 -93 12 -26 12 -34 11
-70 -9 -35 -18 -48 -20 -82 -12 -63 15 -74 13 -72 -12 2 -24 35 -70 100 -143
20 -23 37 -46 37 -50 0 -4 -15 -4 -32 -1 -77 16 -106 17 -138 4 l-35 -14 27
-25 c15 -13 40 -37 58 -52 17 -16 37 -26 45 -23 19 7 27 -8 19 -39 -4 -15 -15
-27 -30 -31 -13 -3 -24 -12 -24 -19 0 -8 -7 -15 -16 -17 -10 -2 -32 -45 -59
-116 l-43 -112 34 0 c39 0 39 1 19 -64 -8 -26 -12 -52 -9 -57 2 -5 -2 -19 -10
-31 -19 -30 -22 -54 -12 -101 5 -29 16 -43 46 -62 47 -29 58 -32 39 -7 -13 15
-12 16 3 3 10 -7 15 -17 13 -22 -3 -4 7 -14 21 -22 26 -14 27 -18 25 -83 -7
-228 91 -451 257 -588 28 -23 38 -36 27 -36 -39 0 -4 -26 51 -37 85 -17 320
-36 354 -28 37 8 38 21 3 32 l-26 9 44 27 c85 51 166 144 213 245 l30 62 85
-6 c128 -8 132 -9 126 -42 l-6 -27 15 25 15 25 2 -25 c1 -23 2 -22 11 7 13 38
15 39 200 53 175 13 249 40 317 114 14 15 35 26 50 26 22 0 36 15 83 88 31 48
73 124 94 169 26 59 42 83 57 85 11 2 25 11 31 21 6 10 26 34 44 54 61 65 93
153 112 303 14 111 19 132 30 125 22 -14 100 37 100 66 0 9 5 19 11 21 8 3 4
18 -10 46 -23 45 -26 62 -11 62 10 0 170 -311 170 -330 0 -19 -27 -10 -38 13
-10 21 -11 21 -11 -7 -1 -20 -17 -46 -56 -88 -80 -86 -167 -284 -150 -339 4
-13 3 -19 -3 -15 -5 3 -12 -15 -16 -41 -9 -71 -7 -231 4 -238 5 -3 18 -1 29 5
18 9 21 6 25 -27 35 -239 133 -418 303 -551 l85 -67 -58 -7 c-81 -11 -88 -24
-23 -42 91 -26 275 -47 477 -53 172 -5 192 -4 192 10 0 9 -7 20 -16 25 -11 6
5 19 68 53 125 66 232 176 292 301 36 73 45 103 41 124 -5 23 -4 26 4 14 9
-12 10 -9 5 14 -5 19 -3 27 3 23 7 -5 11 14 11 51 0 31 1 66 1 77 1 11 -1 37
-5 59 -5 27 -3 37 5 32 7 -5 10 2 9 18 -1 13 -6 22 -10 20 -11 -7 -21 42 -14
70 3 14 2 27 -4 31 -5 3 -7 13 -4 23 5 13 4 14 -4 4 -7 -11 -10 -10 -16 3 -9
26 -7 42 4 25 17 -26 11 -2 -14 59 -48 118 -153 249 -263 328 -35 25 -63 46
-63 48 0 2 20 1 45 -1 25 -3 45 -2 45 1 0 31 -194 127 -316 156 -102 24 -152
27 -319 15 l-120 -9 -43 92 c-24 50 -44 105 -44 121 -1 20 -6 30 -17 31 -30 1
22 18 59 19 19 0 60 13 90 28 46 23 55 32 57 56 2 27 1 28 -18 10 -18 -17 -21
-16 -69 6 -28 13 -55 29 -60 35 -5 6 -17 45 -25 86 -16 78 -54 144 -122 214
-19 20 -33 38 -30 41 2 3 37 -1 77 -7 61 -10 69 -14 49 -21 -13 -5 -33 -7 -44
-4 -19 5 -19 4 -1 -9 13 -10 25 -11 45 -4 14 6 45 9 68 7 23 -2 42 1 42 6 0 5
5 12 11 16 8 5 2 18 -19 42 -17 20 -38 51 -45 69 -20 47 -90 110 -113 103 -15
-5 -15 -4 -3 5 8 5 12 12 10 14 -3 2 -26 18 -52 35 -51 35 -71 38 -104 19 -88
-51 -83 -49 -107 -30 -18 15 -22 28 -21 78 1 74 10 113 26 112 35 -1 47 5 54
26 3 12 13 30 22 39 13 16 13 20 -2 42 -9 14 -16 34 -16 45 0 20 -24 51 -40
51 -26 0 -45 -57 -47 -135 -2 -87 -11 -154 -23 -170 -4 -5 -11 -24 -14 -41 -7
-30 -56 -89 -56 -67 0 14 -56 84 -83 102 -22 15 -22 15 -3 -7 11 -12 14 -22 9
-22 -6 0 -16 7 -23 15 -7 8 -16 15 -19 15 -4 0 13 -21 38 -48 52 -53 89 -117
77 -129 -5 -4 -11 -1 -14 7 -3 8 -26 36 -51 61 -51 52 -91 67 -186 70 -50 2
-61 5 -62 20 -1 13 8 19 38 24 21 4 37 11 34 16 -3 4 9 13 27 18 30 8 27 9
-28 10 -68 1 -73 7 -74 81 0 29 -13 50 -74 120 -55 62 -72 89 -66 100 10 19
-67 141 -104 165 -12 8 -56 19 -97 25 -95 12 -110 12 -134 -2z m445 -526 c0
-4 -9 -13 -20 -20 -16 -10 -20 -10 -20 2 0 8 6 17 13 19 19 8 27 8 27 -1z
m115 -72 c13 -6 15 -9 5 -9 -8 0 -22 4 -30 9 -18 12 -2 12 25 0z m134 -46 c17
-14 40 -39 52 -55 l20 -29 -26 -12 c-15 -7 -24 -17 -21 -25 3 -7 3 -13 -1 -13
-11 0 -43 43 -43 59 0 9 -9 31 -20 49 -11 18 -20 37 -20 42 0 18 28 10 59 -16z
m-82 -33 c13 -19 23 -37 23 -41 0 -4 -39 8 -87 26 -49 18 -96 33 -105 34 -10
0 -18 3 -18 8 0 4 37 7 82 7 l82 0 23 -34z m247 33 c23 -9 20 -51 -3 -57 -21
-5 -34 23 -24 49 6 16 6 16 27 8z m43 -126 c13 -12 23 -25 23 -29 0 -4 -15
-25 -34 -48 l-34 -40 -22 24 c-13 14 -17 23 -8 22 42 -1 51 3 38 18 -20 24 3
44 30 27 16 -10 18 -9 14 3 -13 32 -57 12 -65 -28 -4 -16 -8 -15 -37 11 -34
31 -31 44 13 55 41 10 59 6 82 -15z m69 -13 c10 -8 15 -14 9 -14 -5 0 -19 6
-29 14 -11 8 -15 15 -10 15 6 0 19 -7 30 -15z m-219 -53 c1 -17 0 -32 -1 -32
-1 0 -13 12 -27 26 l-24 27 25 -13 25 -13 -20 23 -20 22 20 -3 c15 -3 20 -13
22 -37z m289 -4 l19 -21 -27 18 c-29 18 -34 25 -20 25 5 0 17 -10 28 -22z
m-246 -52 c0 -3 -4 -8 -10 -11 -5 -3 -10 -1 -10 4 0 6 5 11 10 11 6 0 10 -2
10 -4z m0 -46 c0 -5 -2 -10 -4 -10 -3 0 -8 5 -11 10 -3 6 -1 10 4 10 6 0 11
-4 11 -10z m-265 -30 c-3 -5 -11 -10 -16 -10 -6 0 -7 5 -4 10 3 6 11 10 16 10
6 0 7 -4 4 -10z m380 -172 c106 -213 122 -256 78 -213 -8 9 -31 52 -50 97 -18
45 -58 127 -88 183 -48 90 -57 117 -36 114 3 0 47 -82 96 -181z m-799 97 c16
-12 16 -14 3 -15 -9 0 -30 7 -45 15 l-29 15 26 0 c14 0 34 -7 45 -15z m176
-55 c54 -15 88 -32 156 -78 60 -41 62 -53 3 -23 -49 26 -47 26 -54 0 -8 -29
-27 -20 -61 30 -19 28 -44 50 -72 63 -24 10 -44 21 -44 25 0 3 6 3 14 0 8 -3
34 -11 58 -17z m728 -16 c0 -2 -7 -4 -15 -4 -8 0 -15 4 -15 10 0 5 7 7 15 4 8
-4 15 -8 15 -10z m190 -9 c20 -24 6 -28 -15 -5 -10 11 -13 20 -8 20 6 0 16 -7
23 -15z m-510 1 c0 -3 -4 -8 -10 -11 -5 -3 -10 -1 -10 4 0 6 5 11 10 11 6 0
10 -2 10 -4z m390 -18 c10 -6 7 -7 -10 -2 -14 3 -32 11 -40 16 -10 6 -7 7 10
2 14 -3 32 -11 40 -16z m-2396 -77 c-2 -3 -12 3 -22 13 -16 17 -16 18 5 5 12
-7 20 -15 17 -18z m2356 -31 c21 -42 26 -80 10 -80 -14 0 -50 75 -50 105 0 34
15 24 40 -25z m-280 -4 c0 -12 -5 -7 -19 24 -11 24 -11 24 3 6 9 -11 16 -24
16 -30z m-1950 -63 c0 -6 -21 7 -62 41 -21 16 -38 33 -38 38 0 5 23 -10 50
-33 28 -23 50 -44 50 -46z m1550 -67 c0 -6 -16 6 -35 26 -19 21 -35 43 -35 50
1 7 16 -5 35 -26 19 -22 35 -44 35 -50z m375 64 c3 -5 2 -10 -4 -10 -5 0 -13
5 -16 10 -3 6 -2 10 4 10 5 0 13 -4 16 -10z m37 -37 c-11 -19 -73 -65 -177
-128 -33 -20 -50 -34 -37 -30 28 8 39 -4 86 -96 31 -61 32 -68 22 -112 -6 -26
-14 -47 -18 -47 -11 0 -10 18 2 59 7 25 6 40 -6 62 -8 16 -18 28 -22 27 -4 -1
-34 6 -67 16 -33 10 -66 20 -73 22 -11 3 -10 8 2 26 18 25 20 38 8 38 -4 0
-13 -13 -19 -30 -10 -27 -13 -29 -43 -20 -18 5 -35 9 -39 8 -53 -6 -35 18 22
29 l52 10 -40 3 c-29 2 -18 5 37 10 59 6 89 15 132 39 31 18 56 37 56 42 0 6
20 19 45 30 25 11 53 31 61 45 19 28 31 26 16 -3z m318 17 c0 -5 -2 -10 -4
-10 -3 0 -8 5 -11 10 -3 6 -1 10 4 10 6 0 11 -4 11 -10z m-2140 -50 c0 -5 -9
-10 -19 -10 -11 0 -23 5 -26 10 -4 6 5 10 19 10 14 0 26 -4 26 -10z m30 0 c0
-5 -5 -10 -11 -10 -5 0 -7 5 -4 10 3 6 8 10 11 10 2 0 4 -4 4 -10z m2095 -39
c10 -22 22 -38 28 -34 6 3 7 1 3 -5 -4 -7 -3 -12 3 -12 6 0 22 -21 36 -47 l25
-48 -6 45 c-3 25 -10 58 -15 74 -5 16 -9 30 -9 30 0 1 8 2 18 3 14 1 30 -23
65 -93 26 -52 42 -94 37 -94 -6 0 -10 -13 -10 -29 0 -35 -15 -48 -35 -31 -18
15 -19 6 -5 -21 6 -10 7 -19 3 -19 -5 0 -46 75 -91 166 -46 91 -79 163 -74
160 5 -3 17 -23 27 -45z m-107 15 c-1 -14 -7 -22 -14 -19 -16 6 -13 43 3 43 7
0 12 -10 11 -24z m-2008 -21 c0 17 21 -12 25 -34 4 -19 2 -21 -11 -10 -8 7
-25 26 -36 43 l-22 31 22 -19 c12 -11 22 -15 22 -11z m619 -11 c10 -9 -45 -3
-59 6 -11 7 -5 8 20 4 19 -4 37 -8 39 -10z m341 -24 c-33 -23 -50 -30 -50 -22
0 5 10 14 23 20 28 14 47 15 27 2z m1055 -14 c-6 -54 -29 -58 -33 -7 -2 25 2
31 16 31 14 0 19 -6 17 -24z m295 -56 c33 -66 34 -70 20 -70 -11 0 -60 96 -60
118 0 23 10 12 40 -48z m-987 43 c-7 -2 -19 -2 -25 0 -7 3 -2 5 12 5 14 0 19
-2 13 -5z m80 -10 c-7 -2 -19 -2 -25 0 -7 3 -2 5 12 5 14 0 19 -2 13 -5z
m-1013 -32 c0 -17 -5 -33 -11 -36 -6 -4 -8 -13 -5 -21 3 -8 0 -14 -7 -14 -17
0 -56 29 -39 30 6 0 12 9 12 19 0 33 11 51 31 51 14 0 19 -7 19 -29z m1439 20
c7 -5 12 -13 10 -18 -2 -5 -12 -1 -21 9 -19 19 -13 24 11 9z m-6 -32 c6 -24
-1 -49 -14 -49 -5 0 -9 10 -9 23 0 18 -2 19 -11 7 -9 -12 -10 -12 -5 3 3 10 6
23 6 28 0 18 28 8 33 -12z m-1533 -9 c0 -5 -8 -10 -17 -10 -15 0 -16 2 -3 10
19 12 20 12 20 0z m-240 -15 c14 -8 39 -14 55 -15 19 0 35 -7 43 -20 13 -21
32 -27 32 -9 0 5 -6 7 -12 3 -9 -5 -10 -4 -3 5 8 8 22 7 53 -6 40 -15 44 -15
57 0 9 9 10 12 3 7 -17 -14 -28 -12 -28 6 0 10 7 14 23 12 24 -3 26 -29 6 -79
-10 -24 -16 -27 -82 -31 -113 -8 -180 -39 -263 -122 -39 -39 -76 -80 -82 -90
-9 -19 -11 -19 -36 -3 l-25 17 101 158 c133 208 117 191 158 167z m1315 -5
c-4 -6 6 -10 22 -10 15 -1 41 -6 57 -13 l29 -13 -40 -32 c-23 -18 -50 -32 -62
-32 -12 0 -21 -5 -21 -11 0 -5 5 -7 10 -4 6 3 10 2 10 -4 0 -19 -21 -23 -45
-7 -15 10 -22 22 -19 31 4 10 0 15 -15 15 -29 0 -27 8 18 52 36 34 71 52 56
28z m-1125 -20 c0 -5 -4 -10 -10 -10 -5 0 -10 5 -10 10 0 6 5 10 10 10 6 0 10
-4 10 -10z m297 -2 c46 -21 68 -48 38 -48 -8 0 -15 6 -15 14 0 9 -8 12 -26 8
-20 -4 -25 -2 -19 8 6 9 2 10 -15 5 -20 -6 -21 -5 -9 8 17 20 13 19 46 5z
m647 -13 c-6 -16 -24 -21 -24 -7 0 11 11 22 21 22 5 0 6 -7 3 -15z m441 -15
c22 -10 35 -19 28 -19 -7 -1 -10 -8 -6 -18 4 -12 -1 -9 -16 7 -20 22 -21 23
-12 3 15 -31 14 -33 -16 -33 -20 0 -24 -3 -14 -9 11 -7 11 -16 -4 -55 -19 -50
-34 -60 -31 -21 0 14 5 25 9 25 5 0 2 7 -7 15 -8 8 -25 15 -38 15 -18 0 -20
-2 -8 -10 12 -8 11 -10 -5 -10 -12 0 -26 5 -33 12 -9 9 -11 7 -7 -10 2 -12 -1
-24 -6 -27 -5 -4 -7 -10 -4 -15 3 -5 0 -12 -6 -16 -8 -4 -7 -9 2 -15 10 -6 11
-9 2 -9 -19 0 -16 -18 5 -23 13 -4 12 -5 -4 -6 -20 -1 -34 -18 -34 -42 0 -5
10 -9 23 -10 12 0 17 -3 11 -5 -13 -5 -114 20 -143 36 -23 12 -45 5 -36 -11 4
-5 0 -9 -7 -9 -9 0 -9 -3 -2 -8 15 -10 14 -42 -2 -42 -6 0 -11 8 -10 17 0 9
-10 23 -24 30 -14 7 -20 13 -14 13 7 0 14 9 17 20 3 11 11 19 17 18 8 -2 13
13 15 42 5 83 6 88 14 60 4 -14 5 -34 1 -45 -4 -11 -3 -31 1 -45 4 -14 7 -19
8 -12 1 8 10 11 29 7 23 -5 24 -4 6 4 -28 12 -45 37 -20 28 10 -4 24 -7 32 -7
8 0 14 -8 14 -18 0 -10 6 -19 14 -19 8 0 12 6 9 14 -3 7 -1 13 5 13 5 0 12
-10 15 -22 4 -12 9 -20 12 -17 11 12 12 74 1 82 -6 5 -2 7 11 4 15 -3 20 -1
16 9 -3 8 -1 14 5 14 6 0 8 10 4 22 l-5 22 -10 -22 c-6 -12 -16 -22 -23 -22
-11 0 -11 5 -2 25 8 18 19 25 42 26 l31 1 -28 7 -28 6 35 34 c26 25 39 32 53
26 10 -5 22 -7 27 -6 5 1 16 -5 26 -14 16 -15 17 -14 15 10 -4 29 -3 29 50 5z
m-519 -27 c23 -31 24 -34 5 -18 -22 19 -46 55 -38 55 3 0 17 -17 33 -37z m86
5 c-7 -7 -12 -8 -12 -2 0 6 3 14 7 17 3 4 9 5 12 2 2 -3 -1 -11 -7 -17z m-395
-62 c2 -1 -10 -3 -27 -3 -16 0 -30 4 -30 9 0 4 -9 8 -21 8 -25 0 -119 41 -119
52 0 6 188 -56 197 -66z m35 50 c21 -31 -5 -34 -78 -9 -49 17 -49 17 -19 24
36 8 87 1 97 -15z m1084 -89 c-18 -110 -46 -190 -80 -228 -25 -29 -85 -71 -73
-52 4 6 2 13 -5 15 -16 6 119 338 146 360 12 9 22 13 24 9 2 -5 -4 -52 -12
-104z m-1366 99 c0 -3 -4 -8 -10 -11 -5 -3 -10 -1 -10 4 0 6 5 11 10 11 6 0
10 -2 10 -4z m40 -16 c8 -5 12 -12 9 -15 -8 -8 -39 5 -39 16 0 11 11 11 30 -1z
m1189 -9 c12 -8 12 -19 -3 -75 -10 -36 -21 -66 -25 -66 -4 0 -15 6 -25 13 -17
13 -17 16 -1 75 17 61 27 70 54 53z m-1369 -30 c0 -23 -9 -31 -25 -24 -11 4
-11 10 -3 29 12 26 28 23 28 -5z m290 -13 c0 -3 -18 1 -40 10 -22 9 -40 20
-40 24 0 3 18 -1 40 -10 22 -9 40 -20 40 -24z m2203 17 c54 -22 45 -28 -10 -6
-73 28 -80 32 -52 26 14 -2 42 -11 62 -20z m-1618 5 c3 -5 1 -10 -4 -10 -6 0
-11 5 -11 10 0 6 2 10 4 10 3 0 8 -4 11 -10z m1071 -12 c4 -6 -1 -17 -11 -25
-21 -15 -37 -1 -28 24 6 16 29 17 39 1z m-1020 -13 c19 -14 19 -14 -2 -15 -12
0 -24 7 -28 15 -7 19 5 19 30 0z m958 -11 c3 -9 6 -29 6 -46 0 -41 56 -143 86
-157 19 -8 24 -8 24 3 0 8 12 21 26 31 35 22 209 67 259 66 170 -4 375 -151
462 -331 23 -47 47 -110 54 -140 17 -70 17 -251 0 -310 -96 -334 -439 -489
-749 -338 -103 50 -218 169 -270 278 -114 239 -87 478 75 677 l35 42 -34 63
c-19 35 -38 62 -43 61 -6 -1 -18 -5 -27 -8 -25 -10 -37 24 -15 40 10 7 17 19
17 28 0 9 17 25 38 36 46 25 48 25 56 5z m160 1 c20 -8 36 -17 36 -19 0 -6
-78 18 -86 27 -12 12 11 8 50 -8z m249 -17 c-62 -6 -98 -6 -110 1 -13 8 12 10
92 9 l110 -1 -92 -9z m-1358 -8 c3 -5 -3 -10 -14 -10 -11 0 -23 5 -26 10 -3 6
3 10 14 10 11 0 23 -4 26 -10z m10 -31 c5 -5 -2 -9 -17 -9 -14 0 -31 7 -39 16
-11 13 -9 14 17 8 16 -3 33 -11 39 -15z m1208 15 c7 -7 -82 -84 -96 -84 -5 0
-7 12 -5 28 2 19 9 28 25 30 12 2 27 10 33 18 13 15 32 18 43 8z m-868 -26
c-16 -55 -30 -88 -36 -88 -4 0 -12 6 -18 14 -10 11 -8 23 9 55 22 44 56 58 45
19z m-448 -10 c-3 -8 -6 -5 -6 6 -1 11 2 17 5 13 3 -3 4 -12 1 -19z m260 16
c-3 -3 -12 -4 -19 -1 -8 3 -5 6 6 6 11 1 17 -2 13 -5z m19 -40 c-3 -9 -6 -29
-6 -45 0 -16 -4 -29 -9 -29 -5 0 -8 14 -7 30 1 17 -1 30 -4 30 -4 0 -7 7 -7
15 0 8 9 15 20 15 13 0 17 -5 13 -16z m-1296 -14 c0 -5 -4 -10 -10 -10 -5 0
-7 -7 -4 -15 4 -8 1 -15 -5 -15 -6 0 -8 -7 -5 -15 4 -8 1 -15 -5 -15 -6 0 -8
-7 -5 -15 4 -8 2 -15 -3 -15 -9 0 -10 -6 -15 -75 -3 -37 -5 -40 -38 -45 -23
-3 -31 -8 -22 -13 6 -5 15 -6 20 -4 4 3 13 -1 19 -9 8 -8 9 -15 3 -19 -6 -3
-10 -2 -10 3 0 5 -8 12 -17 15 -27 9 -115 59 -145 83 -22 17 -25 24 -15 35 10
11 9 11 -6 -1 -13 -10 -21 -10 -29 -2 -9 9 -6 18 13 38 35 38 100 81 140 92
45 13 139 15 139 2z m1330 0 c12 -8 11 -10 -7 -10 -13 0 -23 5 -23 10 0 13 11
13 30 0z m-93 -26 c-3 -3 -12 -4 -19 -1 -8 3 -5 6 6 6 11 1 17 -2 13 -5z
m-1090 -40 c18 -14 33 -33 33 -42 1 -9 12 -30 27 -47 l26 -30 -18 30 -18 30
20 -18 c12 -10 31 -38 44 -62 14 -26 35 -49 51 -56 25 -10 33 -8 69 15 l41 27
97 -43 98 -44 -14 -39 c-14 -39 -13 -112 2 -148 7 -16 4 -18 -26 -15 -33 3
-34 2 -37 -39 -3 -39 -1 -43 25 -49 45 -9 53 -13 53 -23 0 -11 -76 -3 -103 11
-12 6 -16 16 -12 28 5 14 -4 22 -42 36 -26 9 -63 29 -82 43 -131 100 -164 121
-180 108 -14 -10 -14 -10 -3 4 10 14 8 19 -12 33 -14 9 -40 16 -58 16 -32 0
-32 0 -10 16 12 8 22 19 22 25 0 15 -37 10 -44 -6 -8 -21 -23 -19 -36 6 -14
25 5 53 31 46 26 -7 18 32 -19 91 -28 46 -29 50 -12 55 10 3 21 18 25 36 8 38
18 39 62 5z m1031 -17 c4 -18 -11 -21 -43 -7 -18 8 -18 9 5 10 23 2 22 3 -7
12 -18 6 -33 15 -33 19 0 15 75 -18 78 -34z m-296 -32 c-9 -19 -19 -30 -23
-24 -8 14 12 59 27 59 8 0 6 -12 -4 -35z m83 6 c3 -5 0 -13 -6 -17 -8 -4 -9
-3 -5 4 4 7 3 12 -3 12 -5 0 -11 -6 -14 -12 -2 -7 -8 -9 -13 -5 -5 4 -2 12 6
17 19 12 27 12 35 1z m183 3 c23 -7 32 -45 10 -43 -23 1 -84 27 -66 28 9 1 28
-3 43 -9 17 -7 24 -7 20 0 -3 6 -12 10 -20 10 -8 0 -17 5 -20 10 -7 11 0 12
33 4z m236 -36 c-2 -47 -20 -70 -53 -66 -29 3 -34 22 -14 56 11 17 11 22 1 23
-10 0 -9 2 1 6 11 5 11 7 0 14 -9 7 -1 9 26 7 39 -3 40 -4 39 -40z m-1367 -77
c-17 -20 -47 23 -47 67 l0 36 29 -44 c21 -34 25 -48 18 -59z m1073 59 c10 -10
32 -21 49 -25 38 -8 45 -18 36 -53 l-7 -27 -17 24 c-10 14 -23 21 -30 17 -14
-9 -51 2 -51 15 0 6 4 8 9 5 5 -4 4 5 -2 19 -7 13 -19 26 -27 28 -22 5 -51 -4
-45 -14 3 -4 -3 -13 -14 -19 -25 -13 -17 -40 13 -40 27 0 66 -27 66 -46 0 -8
-8 -14 -17 -14 -11 0 -3 -7 17 -18 29 -14 35 -23 38 -54 3 -35 1 -38 -22 -38
-18 0 -41 -15 -70 -45 -32 -32 -53 -45 -73 -45 -22 0 -25 -2 -13 -10 19 -12
77 -13 84 -1 4 5 0 12 -6 15 -7 3 -2 3 12 -1 14 -3 33 -6 44 -5 14 1 17 -4 12
-21 -3 -12 -6 -27 -6 -34 0 -6 -9 -9 -20 -6 -19 5 -25 -4 -21 -34 1 -8 -10
-13 -28 -13 -16 0 -37 -3 -46 -6 -9 -4 -15 -2 -13 4 4 13 -3 15 -24 7 -10 -4
-23 -5 -30 -2 -7 3 11 15 39 28 29 13 51 29 49 34 -2 6 -24 9 -51 8 -35 -1
-51 -7 -62 -22 -16 -24 -53 -28 -53 -6 0 9 6 12 15 9 10 -4 15 0 15 10 0 22
-30 33 -41 15 -10 -16 -12 -8 -3 15 4 9 18 16 34 16 16 0 32 5 35 10 3 6 -3
10 -14 10 -26 0 -34 15 -22 39 8 14 6 22 -8 35 -16 14 -19 14 -37 0 -18 -15
-18 -15 4 -9 18 5 22 2 22 -17 0 -13 -3 -18 -8 -12 -15 23 -51 26 -68 5 -21
-23 -34 -19 -34 12 0 18 2 20 11 7 9 -12 9 -11 4 5 -21 57 -22 95 -4 125 10
16 23 30 29 30 5 0 7 6 4 14 -7 19 25 49 45 40 9 -4 30 -7 48 -6 24 1 37 -5
56 -28 14 -16 27 -35 30 -42 4 -9 12 -5 26 12 12 16 16 27 9 31 -6 4 -7 12 -3
19 6 9 3 9 -13 1 -29 -16 -42 -14 -42 7 0 20 35 54 45 44 4 -4 11 0 15 9 13
22 106 13 130 -11z m-267 -10 c-3 -11 -12 -20 -19 -20 -8 0 -14 9 -14 20 0 13
7 20 19 20 14 0 18 -5 14 -20z m-293 -46 c0 -9 -5 -14 -12 -12 -18 6 -21 28
-4 28 9 0 16 -7 16 -16z m1015 -4 c-3 -5 -14 -10 -23 -10 -15 0 -15 2 -2 10
20 13 33 13 25 0z m-452 -31 c3 -13 1 -19 -6 -16 -15 5 -22 37 -9 37 5 0 12
-9 15 -21z m132 11 c-3 -5 -13 -10 -21 -10 -8 0 -14 5 -14 10 0 6 9 10 21 10
11 0 17 -4 14 -10z m-65 -78 c0 -16 5 -22 18 -20 10 2 16 -2 14 -11 -2 -8 3
-11 13 -8 8 4 15 2 15 -3 0 -6 -9 -10 -20 -10 -15 0 -20 -7 -20 -25 0 -29 15
-33 29 -7 9 15 10 14 11 -8 0 -32 -14 -54 -31 -48 -8 3 -33 -5 -56 -18 l-43
-23 20 37 c24 43 25 80 6 127 -17 39 -10 52 16 28 10 -9 18 -12 18 -7 0 5 -9
15 -20 22 -11 7 -20 17 -20 23 0 5 11 2 25 -8 13 -10 25 -28 25 -41z m80 47
c0 -5 4 -8 9 -4 19 11 22 -15 4 -34 -18 -18 -18 -18 -34 15 -16 32 -16 34 2
34 11 0 19 -5 19 -11z m130 -18 c0 -6 -4 -13 -10 -16 -5 -3 -10 1 -10 9 0 9 5
16 10 16 6 0 10 -4 10 -9z m-1300 -43 c0 -14 -19 1 -31 25 -12 22 -12 22 10 3
11 -11 21 -23 21 -28z m60 -38 c0 -5 -2 -10 -4 -10 -3 0 -8 5 -11 10 -3 6 -1
10 4 10 6 0 11 -4 11 -10z m1607 -37 c-3 -10 -5 -2 -5 17 0 19 2 27 5 18 2
-10 2 -26 0 -35z m-1567 27 c0 -5 -7 -7 -15 -4 -8 4 -15 8 -15 10 0 2 7 4 15
4 8 0 15 -4 15 -10z m-548 -63 c-5 -19 -3 -20 10 -9 14 11 20 11 37 0 12 -7
21 -20 21 -28 0 -13 1 -13 10 0 8 12 13 11 37 -8 15 -12 43 -30 61 -39 30 -15
33 -21 28 -48 -5 -26 -4 -27 6 -10 6 11 12 21 13 22 4 7 134 -50 130 -57 -3
-4 3 -6 12 -4 23 6 203 -55 301 -102 11 -5 -60 -103 -107 -147 -133 -122 -295
-114 -432 23 -65 64 -100 127 -129 231 -24 89 -29 229 -6 210 8 -7 12 -21 8
-34z m1481 26 c-7 -2 -21 -2 -30 0 -10 3 -4 5 12 5 17 0 24 -2 18 -5z m-347
-29 c-4 -10 1 -22 10 -29 21 -15 12 -45 -13 -45 -14 0 -18 8 -17 33 1 33 10
57 21 57 3 0 2 -7 -1 -16z m344 7 c0 -5 -9 -7 -20 -4 -11 3 -20 7 -20 9 0 2 9
4 20 4 11 0 20 -4 20 -9z m-385 -32 c11 -34 -13 -50 -44 -30 -13 8 -13 12 0
27 12 16 12 17 -1 9 -13 -8 -13 -6 -2 7 16 20 39 14 47 -13z m-620 3 c-3 -3
-11 0 -18 7 -9 10 -8 11 6 5 10 -3 15 -9 12 -12z m1085 -8 c0 -8 -5 -12 -10
-9 -6 4 -8 11 -5 16 9 14 15 11 15 -7z m-853 -55 l5 -54 -42 40 -41 40 26 3
c14 2 29 10 32 18 9 23 14 11 20 -47z m893 51 c-20 -13 -33 -13 -25 0 3 6 14
10 23 10 15 0 15 -2 2 -10z m1928 -56 c-3 -27 -4 -26 -9 8 -3 22 -1 34 4 29 5
-5 7 -21 5 -37z m-2003 -21 c16 -15 15 -18 -7 -34 -38 -30 -52 -21 -21 13 15
17 15 20 3 28 -9 6 -10 10 -3 10 6 0 19 -8 28 -17z m-913 -8 c0 -5 -5 -11 -11
-13 -6 -2 -11 4 -11 13 0 9 5 15 11 13 6 -2 11 -8 11 -13z m868 -14 c0 -6 -4
-13 -10 -16 -5 -3 -10 1 -10 9 0 9 5 16 10 16 6 0 10 -4 10 -9z m2052 -88
c-10 -26 -10 -24 -11 22 0 42 2 46 11 28 7 -15 7 -30 0 -50z m-2067 47 c-3 -5
-10 -10 -16 -10 -5 0 -9 5 -9 10 0 6 7 10 16 10 8 0 12 -4 9 -10z m-195 -8
c17 5 34 7 38 4 14 -15 -26 -26 -93 -25 -64 0 -68 1 -45 13 16 9 32 11 47 5
13 -5 35 -4 53 3z m2253 -124 c-10 -21 -10 -21 -9 9 1 19 5 28 10 23 6 -6 5
-18 -1 -32z m-3519 6 c3 -8 2 -12 -4 -9 -6 3 -10 10 -10 16 0 14 7 11 14 -7z
m190 -205 c-8 -13 -21 -11 -27 5 -4 10 0 12 14 9 10 -3 16 -9 13 -14z m76 -56
c12 -13 -56 10 -70 23 -12 12 -8 12 25 -2 22 -9 42 -19 45 -21z m2633 -190
c-7 -2 -19 -2 -25 0 -7 3 -2 5 12 5 14 0 19 -2 13 -5z"/>
<path d="M2620 1575 c0 -5 5 -17 10 -25 5 -8 10 -10 10 -5 0 6 -5 17 -10 25
-5 8 -10 11 -10 5z"/>
<path d="M2350 1361 c0 -4 18 -12 40 -18 22 -5 40 -7 40 -3 0 4 -18 12 -40 18
-22 5 -40 7 -40 3z"/>
<path d="M3637 1344 c-3 -4 -25 -6 -49 -7 -24 0 -34 -2 -23 -5 11 -2 25 -9 32
-14 9 -7 21 -3 39 11 15 12 22 21 17 21 -5 0 -12 -3 -16 -6z"/>
<path d="M3523 1323 c5 -7 -1 -17 -14 -23 l-21 -12 24 -25 c12 -15 17 -23 11
-19 -17 9 -16 -4 1 -27 13 -17 14 -17 14 5 1 13 4 37 7 54 5 22 2 34 -11 45
-10 8 -15 9 -11 2z"/>
<path d="M3570 1310 c0 -5 5 -10 11 -10 5 0 7 5 4 10 -3 6 -8 10 -11 10 -2 0
-4 -4 -4 -10z"/>
<path d="M3559 1273 c-3 -38 4 -58 24 -75 25 -22 30 -18 22 15 -5 17 -12 24
-21 20 -8 -3 -14 0 -14 6 0 6 4 11 9 11 5 0 7 9 4 20 -7 25 -23 26 -24 3z"/>
<path d="M3551 1185 c0 -11 8 -36 19 -55 25 -45 25 -37 0 25 -10 28 -19 41
-19 30z"/>
<path d="M3620 1133 c0 -7 5 -13 10 -13 6 0 10 -13 10 -29 0 -35 13 -47 29
-27 10 12 6 21 -18 48 -17 18 -31 27 -31 21z"/>
<path d="M3277 1050 c-3 -13 0 -20 9 -20 8 0 14 9 14 20 0 11 -4 20 -9 20 -5
0 -11 -9 -14 -20z"/>
<path d="M3610 1052 c0 -12 19 -26 26 -19 2 2 -2 10 -11 17 -9 8 -15 8 -15 2z"/>
<path d="M3680 1050 c-13 -8 -12 -10 3 -10 9 0 17 5 17 10 0 12 -1 12 -20 0z"/>
<path d="M3728 1033 c7 -3 16 -2 19 1 4 3 -2 6 -13 5 -11 0 -14 -3 -6 -6z"/>
<path d="M3270 1010 c0 -7 6 -26 14 -43 8 -18 30 -67 50 -109 21 -47 41 -78
50 -78 29 0 26 20 -13 71 -24 32 -45 74 -53 108 -9 38 -19 57 -31 59 -9 2 -17
-2 -17 -8z"/>
<path d="M3599 988 c-1 -7 -1 -19 0 -26 3 -19 57 -132 80 -167 16 -23 18 -32
8 -45 -11 -13 -10 -13 6 -1 20 16 23 61 5 80 -7 6 -13 15 -13 19 0 4 -14 40
-30 79 -27 66 -53 94 -56 61z"/>
<path d="M3837 969 c7 -7 15 -10 18 -7 3 3 -2 9 -12 12 -14 6 -15 5 -6 -5z"/>
<path d="M3867 939 c7 -7 15 -10 18 -7 3 3 -2 9 -12 12 -14 6 -15 5 -6 -5z"/>
<path d="M3232 900 c0 -14 2 -19 5 -12 2 6 2 18 0 25 -3 6 -5 1 -5 -13z"/>
<path d="M3925 850 c3 -5 8 -10 11 -10 2 0 4 5 4 10 0 6 -5 10 -11 10 -5 0 -7
-4 -4 -10z"/>
<path d="M3626 785 c4 -8 8 -15 10 -15 2 0 4 7 4 15 0 8 -4 15 -10 15 -5 0 -7
-7 -4 -15z"/>
<path d="M3399 774 c-11 -14 -7 -22 33 -60 26 -24 55 -44 64 -44 21 0 16 6
-44 48 -26 19 -38 33 -31 37 6 4 16 2 22 -4 6 -6 15 -11 20 -11 6 0 -2 11 -17
25 -32 30 -30 29 -47 9z"/>
<path d="M3197 709 c4 -13 8 -18 11 -10 2 7 -1 18 -6 23 -8 8 -9 4 -5 -13z"/>
<path d="M3949 700 l-24 -21 35 7 c41 8 44 9 35 23 -9 16 -20 14 -46 -9z"/>
<path d="M3951 670 c-14 -8 -20 -64 -8 -76 5 -5 47 31 47 41 0 3 -10 5 -21 5
-18 0 -19 2 -9 15 15 19 10 27 -9 15z"/>
<path d="M4181 503 c-10 -26 -10 -27 4 -9 8 11 15 23 15 28 0 15 -7 8 -19 -19z"/>
<path d="M3886 342 c-3 -5 1 -18 9 -28 14 -18 14 -18 15 3 0 23 -15 39 -24 25z"/>
<path d="M1030 1279 c0 -5 5 -7 10 -4 6 3 10 8 10 11 0 2 -4 4 -10 4 -5 0 -10
-5 -10 -11z"/>
<path d="M1055 1270 c-10 -11 -14 -20 -9 -20 5 0 15 9 22 20 7 11 11 20 9 20
-2 0 -12 -9 -22 -20z"/>
<path d="M1345 1230 c10 -11 20 -20 23 -20 3 0 -3 9 -13 20 -10 11 -20 20 -23
20 -3 0 3 -9 13 -20z"/>
<path d="M1400 1168 c0 -4 26 -15 58 -24 31 -9 61 -19 66 -22 5 -3 0 9 -10 27
-17 29 -22 32 -66 29 -27 -2 -48 -6 -48 -10z"/>
<path d="M1459 1064 c38 -48 55 -56 91 -40 22 9 28 16 20 21 -7 4 -16 2 -20
-5 -5 -9 -11 -7 -21 7 -18 24 -33 33 -65 39 l-26 5 21 -27z"/>
<path d="M1598 1007 c-16 -6 -28 -16 -28 -21 0 -14 107 -72 116 -63 9 9 -15
69 -34 85 -18 14 -17 14 -54 -1z"/>
<path d="M1767 1013 c-13 -12 -7 -51 9 -67 20 -21 54 -4 54 27 0 18 -2 19 -10
7 -8 -11 -9 -8 -4 13 5 24 3 27 -18 27 -14 0 -28 -3 -31 -7z"/>
<path d="M2231 1071 c16 -13 26 -16 31 -8 10 17 0 27 -29 27 l-25 0 23 -19z"/>
<path d="M2313 1003 c9 -2 25 -2 35 0 9 3 1 5 -18 5 -19 0 -27 -2 -17 -5z"/>
<path d="M2323 983 c9 -2 23 -2 30 0 6 3 -1 5 -18 5 -16 0 -22 -2 -12 -5z"/>
<path d="M2150 901 c0 -5 5 -13 10 -16 6 -3 10 -2 10 4 0 5 -4 13 -10 16 -5 3
-10 2 -10 -4z"/>
<path d="M957 839 c4 -13 8 -18 11 -10 2 7 -1 18 -6 23 -8 8 -9 4 -5 -13z"/>
<path d="M1048 713 c7 -3 16 -2 19 1 4 3 -2 6 -13 5 -11 0 -14 -3 -6 -6z"/>
<path d="M970 694 c0 -6 7 -19 16 -30 14 -18 14 -18 3 6 -14 31 -19 36 -19 24z"/>
<path d="M1060 679 c0 -5 5 -7 10 -4 6 3 10 8 10 11 0 2 -4 4 -10 4 -5 0 -10
-5 -10 -11z"/>
<path d="M1270 505 c0 -8 5 -15 10 -15 6 0 10 7 10 15 0 8 -4 15 -10 15 -5 0
-10 -7 -10 -15z"/>
<path d="M2688 2713 c7 -3 16 -2 19 1 4 3 -2 6 -13 5 -11 0 -14 -3 -6 -6z"/>
<path d="M2720 2706 c0 -2 7 -7 16 -10 8 -3 12 -2 9 4 -6 10 -25 14 -25 6z"/>
<path d="M3210 2311 c0 -12 35 -41 48 -41 21 0 13 15 -18 32 -17 9 -30 13 -30
9z"/>
<path d="M3327 2303 c-4 -3 -7 -15 -7 -25 0 -10 -9 -27 -19 -37 -17 -17 -18
-21 -5 -32 11 -9 14 -8 14 5 0 9 9 27 21 39 35 38 43 57 21 57 -10 0 -22 -3
-25 -7z"/>
<path d="M3402 2254 c-16 -18 -34 -65 -27 -72 3 -4 16 7 29 23 20 25 26 28 40
16 23 -19 20 -8 -6 22 -19 21 -25 23 -36 11z"/>
<path d="M3353 2233 c-3 -10 -8 -22 -10 -28 -3 -5 3 -1 11 9 16 20 21 36 11
36 -3 0 -8 -8 -12 -17z"/>
<path d="M3417 2204 c-11 -11 -8 -44 3 -44 15 0 24 30 13 41 -5 5 -12 6 -16 3z"/>
<path d="M3440 2087 c0 -9 -4 -17 -10 -17 -5 0 -10 -7 -10 -15 0 -8 -8 -15
-17 -16 -15 0 -15 -2 2 -8 11 -5 26 -6 34 -3 9 3 12 1 7 -6 -4 -7 -2 -12 3
-12 12 0 14 11 11 50 -2 29 -20 53 -20 27z"/>
<path d="M4422 910 c0 -14 2 -19 5 -12 2 6 2 18 0 25 -3 6 -5 1 -5 -13z"/>
<path d="M2650 889 c-10 -18 -9 -20 7 -17 10 2 19 11 21 21 5 24 -15 21 -28
-4z"/>
<path d="M4431 674 c0 -11 3 -14 6 -6 3 7 2 16 -1 19 -3 4 -6 -2 -5 -13z"/>
</g>
</svg>
