<?xml version="1.0" standalone="no"?>
<!DOCTYPE svg PUBLIC "-//W3C//DTD SVG 20010904//EN"
 "http://www.w3.org/TR/2001/REC-SVG-20010904/DTD/svg10.dtd">
<svg version="1.0" xmlns="http://www.w3.org/2000/svg"
 width="640.000000pt" height="480.000000pt" viewBox="0 0 640.000000 480.000000"
 preserveAspectRatio="xMidYMid meet">

<g transform="translate(0.000000,480.000000) scale(0.100000,-0.100000)"
fill="#000000" stroke="none">
<path d="M0 3684 l0 -1115 23 7 c31 9 39 26 21 45 -21 24 -19 46 4 27 28 -25
59 -31 66 -12 3 9 3 20 0 25 -10 17 7 69 22 69 9 0 12 -5 9 -10 -11 -17 20
-21 49 -6 16 8 39 12 52 10 23 -4 51 26 36 40 -3 4 1 4 9 1 12 -4 21 4 33 28
9 19 16 42 16 50 0 8 7 20 15 27 14 11 14 10 6 -13 -13 -32 3 -46 27 -24 9 8
31 21 47 30 23 11 33 26 43 63 27 95 34 114 42 114 5 0 3 -20 -5 -45 l-13 -46
46 48 c39 40 46 52 39 71 -4 13 -4 35 -1 49 7 25 8 25 20 8 8 -11 14 -14 14
-8 0 6 -7 16 -15 23 -12 10 -11 15 10 36 14 14 25 29 25 35 0 6 4 8 9 5 21
-13 29 62 9 82 -9 9 -9 12 3 13 7 1 21 2 29 3 8 1 21 -3 28 -8 9 -6 16 -6 20
0 4 6 15 13 25 17 9 3 17 15 17 26 0 15 -5 19 -17 14 -15 -5 -16 -3 -5 8 19
21 15 26 -20 23 l-33 -3 33 11 c24 8 32 17 32 34 0 13 5 24 10 24 6 0 10 -4
10 -10 0 -5 8 -10 18 -11 15 0 14 -2 -3 -10 -15 -7 -11 -7 15 -3 19 3 41 12
49 19 12 12 10 15 -15 20 -48 11 -51 13 -14 14 35 1 36 2 32 39 -2 28 -1 33 7
22 9 -13 11 -13 11 3 0 9 -6 17 -14 17 -7 0 -19 7 -26 15 -10 13 -9 15 11 15
19 0 21 2 9 10 -13 8 -12 10 3 10 30 0 19 28 -15 35 -26 6 -29 9 -14 17 9 5
25 6 36 3 17 -5 19 -2 17 17 -2 13 -15 29 -28 36 -22 11 -20 12 21 8 56 -6 87
8 50 23 -24 9 -24 10 -2 10 21 1 26 13 25 59 -1 6 6 12 14 12 12 0 12 3 -1 22
-20 28 -22 58 -4 40 15 -15 31 -16 22 0 -5 8 -2 9 11 5 14 -6 16 -3 12 13 -3
11 -1 20 4 20 5 0 4 11 -1 25 -7 18 -6 26 5 32 7 5 13 17 12 28 -1 12 5 21 18
23 11 2 23 9 27 16 5 7 8 4 8 -8 0 -12 5 -16 15 -13 8 4 17 1 21 -5 4 -7 3 -8
-4 -4 -7 4 -12 3 -12 -3 0 -5 5 -13 10 -16 6 -4 8 -10 5 -14 -2 -5 7 -13 21
-20 33 -15 45 -14 19 2 -11 7 -21 18 -23 25 -1 8 2 11 7 8 5 -4 21 -1 36 6 18
8 22 14 13 20 -9 5 -4 8 14 8 39 0 80 21 74 37 -3 8 -1 11 4 8 13 -8 83 41 86
60 2 11 -3 15 -12 11 -9 -3 -12 -1 -9 4 3 6 17 10 30 10 37 0 82 20 66 29 -9
6 -3 12 18 21 17 7 44 28 61 46 16 19 33 34 37 34 14 1 78 70 64 70 -7 0 -9 5
-6 10 3 6 14 10 23 10 22 0 93 59 72 60 -8 0 4 9 28 20 24 11 41 24 37 30 -3
5 1 10 10 10 22 0 106 46 98 54 -3 3 3 6 15 6 11 0 24 5 27 10 3 6 15 10 26
10 10 0 19 4 19 9 0 4 24 13 53 19 l52 11 -50 -4 -50 -4 50 13 50 13 -35 5
c-19 3 -1 5 40 5 41 1 89 3 105 5 17 3 53 9 80 13 l50 8 -32 14 c-39 15 -45
27 -7 13 34 -13 47 -13 38 3 -5 7 0 6 11 -3 24 -20 148 -22 140 -2 -4 10 0 10
18 0 29 -16 101 -23 92 -9 -8 13 1 14 41 2 45 -13 61 0 46 35 -7 14 -10 29 -7
32 3 3 5 1 5 -4 0 -5 9 -24 20 -42 17 -27 24 -31 35 -22 10 8 19 8 34 0 17 -9
21 -8 21 5 0 19 11 19 55 1 19 -8 35 -12 35 -8 0 4 5 0 10 -8 8 -13 10 -12 10
3 0 12 -8 17 -25 17 -14 0 -25 4 -25 8 0 13 44 8 53 -5 4 -7 15 -13 24 -13 12
0 13 3 4 13 -9 11 -1 12 43 4 33 -6 53 -15 53 -23 0 -17 -24 -18 -30 -1 -4 7
-6 6 -6 -4 -1 -11 9 -18 29 -21 23 -3 30 -1 26 9 -3 7 -1 13 5 13 6 0 7 5 3
11 -8 13 54 2 72 -12 6 -5 15 -5 19 -1 5 4 5 1 1 -5 -9 -17 16 -17 32 -1 10
10 19 9 45 -4 59 -29 145 -49 226 -52 45 -2 78 0 76 4 -6 9 46 -3 65 -15 10
-6 35 -10 127 -19 23 -3 50 -9 60 -14 33 -17 83 -22 83 -9 0 6 5 4 11 -6 7
-12 17 -15 36 -11 16 4 24 3 20 -3 -3 -5 7 -10 23 -10 16 0 27 4 24 9 -3 4 -1
8 4 8 5 0 12 -9 15 -20 6 -23 35 -27 43 -5 4 8 10 13 14 10 5 -3 11 -1 15 5
11 17 20 11 21 -14 2 -31 38 -70 57 -63 9 3 14 -1 13 -11 -1 -12 7 -17 27 -17
20 0 32 -9 47 -32 14 -23 27 -33 45 -33 14 0 27 1 29 3 2 1 15 -11 28 -28 33
-43 91 -95 106 -95 6 0 12 -9 12 -20 0 -12 5 -17 14 -14 8 3 17 0 22 -7 5 -8
3 -10 -7 -5 -8 4 0 -4 16 -18 17 -14 36 -26 43 -26 6 0 12 -8 13 -17 0 -11 3
-13 6 -5 8 20 22 14 16 -8 -5 -20 3 -24 41 -20 11 1 15 -3 12 -9 -4 -6 0 -11
9 -11 9 0 13 -4 10 -10 -3 -6 1 -7 9 -4 9 3 23 -1 31 -10 10 -9 12 -16 5 -16
-6 0 -8 -5 -5 -10 5 -8 12 -7 22 1 10 9 16 10 21 1 11 -16 59 -33 121 -41 49
-7 257 9 321 24 50 13 120 48 120 61 0 7 8 15 19 19 10 3 43 32 74 65 30 33
64 60 74 60 10 0 26 9 36 20 23 27 40 25 35 -3 -4 -21 -1 -23 26 -20 l31 4
-30 -17 c-27 -16 -28 -18 -10 -25 11 -4 30 -8 43 -8 13 -1 22 -7 22 -16 0 -8
6 -15 13 -15 7 0 20 -8 29 -17 9 -10 23 -23 30 -29 7 -6 22 -24 33 -40 11 -15
27 -35 35 -44 8 -8 21 -33 29 -55 15 -42 53 -85 76 -85 7 0 27 -11 43 -25 27
-22 39 -25 111 -25 64 0 81 3 81 15 0 8 17 19 40 26 22 7 40 18 40 26 0 7 10
13 23 13 13 0 28 5 34 11 18 18 103 2 103 -19 0 -10 17 -35 38 -56 l37 -39 3
236 c1 130 1 345 0 479 l-3 243 -28 -27 c-21 -21 -38 -28 -66 -28 -23 0 -47
-8 -62 -20 -41 -33 -44 -36 -55 -43 -7 -4 -28 0 -48 8 -46 19 -56 19 -57 -2 0
-10 -7 -1 -16 20 -9 23 -22 37 -33 37 -9 0 -30 18 -45 40 l-28 40 -2978 0
-2979 0 0 -1116z m2433 1039 c-7 -2 -21 -2 -30 0 -10 3 -4 5 12 5 17 0 24 -2
18 -5z m1454 -155 c-3 -7 -5 -2 -5 12 0 14 2 19 5 13 2 -7 2 -19 0 -25z m2205
-16 c-7 -2 -12 -10 -12 -18 0 -20 -14 -18 -34 5 -17 19 -17 20 11 23 30 4 55
-3 35 -10z m-2077 -13 c-4 -5 -12 -9 -18 -8 -9 0 -8 2 1 6 6 2 9 10 6 15 -4 7
-2 8 5 4 6 -4 9 -12 6 -17z m1699 -115 c21 -21 20 -24 -9 -24 -18 0 -25 5 -25
20 0 24 13 26 34 4z m-114 -97 c0 -7 -11 -13 -24 -13 -14 0 -22 4 -20 8 3 5 9
6 14 3 5 -3 11 -1 15 5 9 14 15 13 15 -3z m116 -22 c-25 -19 -36 -19 -36 0 0
10 10 15 28 15 26 -1 26 -1 8 -15z m-1196 -19 c0 -2 -8 -10 -17 -17 -16 -13
-17 -12 -4 4 13 16 21 21 21 13z m-3769 -722 c12 -25 19 -47 17 -50 -2 -2 -14
19 -25 46 -12 28 -19 50 -17 50 3 0 14 -21 25 -46z m-27 -219 c-4 -8 -11 -15
-16 -15 -6 0 -5 6 2 15 7 8 14 15 16 15 2 0 1 -7 -2 -15z"/>
<path d="M2790 4695 c0 -8 4 -15 10 -15 5 0 7 7 4 15 -4 8 -8 15 -10 15 -2 0
-4 -7 -4 -15z"/>
<path d="M2952 4686 c7 -8 15 -12 17 -11 5 6 -10 25 -20 25 -5 0 -4 -6 3 -14z"/>
<path d="M3080 4682 c0 -10 27 -35 50 -46 8 -4 5 2 -8 13 -13 11 -22 23 -22
28 1 4 -3 9 -9 11 -6 2 -11 -1 -11 -6z"/>
<path d="M2880 4656 c6 -8 19 -12 27 -9 14 6 14 8 -3 14 -30 12 -37 10 -24 -5z"/>
<path d="M2925 4641 c-3 -5 -2 -12 3 -15 5 -3 9 1 9 9 0 17 -3 19 -12 6z"/>
<path d="M2953 4625 c0 -8 4 -12 9 -9 5 3 6 10 3 15 -9 13 -12 11 -12 -6z"/>
<path d="M3168 4618 c5 -5 16 -8 23 -6 8 3 3 7 -10 11 -17 4 -21 3 -13 -5z"/>
<path d="M3740 4546 c0 -3 9 -10 20 -16 11 -6 20 -8 20 -6 0 3 -9 10 -20 16
-11 6 -20 8 -20 6z"/>
<path d="M2818 4513 c6 -2 18 -2 25 0 6 3 1 5 -13 5 -14 0 -19 -2 -12 -5z"/>
<path d="M2413 4473 c9 -2 23 -2 30 0 6 3 -1 5 -18 5 -16 0 -22 -2 -12 -5z"/>
<path d="M1895 4460 c3 -5 1 -10 -6 -10 -7 0 -10 -3 -6 -6 3 -3 16 1 29 10
l22 16 -22 0 c-13 0 -20 -4 -17 -10z"/>
<path d="M2538 4463 c6 -2 18 -2 25 0 6 3 1 5 -13 5 -14 0 -19 -2 -12 -5z"/>
<path d="M2920 4440 c-12 -8 -10 -10 8 -10 13 0 20 4 17 10 -7 12 -6 12 -25 0z"/>
<path d="M1835 4420 c-3 -6 1 -7 9 -4 18 7 21 14 7 14 -6 0 -13 -4 -16 -10z"/>
<path d="M2325 4415 c23 -8 83 -10 79 -3 -3 4 -24 8 -47 7 -23 0 -37 -2 -32
-4z"/>
<path d="M2456 4404 c-9 -24 -7 -31 4 -14 8 12 10 12 10 1 0 -11 11 -12 48 -7
26 4 55 7 65 7 9 0 15 4 12 9 -3 5 -13 8 -23 8 -9 -1 -27 2 -39 6 -14 5 -23 3
-23 -3 0 -6 -7 -11 -16 -11 -8 0 -12 5 -9 10 3 6 0 10 -8 10 -8 0 -18 -7 -21
-16z"/>
<path d="M1769 4390 l-24 -21 35 17 c43 21 47 24 28 24 -9 0 -26 -9 -39 -20z"/>
<path d="M2001 4399 c-13 -5 -21 -12 -18 -15 3 -3 18 1 34 10 31 17 21 20 -16
5z"/>
<path d="M2100 4399 c0 -6 -7 -8 -17 -5 -9 4 -20 1 -24 -5 -5 -8 -31 -12 -72
-12 -56 1 -70 -2 -108 -29 -40 -27 -41 -29 -14 -22 17 4 40 7 52 7 18 -1 21 2
13 17 -8 14 -5 17 13 15 37 -4 38 -5 32 -15 -3 -5 -1 -10 4 -10 6 0 11 4 11 8
0 15 48 11 61 -5 12 -15 11 -16 -9 -10 -18 4 -22 2 -18 -9 3 -8 -1 -14 -10
-14 -8 0 -12 5 -9 10 3 6 1 10 -5 10 -6 0 -13 -7 -16 -15 -4 -8 -17 -15 -30
-15 -14 0 -27 -7 -30 -15 -4 -8 -12 -15 -20 -15 -8 0 -14 -4 -14 -10 0 -5 -8
-10 -19 -10 -10 0 -23 -6 -29 -12 -8 -10 1 -14 38 -15 27 -2 59 1 72 6 15 7
18 10 7 10 -9 1 -19 7 -22 15 -5 11 0 11 24 -1 16 -8 37 -12 46 -9 20 8 53 -2
53 -15 0 -6 -4 -8 -8 -5 -5 3 -18 -1 -29 -9 -25 -18 -20 -58 6 -51 43 13 75
17 63 8 -11 -7 -9 -10 7 -15 12 -3 23 -1 26 4 3 4 12 6 20 3 8 -4 13 -9 10
-13 -2 -5 26 -9 62 -10 37 -1 72 -5 77 -9 6 -3 36 -7 67 -8 68 -1 88 -10 62
-29 -10 -7 -15 -16 -12 -19 10 -10 150 -16 144 -6 -3 5 -12 7 -19 4 -8 -3 -17
-1 -21 5 -7 12 22 10 43 -3 10 -6 10 -11 2 -21 -9 -10 -18 -11 -37 -4 -14 5
-28 8 -30 5 -2 -2 11 -9 29 -16 30 -11 31 -13 13 -20 -23 -10 -5 -13 20 -4 13
5 14 9 4 15 -27 16 37 29 88 18 27 -6 62 -12 78 -14 49 -4 51 -5 35 -15 -13
-8 -12 -10 3 -10 9 0 17 3 17 8 -1 17 -29 42 -46 42 -16 0 -17 -2 -4 -11 12
-8 10 -9 -10 -7 -14 2 -24 9 -22 16 1 6 -8 12 -20 13 -19 1 -18 2 7 10 18 5
33 5 39 -1 13 -13 56 -13 56 0 0 6 -12 8 -27 5 l-28 -6 30 15 c26 14 27 15 5
10 -21 -5 -23 -4 -12 7 10 11 17 10 41 -4 33 -19 76 -22 87 -6 3 6 15 9 25 6
11 -3 19 -1 19 4 0 5 12 9 28 8 l27 -1 -25 -7 c-19 -6 -12 -8 27 -8 29 0 50 3
47 8 -3 5 -17 9 -31 9 -15 0 -24 3 -20 6 9 10 78 7 89 -4 10 -10 58 -4 58 8 0
4 -12 5 -27 2 -19 -3 -25 -1 -18 6 6 6 38 13 72 17 56 6 63 4 75 -14 7 -12 16
-21 21 -21 4 0 6 4 3 9 -3 5 1 12 10 15 24 9 28 7 14 -9 -10 -12 -10 -15 2
-15 7 0 14 9 15 20 1 15 -4 20 -23 20 -13 0 -24 5 -24 11 0 6 7 9 15 5 8 -3
15 -1 15 4 0 6 -14 10 -31 10 -17 0 -28 -4 -24 -10 4 -6 -6 -8 -27 -6 -45 6
-45 6 -23 17 l20 9 -20 -3 c-11 -2 -19 -9 -17 -16 2 -8 -4 -10 -18 -6 -12 4
-20 2 -20 -5 0 -7 -17 -9 -47 -7 -27 3 -36 2 -20 0 15 -2 25 -8 22 -13 -3 -4
-31 -2 -63 6 -31 7 -68 13 -82 12 -19 0 -17 -2 9 -7 19 -3 36 -12 39 -19 3
-10 -5 -12 -33 -6 -27 5 -36 4 -31 -5 4 -6 1 -11 -8 -11 -8 0 -17 6 -19 13 -4
9 -6 9 -6 0 -1 -7 -8 -10 -16 -7 -8 4 -22 1 -31 -6 -11 -10 -18 -10 -26 -2 -8
8 -3 13 18 17 52 12 50 13 -14 14 -35 1 -61 5 -58 10 4 5 0 12 -6 14 -7 3 -1
6 15 6 27 1 40 21 13 21 -8 0 -16 7 -20 15 -3 8 -13 15 -22 15 -13 0 -14 -3
-5 -13 11 -14 5 -27 -13 -27 -6 0 -4 5 4 10 16 11 14 11 -47 12 -21 0 -46 -3
-55 -6 -39 -13 -45 -13 -69 0 -22 12 -20 13 26 9 l50 -4 -45 9 c-25 5 -54 7
-65 4 -16 -4 -17 -3 -5 5 9 5 47 12 85 16 69 6 100 15 54 15 -23 1 -23 1 -5
15 26 20 7 19 -21 0 -19 -13 -21 -13 -16 3 3 13 -2 18 -16 18 -15 0 -17 -4
-10 -13 8 -9 4 -10 -22 -3 -38 11 -49 20 -24 20 24 0 11 13 -15 15 -10 1 -17
-2 -14 -7 4 -5 -10 -6 -31 -2 -27 5 -36 4 -31 -5 4 -6 16 -11 26 -11 10 0 21
-3 23 -7 3 -5 -15 -8 -40 -8 -25 0 -40 1 -34 3 20 7 11 22 -13 22 -28 0 -42
26 -20 34 22 8 31 7 17 -2 -8 -5 2 -8 24 -8 l37 0 -33 13 c-46 19 -137 22
-133 5 1 -9 -2 -11 -10 -6 -15 10 -128 12 -128 3 0 -4 -7 -10 -16 -13 -9 -4
-13 -2 -8 5 4 6 0 15 -7 20 -9 6 -3 8 19 5 18 -2 34 0 37 4 5 9 163 23 225 21
24 -1 42 1 38 4 -9 10 -177 11 -171 2 2 -4 -7 -5 -21 -1 -14 3 -49 0 -78 -7
-29 -7 -59 -12 -65 -12 -16 0 -17 -9 -2 -24 7 -7 5 -12 -9 -15 -16 -4 -18 -1
-14 15 3 13 1 18 -6 13 -6 -3 -13 -2 -17 4 -3 5 -1 11 4 11 6 1 14 3 19 4 4 1
23 6 42 10 29 7 31 9 15 16 -28 11 -35 10 -35 -2z m230 -90 c0 -6 -4 -7 -10
-4 -5 3 -10 11 -10 16 0 6 5 7 10 4 6 -3 10 -11 10 -16z m-90 1 c22 -7 22 -8
5 -10 -12 -2 -6 -5 15 -10 31 -7 32 -7 8 -9 -16 0 -27 -6 -25 -13 3 -16 -72
-22 -104 -8 -23 10 -23 10 6 9 17 -1 43 -1 59 0 29 1 29 1 10 20 -10 10 -25
16 -33 13 -9 -3 -12 -1 -7 6 8 13 29 14 66 2z m100 -49 c0 -10 -7 -18 -15 -18
-8 0 -15 4 -15 9 0 4 -12 8 -27 7 -30 -1 -27 -3 35 -24 12 -4 22 -11 22 -16 0
-11 -42 -2 -50 11 -4 7 -23 8 -49 4 -31 -5 -39 -9 -29 -16 9 -7 8 -8 -5 -4
-10 3 -26 6 -35 6 -15 0 -15 2 -2 10 8 5 29 10 46 10 19 0 34 6 38 15 3 8 14
15 25 15 11 0 22 4 26 10 9 14 35 0 35 -19z m-341 -7 c14 -12 -19 -1 -35 12
-18 14 -18 14 6 3 14 -6 27 -13 29 -15z m376 -13 c-3 -6 -11 -11 -16 -11 -5 0
-4 6 3 14 14 16 24 13 13 -3z m96 11 c-11 -4 -11 -6 0 -14 10 -7 6 -8 -11 -3
-14 4 -36 7 -50 7 -22 -1 -23 0 -5 7 10 4 33 8 50 8 16 0 24 -2 16 -5z m-351
-12 c0 -5 -8 -10 -17 -10 -15 0 -16 2 -3 10 19 12 20 12 20 0z m40 -39 c0 -5
-9 -7 -20 -4 -11 3 -20 7 -20 9 0 2 9 4 20 4 11 0 20 -4 20 -9z m340 5 c0 -2
-7 -7 -16 -10 -8 -3 -12 -2 -9 4 6 10 25 14 25 6z m-130 -16 c0 -5 -2 -10 -4
-10 -3 0 -8 5 -11 10 -3 6 -1 10 4 10 6 0 11 -4 11 -10z m68 4 c12 -4 22 -14
22 -23 0 -9 -3 -12 -8 -6 -4 6 -18 16 -32 22 -27 13 -18 16 18 7z m-99 -40 c2
-2 -7 -4 -22 -4 -14 0 -29 5 -32 10 -6 10 42 4 54 -6z m84 -11 c-7 -2 -21 -2
-30 0 -10 3 -4 5 12 5 17 0 24 -2 18 -5z m94 -9 c-3 -3 -12 -4 -19 -1 -8 3 -5
6 6 6 11 1 17 -2 13 -5z m-32 -34 c-3 -5 -12 -10 -18 -10 -7 0 -6 4 3 10 19
12 23 12 15 0z m215 0 c0 -12 -30 -12 -85 -1 -38 8 -37 9 23 10 35 1 62 -3 62
-9z m-52 -28 c2 -7 -2 -10 -12 -6 -9 3 -16 11 -16 16 0 13 23 5 28 -10z"/>
<path d="M2610 4400 c0 -13 11 -13 30 0 12 8 11 10 -7 10 -13 0 -23 -4 -23
-10z"/>
<path d="M2660 4381 c0 -5 -23 -8 -50 -6 -32 2 -50 -1 -47 -8 4 -12 70 -16
112 -6 17 4 22 7 12 8 -10 1 -15 6 -12 11 3 6 1 10 -4 10 -6 0 -11 -4 -11 -9z"/>
<path d="M2798 4383 c7 -3 16 -2 19 1 4 3 -2 6 -13 5 -11 0 -14 -3 -6 -6z"/>
<path d="M2720 4368 c0 -13 7 -18 28 -17 21 1 22 2 7 6 -11 3 -23 10 -27 17
-5 7 -8 5 -8 -6z"/>
<path d="M2518 4363 c7 -3 16 -2 19 1 4 3 -2 6 -13 5 -11 0 -14 -3 -6 -6z"/>
<path d="M2818 4353 c7 -3 16 -2 19 1 4 3 -2 6 -13 5 -11 0 -14 -3 -6 -6z"/>
<path d="M2700 4322 c0 -4 9 -8 20 -9 11 -1 18 2 15 8 -7 11 -35 12 -35 1z"/>
<path d="M3498 4323 c6 -2 18 -2 25 0 6 3 1 5 -13 5 -14 0 -19 -2 -12 -5z"/>
<path d="M3110 4280 c14 -4 19 -8 11 -9 -8 -1 -12 -4 -9 -7 3 -3 15 0 26 7 16
10 26 10 44 2 39 -20 62 -23 93 -14 29 9 29 9 5 12 -14 1 -38 3 -55 5 -92 10
-138 12 -115 4z"/>
<path d="M1625 4260 c-4 -6 -11 -7 -17 -4 -7 4 -8 2 -4 -5 6 -9 12 -9 24 1 10
7 19 14 21 15 2 2 -1 3 -7 3 -6 0 -14 -5 -17 -10z"/>
<path d="M2913 4263 c9 -2 25 -2 35 0 9 3 1 5 -18 5 -19 0 -27 -2 -17 -5z"/>
<path d="M3040 4260 c8 -5 20 -10 25 -10 6 0 3 5 -5 10 -8 5 -19 10 -25 10 -5
0 -3 -5 5 -10z"/>
<path d="M2685 4250 c-3 -5 0 -12 6 -16 7 -4 9 -3 5 4 -4 7 5 9 31 5 45 -7 42
2 -4 10 -18 4 -35 2 -38 -3z"/>
<path d="M3407 4253 c-6 -6 -17 -8 -72 -13 -14 -2 -11 -4 10 -9 29 -7 28 -7
-12 -12 -24 -2 -43 -1 -43 3 0 5 -5 8 -11 8 -5 0 -7 -5 -3 -11 4 -7 -1 -9 -15
-5 -11 3 -29 8 -39 11 -9 3 -37 1 -62 -4 -50 -10 -57 -8 70 -16 24 -2 46 -8
48 -14 2 -6 19 -18 38 -27 26 -13 38 -14 47 -5 13 13 63 15 71 2 3 -4 -10 -6
-29 -4 -19 2 -35 -1 -35 -5 0 -5 11 -8 25 -7 14 2 25 -1 25 -6 0 -5 16 -9 35
-9 39 0 85 -18 85 -34 0 -6 -5 -5 -12 2 -7 7 -32 12 -57 12 -34 0 -42 -3 -31
-10 13 -8 13 -10 0 -10 -10 0 -11 -3 -3 -11 13 -13 47 -4 39 9 -7 12 36 8 59
-5 11 -7 16 -13 10 -13 -5 -1 -1 -5 10 -10 15 -7 9 -9 -22 -7 -24 1 -43 7 -43
12 0 6 -4 5 -8 -2 -5 -8 -19 -9 -42 -4 -28 6 -39 3 -53 -12 -19 -19 -18 -19 5
-11 29 10 114 7 158 -6 11 -3 -46 -23 -59 -21 -7 1 -10 -2 -7 -8 4 -6 -5 -8
-21 -6 -16 2 -34 4 -41 4 -8 1 -10 6 -6 14 6 10 4 10 -7 0 -15 -15 -123 -18
-115 -4 5 8 -72 4 -82 -4 -2 -2 11 -8 28 -13 18 -7 28 -7 25 -2 -4 6 1 10 10
10 9 0 14 -4 10 -9 -3 -5 0 -13 6 -17 8 -4 9 -3 5 4 -5 8 4 12 29 12 22 0 34
-4 30 -10 -5 -9 16 -15 38 -11 5 1 6 -3 3 -8 -4 -5 3 -13 15 -16 22 -7 19 -17
-6 -21 -8 -1 -13 2 -9 7 3 5 -12 10 -33 10 -21 1 -59 3 -85 5 -36 2 -46 0 -42
-11 3 -8 15 -16 27 -18 13 -2 10 -4 -8 -3 -16 0 -36 7 -44 14 -7 7 -16 10 -19
7 -4 -3 0 -10 8 -15 20 -12 -48 -5 -83 9 -35 14 -37 14 -37 0 0 -5 5 -7 10 -4
6 3 10 1 10 -4 0 -6 9 -11 19 -11 11 0 22 -4 25 -9 3 -4 -19 -8 -49 -8 -31 0
-55 4 -55 10 0 6 -3 7 -6 4 -4 -3 -15 -2 -25 4 -15 8 -17 6 -12 -8 6 -16 5
-16 -10 -5 -8 8 -14 19 -11 26 3 9 -4 12 -25 11 -17 -1 -28 2 -25 7 3 4 -6 8
-20 8 -28 0 -34 18 -13 39 10 10 8 12 -8 9 -13 -2 -19 -10 -17 -23 3 -17 2
-17 -14 -4 -9 7 -20 13 -23 12 -9 -4 -74 18 -85 28 -6 5 -19 9 -30 8 -18 -1
-17 -2 4 -9 17 -6 20 -8 7 -9 -14 -1 -15 -3 -5 -15 7 -7 19 -13 27 -12 9 1 16
-5 16 -11 0 -7 3 -12 6 -10 10 4 39 -25 34 -34 -3 -4 3 -12 12 -18 16 -9 15
-10 -6 -11 -18 0 -21 -3 -12 -13 6 -8 7 -17 3 -21 -4 -5 0 -7 8 -6 8 1 22 2
30 1 13 -1 13 -2 0 -11 -27 -17 -49 -12 -45 11 3 16 -4 24 -30 35 -48 20 -58
18 -45 -6 6 -12 16 -18 23 -14 9 5 9 4 0 -6 -9 -10 -8 -16 3 -28 13 -12 13
-16 2 -23 -20 -13 -32 -11 -19 4 8 10 7 17 -1 25 -7 7 -8 12 -4 12 5 0 3 7 -4
15 -11 14 -14 13 -25 -2 -10 -14 -16 -15 -28 -5 -12 10 -16 9 -21 -4 -9 -24
-7 -34 7 -30 6 1 9 1 4 -1 -4 -3 -5 -9 -1 -14 3 -5 1 -9 -5 -9 -5 0 -11 4 -13
9 -1 6 -32 14 -67 20 -34 6 -79 19 -98 31 -19 11 -40 20 -48 20 -11 0 -27 22
-29 43 -1 4 -4 7 -8 7 -5 0 -13 0 -19 0 -5 0 -8 -4 -4 -9 3 -5 0 -13 -6 -17
-8 -4 -9 -3 -5 4 4 8 0 12 -11 12 -10 0 -31 7 -47 15 -15 8 -36 15 -45 15 -10
-1 -6 -6 12 -16 15 -8 27 -19 27 -25 0 -6 7 -8 15 -5 9 3 18 -1 21 -8 8 -20
34 -28 49 -16 10 8 12 3 10 -20 -2 -24 1 -30 12 -26 8 3 20 6 26 7 7 0 3 4 -8
9 -13 6 -15 9 -5 9 8 0 22 -4 30 -9 11 -7 11 -10 2 -10 -7 0 -11 -3 -9 -7 3
-5 -8 -8 -24 -8 -16 0 -29 5 -30 10 -1 12 -27 28 -53 32 -16 3 -17 1 -6 -12 7
-9 -6 -5 -31 10 -39 22 -89 36 -64 17 38 -28 30 -38 -10 -11 -31 21 -50 29
-53 21 -2 -7 -14 -10 -30 -6 -23 4 -24 4 -9 -6 11 -7 16 -18 12 -30 -4 -12 1
-22 12 -29 10 -6 14 -11 9 -11 -5 0 -17 7 -26 15 -16 14 -17 14 -13 -10 4 -17
12 -25 27 -26 11 0 15 -3 8 -6 -6 -2 -10 -9 -6 -14 9 -15 -3 -10 -42 16 -40
27 -59 32 -49 13 4 -7 -12 6 -34 30 -37 40 -49 46 -111 51 -12 1 -12 3 -2 10
11 7 11 9 -1 14 -21 8 -16 -16 12 -54 14 -19 28 -28 37 -25 8 3 12 1 9 -4 -3
-5 12 -21 35 -36 46 -31 50 -39 14 -30 -15 4 -23 3 -20 -3 3 -5 -3 -7 -14 -4
-16 4 -19 2 -14 -11 8 -20 -12 -21 -24 -1 -4 9 -18 17 -31 20 -19 3 -21 2 -11
-10 7 -8 15 -13 19 -11 4 3 12 -4 19 -15 16 -25 10 -24 -34 6 -20 14 -39 23
-42 20 -8 -8 29 -45 42 -42 6 1 10 -4 9 -10 -2 -7 2 -13 7 -13 6 0 10 -5 10
-11 0 -5 -16 2 -35 17 -19 14 -41 24 -49 21 -8 -3 -24 4 -35 15 -12 11 -28 17
-36 14 -8 -3 -17 0 -21 6 -5 7 -2 8 6 3 8 -5 11 -4 7 3 -4 5 -17 8 -29 4 -13
-3 -19 -1 -15 5 4 6 1 13 -7 16 -20 8 -28 -4 -15 -20 9 -10 8 -13 -4 -13 -21
0 -73 23 -78 35 -2 6 -15 10 -28 10 -13 1 -29 9 -36 19 -7 9 -16 13 -19 8 -7
-12 30 -46 43 -38 17 11 21 -11 4 -25 -12 -10 -14 -10 -9 -1 5 8 1 12 -10 12
-14 0 -12 -6 12 -31 28 -30 28 -31 5 -24 -20 6 -23 4 -19 -13 4 -15 1 -18 -13
-15 -15 4 -17 9 -9 19 9 9 7 15 -8 23 -29 15 -22 -22 11 -59 32 -35 19 -39
-32 -8 -20 11 -30 15 -23 8 23 -26 12 -34 -13 -10 -21 20 -27 21 -38 10 -9
-10 -9 -11 1 -6 14 8 17 -10 2 -19 -5 -3 -8 -28 -6 -56 1 -29 -1 -44 -5 -37
-5 7 -9 11 -9 8 -1 -3 -3 -27 -5 -53 -3 -26 -7 -52 -10 -58 -9 -14 -25 -11
-25 6 0 13 -25 21 -52 16 -5 0 -8 9 -8 21 0 19 -2 20 -10 8 -5 -8 -8 -35 -5
-60 4 -40 3 -43 -9 -27 -8 10 -22 17 -32 15 -17 -3 -17 -4 0 -20 9 -10 15 -22
12 -26 -3 -5 1 -18 9 -28 17 -22 19 -44 5 -44 -5 0 -10 7 -10 15 0 33 -46 95
-69 95 -14 0 -14 -2 -1 -10 9 -6 10 -10 3 -10 -6 0 -14 -13 -18 -30 -4 -16
-11 -33 -16 -36 -6 -3 -14 -16 -19 -28 l-9 -21 0 21 c-1 12 -8 27 -16 34 -13
11 -15 6 -16 -31 -1 -61 -7 -184 -14 -311 -4 -74 -3 -108 4 -108 6 0 11 -10
10 -22 l0 -23 -11 23 c-8 15 -20 22 -40 22 -31 0 -31 -2 -29 -75 2 -47 1 -49
-14 -30 -9 11 -19 25 -23 30 -4 6 -20 19 -35 28 -22 14 -26 21 -17 32 15 18
-19 38 -41 25 -11 -8 -10 -12 9 -25 12 -9 20 -21 17 -26 -28 -44 -37 -179 -13
-179 5 0 7 -8 4 -18 -9 -27 -10 -93 -2 -129 5 -22 4 -33 -3 -33 -6 0 -11 6
-11 14 0 7 -7 19 -15 26 -12 10 -15 10 -15 -4 0 -9 -8 -16 -20 -16 -24 0 -37
-27 -21 -43 8 -8 11 -7 11 6 0 38 25 10 45 -48 6 -19 7 -19 20 5 13 23 14 24
21 6 5 -12 3 -21 -4 -24 -7 -2 -12 -12 -12 -23 0 -14 -7 -19 -25 -19 -14 0
-25 5 -25 10 0 6 -7 10 -15 10 -16 0 -20 -20 -6 -35 4 -6 13 -28 18 -50 6 -22
14 -49 18 -60 5 -16 5 -17 -4 -5 -6 9 -11 10 -11 3 0 -6 -10 -13 -22 -15 -30
-4 -37 -38 -9 -38 12 0 21 -4 21 -10 0 -5 -13 -10 -30 -10 -16 0 -30 5 -30 11
0 5 -5 7 -10 4 -15 -10 -12 -35 5 -35 8 0 15 -4 15 -10 0 -5 -9 -10 -21 -10
-28 0 -19 -23 12 -31 l24 -7 -24 -1 c-20 -1 -22 -4 -13 -13 18 -18 14 -38 -8
-38 -20 0 -45 34 -36 48 3 5 -4 16 -16 26 -20 18 -21 18 -16 -7 4 -20 1 -24
-16 -20 -16 4 -18 2 -7 -5 8 -6 11 -17 8 -26 -4 -11 6 -30 28 -55 19 -21 35
-44 35 -50 0 -17 -28 -13 -39 7 -13 23 -33 3 -33 -32 0 -14 -4 -26 -8 -26 -10
0 -47 42 -52 60 -3 10 -6 8 -10 -7 -4 -14 1 -30 13 -44 23 -27 24 -30 4 -23
-24 10 -17 -14 10 -32 28 -18 33 -34 10 -34 -8 0 -15 -6 -15 -13 0 -7 -12 -20
-27 -29 l-28 -17 30 -1 c27 0 28 -1 13 -16 -14 -14 -22 -15 -45 -6 -15 6 -46
13 -68 16 l-40 5 28 -15 c31 -17 34 -29 10 -43 -15 -9 -12 -11 17 -12 23 -1
28 -3 15 -7 l-20 -5 20 -8 c17 -6 15 -8 -11 -8 -17 -1 -41 8 -54 19 -13 11
-29 20 -37 20 -7 0 -13 5 -13 10 0 6 -4 10 -10 10 -5 0 -10 -10 -10 -21 0 -12
-8 -28 -17 -35 -11 -8 -13 -13 -5 -14 6 0 12 -9 12 -19 0 -22 -30 -35 -62 -27
-13 3 -17 3 -11 0 18 -8 16 -24 -2 -24 -8 0 -15 5 -15 12 0 6 -9 2 -21 -10
l-20 -23 21 -34 c12 -19 29 -39 37 -44 10 -5 16 -23 16 -50 0 -57 -16 -71 -46
-43 -27 26 -57 29 -57 6 0 -14 -1 -14 -16 0 -8 9 -13 20 -10 25 3 5 -3 7 -14
4 -19 -5 -19 -7 -5 -23 8 -9 15 -21 15 -27 0 -6 3 -13 8 -15 4 -1 14 -16 22
-33 9 -16 26 -34 38 -40 32 -14 27 -28 -8 -20 -24 5 -29 4 -24 -8 4 -12 -1
-13 -31 -3 -20 6 -29 12 -21 14 19 4 19 7 6 33 -6 10 -17 19 -25 19 -8 0 -15
5 -15 12 0 9 -3 9 -12 0 -7 -7 -23 -12 -37 -12 -35 0 -17 -13 22 -16 47 -2 49
-3 45 -16 -3 -8 -19 -12 -42 -10 -28 3 -36 0 -31 -8 8 -13 -11 -30 -33 -30 -8
0 -10 8 -6 26 4 17 2 29 -7 35 -34 22 -49 1 -21 -29 7 -8 10 -17 7 -22 -3 -4
8 -20 25 -33 16 -14 30 -28 30 -31 0 -14 -31 -4 -58 19 -39 33 -47 32 -25 -5
9 -16 23 -30 31 -30 7 0 11 -4 8 -9 -11 -18 24 -32 84 -35 59 -2 62 -4 77 -35
14 -28 20 -31 44 -26 22 5 34 1 55 -20 30 -30 25 -44 -9 -27 -62 32 -100 34
-63 3 8 -7 11 -22 8 -38 -3 -14 -1 -24 4 -20 5 3 9 -13 9 -34 1 -48 -11 -51
-19 -4 -7 33 -14 40 -45 36 -7 -2 -10 3 -6 9 4 6 13 9 21 6 19 -7 18 7 -4 47
-14 26 -24 33 -47 34 -17 0 -37 3 -45 6 -38 13 -58 14 -54 2 3 -7 17 -10 32
-8 23 3 24 2 7 -6 -19 -8 -18 -9 8 -21 15 -7 27 -16 27 -20 0 -4 9 -10 20 -13
25 -6 26 -28 1 -24 -10 2 -30 11 -45 20 -14 10 -26 13 -26 8 0 -13 29 -41 43
-42 7 0 3 -4 -8 -8 -17 -7 -15 -9 16 -20 20 -6 43 -9 52 -5 10 3 17 2 17 -3 0
-6 -14 -14 -31 -19 -37 -11 -42 -26 -11 -39 30 -13 28 -22 -8 -27 -16 -3 -30
-1 -30 4 0 4 -11 8 -24 8 -13 0 -26 7 -30 15 -8 21 -56 39 -70 25 -7 -7 -5
-10 7 -10 9 0 17 -4 17 -10 0 -5 7 -10 16 -10 8 0 12 -5 8 -11 -4 -8 -9 -8
-17 0 -20 20 -37 12 -37 -18 0 -29 22 -47 42 -34 7 3 8 1 4 -5 -4 -7 -1 -12 8
-12 9 0 16 5 16 10 0 6 5 10 12 10 6 0 19 6 27 13 10 9 26 11 46 6 28 -6 28
-7 5 -8 -38 -2 -74 -29 -60 -46 6 -8 21 -15 33 -17 19 -4 18 -6 -13 -20 -19
-9 -29 -17 -21 -17 8 -1 29 -12 48 -27 18 -14 47 -30 63 -36 17 -5 30 -14 30
-20 0 -6 -7 -7 -16 -4 -9 3 -25 6 -35 6 -11 0 -18 4 -15 9 3 5 -8 11 -24 13
-36 5 -39 1 -7 -12 20 -8 19 -9 -10 -9 -23 -1 -33 -6 -33 -16 0 -11 7 -14 28
-10 15 3 21 2 15 -1 -7 -3 -13 -12 -13 -20 0 -8 -8 -14 -17 -14 -15 0 -16 -2
-3 -10 8 -5 26 -6 39 -3 17 4 22 2 17 -6 -4 -6 -1 -11 8 -11 21 0 20 -16 -1
-24 -15 -6 -15 -8 -3 -16 13 -8 13 -11 1 -22 -10 -10 -12 -10 -7 0 14 25 -21
11 -47 -18 -15 -17 -32 -30 -38 -30 -6 0 -8 -7 -5 -16 5 -14 4 -15 -9 -4 -8 7
-12 16 -9 21 3 5 -2 6 -11 3 -12 -5 -13 -9 -4 -20 9 -11 8 -14 -5 -14 -11 0
-14 -5 -10 -12 5 -8 2 -9 -9 -5 -10 3 -17 2 -17 -3 0 -6 8 -10 18 -11 14 0 14
-2 -3 -9 -18 -7 -16 -8 10 -12 l30 -5 -27 -2 c-21 -1 -28 -6 -28 -22 l0 -21
36 21 c39 23 44 25 44 13 0 -5 -12 -15 -27 -23 -36 -18 -57 -38 -49 -46 3 -4
12 -1 18 5 15 15 28 16 28 2 0 -5 -7 -10 -16 -10 -8 0 -12 -4 -9 -10 3 -5 0
-7 -8 -5 -11 5 -14 -18 -15 -114 l-3 -121 1073 0 c832 0 1078 3 1100 12 27 12
28 16 28 79 0 60 2 67 25 77 27 13 32 33 12 50 -10 9 -17 3 -32 -23 -15 -30
-35 -46 -35 -30 0 22 37 75 53 75 23 0 17 24 -8 28 -10 2 -27 -7 -40 -22 -22
-26 -45 -34 -45 -17 0 6 4 12 9 15 5 3 12 22 15 41 4 21 13 35 21 35 8 0 15 5
15 10 0 6 -4 10 -10 10 -5 0 -11 15 -11 33 -2 27 -2 28 -6 7 -3 -14 -10 -31
-15 -38 -6 -6 -14 -27 -18 -45 -8 -31 -8 -31 -9 -4 -1 20 -6 27 -21 27 -22 0
-24 -4 -11 -28 5 -9 5 -26 0 -37 -7 -19 -8 -19 -8 3 -1 13 -7 22 -16 22 -25 0
-28 27 -6 51 34 37 24 42 -26 15 l-48 -26 28 24 c30 28 35 46 12 46 -8 0 -15
-4 -15 -10 0 -5 -9 -10 -21 -10 -11 0 -17 5 -14 10 4 6 -7 10 -24 10 -22 0
-31 -5 -31 -16 0 -13 -3 -14 -15 -4 -18 15 -45 6 -45 -14 0 -23 -40 -31 -58
-12 -15 15 -15 16 1 16 9 0 17 -4 17 -10 0 -5 5 -10 11 -10 7 0 9 10 7 25 -4
19 -1 25 13 25 30 0 132 29 143 41 8 8 2 9 -20 5 -24 -5 -33 -3 -38 9 -3 9
-11 13 -17 9 -8 -4 -9 -3 -5 5 5 8 19 10 37 6 18 -4 29 -3 29 4 0 6 -15 11
-32 11 -57 0 -108 12 -108 25 0 7 -7 16 -16 19 -33 13 -5 18 29 5 31 -11 37
-10 53 5 14 14 26 16 61 11 54 -8 85 9 56 31 -15 10 -22 10 -40 -2 -29 -19
-33 -18 -33 6 0 12 12 32 28 45 15 13 23 27 18 32 -5 4 -11 2 -13 -4 -3 -7
-13 -13 -23 -13 -10 0 -22 -5 -25 -10 -8 -13 -45 -13 -45 0 0 6 7 10 15 10 8
0 15 5 15 10 0 6 11 10 25 10 21 0 25 5 25 30 0 27 3 30 33 31 17 0 27 3 20 5
-7 3 -9 12 -6 20 8 21 -14 17 -37 -6 -22 -22 -60 -27 -60 -7 0 9 -2 9 -8 -1
-11 -16 -118 -20 -134 -4 -15 15 0 16 36 2 29 -11 34 -3 10 15 -15 10 -13 12
14 13 40 1 52 8 52 31 0 23 36 34 62 20 15 -8 29 -6 54 6 35 17 37 41 2 32
-15 -4 -18 -1 -13 14 5 15 1 19 -19 19 -14 0 -26 4 -26 9 0 4 31 8 70 7 38 -1
70 -4 70 -8 0 -12 65 -29 68 -18 6 16 26 11 40 -10 7 -11 21 -20 33 -20 11 0
33 -13 49 -28 15 -16 34 -29 42 -30 7 0 39 -1 71 -2 43 -2 56 -5 48 -13 -17
-17 -13 -27 8 -27 11 0 23 -4 26 -10 3 -5 28 -10 55 -10 l48 0 4 40 c2 26 -1
40 -8 40 -18 0 -37 27 -24 35 5 3 10 1 10 -4 0 -6 18 -11 40 -11 39 0 40 -1
40 -35 0 -19 3 -35 6 -35 3 0 19 11 36 25 26 22 27 25 9 25 -12 0 -21 5 -21
11 0 5 4 8 9 4 5 -3 12 4 16 15 9 28 25 25 25 -5 0 -18 5 -25 19 -25 22 0 33
41 24 95 -6 36 -5 37 16 24 11 -8 21 -21 21 -29 1 -10 8 -6 25 12 25 30 40 35
50 18 8 -13 -19 -40 -39 -40 -25 0 -18 -32 14 -69 18 -21 30 -45 30 -62 0 -19
5 -29 15 -29 12 0 13 5 4 27 -16 43 -29 121 -23 138 9 22 23 18 33 -9 11 -27
69 -44 83 -24 13 21 9 28 -12 28 -28 0 -25 28 3 32 19 3 22 10 25 56 2 37 7
52 18 52 9 0 14 11 14 31 0 17 4 28 10 24 6 -3 10 -16 10 -28 1 -12 7 -33 15
-47 14 -24 14 -24 15 20 0 33 3 41 10 30 5 -8 10 -25 10 -37 0 -24 22 -43 28
-25 7 21 22 2 22 -28 0 -16 5 -32 10 -35 6 -3 10 3 10 14 0 12 5 21 10 21 6 0
10 -8 10 -18 0 -14 12 -21 45 -29 32 -7 46 -7 49 1 2 6 5 1 5 -11 1 -25 16
-31 25 -10 3 6 3 2 1 -10 -7 -25 12 -42 21 -19 3 9 14 16 23 15 10 0 11 -2 4
-6 -17 -6 -16 -23 1 -23 8 0 17 -8 21 -17 6 -16 8 -15 19 6 l13 24 17 -24 c9
-13 16 -19 17 -14 0 6 4 1 9 -10 8 -19 9 -18 9 4 l1 24 21 -24 c17 -19 22 -21
29 -9 7 12 13 12 27 4 14 -9 21 -8 30 5 7 9 13 11 13 4 0 -6 9 -9 21 -6 11 3
18 11 15 18 -6 17 13 35 37 35 14 0 18 -6 15 -27 -5 -40 19 -39 36 2 l16 37
57 -3 c32 -1 69 1 83 4 14 4 39 9 57 10 17 2 38 8 45 14 7 5 38 18 68 27 57
19 118 61 184 130 l38 40 24 -29 c29 -36 29 -42 7 -48 -11 -3 -5 -5 12 -6 22
-2 39 -13 63 -43 49 -61 176 -163 220 -176 50 -15 157 -14 200 1 45 17 106 78
125 127 8 22 11 40 6 40 -5 0 -12 -7 -15 -15 -4 -8 -14 -15 -23 -15 -14 0 -14
-2 -1 -10 8 -5 11 -12 7 -16 -9 -9 -37 15 -37 31 0 8 12 18 28 23 15 6 20 11
12 11 -8 1 -21 10 -27 20 -10 16 -9 20 3 25 28 11 62 6 68 -9 6 -18 -15 -20
-31 -4 -6 6 -16 8 -22 4 -20 -11 -1 -25 35 -25 30 0 34 3 34 25 0 14 -6 25
-13 25 -8 0 -27 11 -43 25 -28 24 -28 24 -4 18 24 -6 24 -6 7 12 -10 10 -16
26 -14 36 3 11 0 19 -8 19 -7 0 -16 7 -19 16 -4 11 -15 15 -36 12 -16 -2 -27
-1 -24 4 3 4 18 8 34 8 16 0 31 4 34 8 5 9 -53 7 -94 -3 -24 -6 -24 -6 5 19
l30 26 -25 1 c-86 5 -101 9 -70 19 l25 8 -26 1 c-16 1 -29 -5 -33 -15 -8 -22
-8 -26 3 -19 15 8 24 -14 12 -29 -6 -7 -8 -16 -4 -19 3 -4 1 -7 -5 -7 -7 0
-12 -7 -12 -16 0 -12 3 -14 13 -6 9 8 16 6 24 -7 10 -17 8 -17 -28 -11 -21 4
-36 3 -33 -1 9 -15 -17 -10 -32 6 -9 8 -27 15 -40 15 -15 0 -23 4 -19 10 4 6
9 8 13 6 4 -2 13 3 20 10 12 13 10 14 -12 8 -28 -7 -34 4 -13 25 10 10 7 10
-16 0 -20 -9 -24 -15 -15 -21 20 -12 -3 -8 -42 8 l-35 14 33 -5 c17 -2 32 0
32 5 0 6 -4 10 -10 10 -5 0 -10 7 -10 16 0 11 -6 15 -19 11 -14 -3 -18 -1 -14
9 3 9 -2 14 -16 14 -18 0 -19 2 -9 13 10 12 15 10 30 -7 16 -19 17 -19 18 -3
0 11 -5 15 -11 11 -8 -4 -9 0 -4 15 5 16 3 20 -8 15 -9 -3 -16 3 -20 16 -5 18
-2 21 15 17 15 -4 18 -3 10 5 -9 9 -18 9 -36 0 -19 -8 -26 -8 -30 1 -2 7 -5 2
-5 -9 -1 -12 -8 -24 -16 -28 -13 -5 -14 -2 -5 15 6 11 10 27 8 37 -1 9 1 23 5
30 6 8 4 12 -5 10 -8 -2 -12 5 -11 20 2 18 -2 22 -25 23 -23 0 -24 2 -8 8 17
7 18 8 3 14 -10 4 -14 12 -11 22 4 8 -1 17 -10 21 -22 8 -20 25 2 18 15 -5 15
-4 1 8 -9 7 -14 20 -12 28 3 10 1 9 -7 -2 -10 -17 -13 -17 -40 -3 -17 9 -30
11 -30 5 0 -5 -5 -10 -12 -10 -6 0 -4 8 7 20 16 17 16 21 2 35 -9 8 -28 15
-44 16 -26 1 -26 2 7 9 24 6 37 5 42 -3 5 -8 8 -7 8 4 0 9 -3 19 -7 23 -12 11
-13 46 -2 46 5 0 7 5 4 10 -4 6 -10 8 -15 5 -5 -3 -11 -1 -15 5 -10 16 -45 12
-45 -6 0 -8 -4 -12 -10 -9 -15 10 -12 35 5 35 8 0 15 5 15 12 0 6 -3 8 -7 5
-9 -9 -34 13 -27 24 3 5 0 9 -5 9 -6 0 -11 -4 -11 -10 0 -5 -5 -10 -11 -10 -8
0 -8 4 1 15 6 8 9 19 5 24 -3 6 0 8 9 5 8 -3 16 2 19 13 3 12 5 8 6 -10 1 -25
5 -28 28 -25 14 2 28 9 29 16 1 7 0 8 -3 2 -9 -18 -30 -11 -37 13 -9 33 -7 47
5 47 5 0 7 -5 4 -10 -3 -6 4 -10 17 -9 13 0 17 3 11 6 -18 7 -16 21 5 26 10 3
7 5 -10 6 -15 0 -32 9 -37 19 -6 9 -11 11 -11 5 0 -7 -8 -13 -18 -13 -10 0
-29 -7 -42 -16 l-25 -16 23 20 c15 14 18 22 10 25 -10 4 -10 6 -1 6 7 1 10 8
7 19 -5 14 -4 15 5 2 10 -14 16 -7 12 13 -1 5 4 5 10 1 9 -5 10 -2 5 12 -4 10
-4 15 0 11 11 -11 35 29 28 47 -3 9 -1 16 5 16 6 0 11 9 11 20 0 11 5 20 10
20 6 0 10 5 10 12 0 6 -3 8 -7 5 -3 -4 -12 1 -19 11 -7 9 -17 18 -23 18 -22 3
-23 4 -12 18 10 12 7 14 -15 11 -26 -2 -27 -2 -9 11 14 10 15 14 4 14 -12 0
-12 2 1 10 11 7 8 10 -16 10 -34 0 -50 20 -31 39 8 8 8 11 -1 11 -7 0 -12 -4
-12 -10 0 -5 -9 -10 -20 -10 -11 0 -20 3 -20 8 1 12 27 42 38 42 13 0 24 29
16 42 -4 6 1 8 15 3 12 -4 21 -2 21 4 0 6 -8 11 -17 11 -12 1 -7 6 12 15 l30
13 -37 -5 c-25 -4 -38 -2 -38 6 0 6 4 11 10 11 5 0 7 7 4 15 -3 8 1 24 10 37
19 26 20 38 5 38 -5 0 -7 -5 -3 -12 5 -7 3 -8 -6 -3 -10 6 -10 11 4 20 9 7 14
19 10 29 -9 23 32 22 46 -1 9 -16 10 -15 9 7 -3 48 0 54 16 40 12 -10 15 -10
15 0 0 9 9 11 30 7 23 -5 30 -3 30 9 0 12 -7 15 -25 12 -14 -3 -25 -1 -25 3 0
5 -8 9 -17 10 -15 0 -15 2 2 8 11 5 22 4 23 0 2 -5 16 -9 30 -8 24 0 25 1 7 9
-11 5 -14 9 -6 9 11 1 11 4 1 16 -7 9 -10 18 -6 22 3 4 13 -2 21 -13 12 -15
16 -16 24 -6 7 11 13 9 30 -9 11 -12 21 -26 21 -31 0 -4 4 -8 8 -8 5 0 7 18 5
40 -2 22 2 40 7 40 6 0 10 -5 10 -11 0 -5 5 -7 12 -3 7 4 27 7 45 6 19 -2 33
2 33 8 0 6 5 8 11 5 6 -4 8 -10 5 -13 -3 -3 0 -12 7 -20 10 -13 9 -14 -3 -7
-13 8 -13 7 -1 -8 20 -25 26 -21 29 16 2 17 7 50 13 71 30 110 61 279 62 338
1 38 6 68 11 68 5 0 3 7 -5 16 -9 11 -10 17 -1 23 7 4 8 12 2 21 -13 21 -12
26 6 45 15 15 15 17 -2 31 -11 9 -13 13 -6 9 9 -5 12 1 9 22 -4 32 11 63 32
63 11 0 11 3 1 15 -10 12 -9 16 4 21 9 3 23 4 31 0 8 -3 15 -1 15 4 0 6 -6 10
-12 10 -7 1 3 9 22 20 l35 18 -28 11 c-34 13 -37 13 -37 2 0 -5 10 -12 23 -14
21 -4 20 -4 -3 -5 -31 -2 -62 17 -42 25 10 4 9 8 -4 18 -15 10 -9 11 32 4 61
-10 79 -11 72 -3 -3 3 -28 9 -55 14 l-48 9 47 -2 c25 -1 44 1 41 6 -2 4 2 7 9
7 10 0 10 2 -1 9 -10 7 -8 12 10 25 13 9 19 16 14 16 -6 0 -3 4 5 10 8 5 12
11 9 15 -3 3 -15 -3 -27 -13 -12 -11 -19 -22 -15 -26 3 -3 1 -6 -5 -6 -19 0
-14 15 13 43 18 18 22 27 13 30 -10 4 -10 6 0 6 6 1 12 8 12 17 0 11 -6 15
-19 11 -10 -2 -26 0 -36 6 -14 7 -21 6 -31 -8 -12 -16 -14 -16 -20 -2 -8 22 3
37 23 30 15 -6 15 -5 3 8 -20 22 -49 21 -63 -2 -6 -10 -18 -19 -26 -19 -11 0
-10 -4 4 -13 11 -9 15 -19 10 -27 -6 -10 -4 -12 9 -7 9 4 15 3 11 -2 -3 -5 1
-12 7 -14 8 -3 6 -6 -5 -6 -10 -1 -15 -5 -12 -11 4 -6 -6 -10 -22 -9 -28 0
-28 0 -4 10 18 7 21 12 12 23 -6 7 -8 16 -4 19 9 10 -39 45 -54 40 -11 -4 -11
-8 -1 -21 11 -13 9 -14 -17 -9 l-30 7 25 -15 c14 -8 21 -14 15 -15 -5 0 -23
10 -40 21 -16 12 -23 19 -15 16 8 -2 21 2 28 10 11 11 8 13 -20 9 -18 -3 -27
-3 -20 0 6 3 12 10 12 15 0 6 -4 8 -9 5 -5 -4 -7 4 -5 16 2 13 2 17 -2 11 -11
-23 -24 -14 -15 10 9 22 7 23 -16 19 -18 -3 -21 -7 -11 -13 8 -5 8 -9 2 -9 -6
0 -17 7 -24 15 -16 19 -59 19 -66 0 -4 -8 -10 -12 -15 -9 -6 3 -16 0 -24 -6
-8 -7 -15 -10 -15 -6 0 10 34 41 45 42 6 0 27 4 48 8 29 7 37 12 32 24 -4 11
4 7 20 -8 23 -21 25 -22 19 -5 -7 17 -6 18 8 7 13 -11 15 -9 10 15 -3 16 -11
32 -18 36 -8 4 -14 13 -14 18 0 6 6 7 13 2 6 -4 20 -6 31 -4 12 2 16 -1 11
-10 -5 -8 -4 -10 4 -5 9 6 9 11 0 22 -6 8 -14 12 -17 10 -2 -3 -13 5 -24 17
-15 17 -18 18 -14 5 3 -12 0 -18 -9 -18 -8 0 -15 4 -15 9 0 11 -55 31 -87 31
-13 0 -22 4 -18 10 3 5 13 7 23 4 14 -5 14 -4 3 4 -8 6 -21 8 -29 4 -9 -3 -13
-1 -9 5 4 7 -5 16 -20 21 -18 7 -22 11 -10 11 26 1 20 16 -7 16 -13 0 -22 -3
-20 -7 2 -3 -5 -4 -16 -1 -11 3 -20 9 -20 14 0 5 -7 5 -17 2 -12 -5 -14 -3 -8
7 6 10 4 12 -8 7 -11 -4 -17 -1 -17 9 0 12 -4 12 -20 4 -15 -8 -20 -8 -20 2 0
9 -3 9 -10 -2 -8 -11 -9 -8 -4 11 7 34 -10 45 -39 26 -21 -14 -24 -13 -45 18
-15 24 -18 35 -9 39 7 3 -1 2 -17 -1 -22 -5 -27 -3 -21 7 6 9 4 11 -4 6 -7 -5
-10 -15 -7 -25 4 -9 -3 -5 -15 9 -18 21 -20 22 -15 5 6 -19 5 -19 -8 -2 -7 9
-19 17 -27 17 -11 0 -11 2 1 10 11 7 4 9 -23 6 -31 -4 -38 -2 -33 10 3 8 2 12
-3 9 -5 -3 -13 0 -18 7 -7 12 -9 16 -12 36 0 4 -11 13 -23 21 -23 14 -23 14
-4 -8 15 -17 16 -21 4 -21 -8 0 -18 3 -22 8 -4 4 -30 7 -57 8 -44 0 -48 -1
-28 -12 22 -11 22 -12 -10 -19 -18 -4 -35 -4 -38 -1 -4 3 5 6 18 6 22 1 21 3
-11 19 -19 11 -33 21 -30 24 3 3 1 9 -4 14 -5 5 -6 2 -1 -6 6 -11 3 -13 -13
-8 -12 4 -32 10 -44 14 -14 4 -19 3 -14 -5 4 -6 22 -14 41 -18 19 -3 33 -10
30 -14 -3 -5 1 -11 7 -14 7 -3 -7 -2 -31 1 -35 5 -42 3 -36 -7 5 -9 4 -11 -4
-6 -6 4 -35 2 -65 -5 -41 -9 -57 -9 -72 0 -19 12 -19 12 0 7 15 -5 17 -4 7 8
-9 11 -8 15 4 20 9 3 13 2 10 -4 -4 -6 13 -10 42 -10 41 1 45 2 28 12 -19 11
-19 11 0 19 18 7 18 8 2 8 -10 1 -20 -5 -23 -13 -5 -12 -11 -13 -30 -4 -18 8
-21 14 -12 20 8 4 8 8 2 8 -6 0 -14 -3 -17 -7z m-70 -49 c-3 -3 -12 -4 -19 -1
-8 3 -5 6 6 6 11 1 17 -2 13 -5z m173 -24 c-8 -5 -26 -9 -40 -9 -23 1 -23 2 5
9 43 11 52 11 35 0z m73 3 c-7 -2 -19 -2 -25 0 -7 3 -2 5 12 5 14 0 19 -2 13
-5z m227 -28 c0 -7 6 -16 13 -18 7 -3 5 -6 -5 -6 -10 -1 -18 6 -18 14 0 13
-19 20 -43 16 -5 -1 -6 3 -3 7 8 14 56 2 56 -13z m-286 -1 c4 -9 4 -19 1 -22
-3 -3 -5 0 -5 6 0 7 -10 12 -22 12 -19 0 -20 2 -8 10 21 14 27 12 34 -6z m221
-14 c3 -5 -1 -10 -9 -10 -9 0 -16 5 -16 10 0 6 4 10 9 10 6 0 13 -4 16 -10z
m30 0 c3 -5 1 -10 -4 -10 -6 0 -11 5 -11 10 0 6 2 10 4 10 3 0 8 -4 11 -10z
m-185 -46 c0 -2 -7 -4 -15 -4 -8 0 -15 4 -15 10 0 5 7 7 15 4 8 -4 15 -8 15
-10z m-10 -68 c0 -3 -4 -8 -10 -11 -5 -3 -10 -1 -10 4 0 6 5 11 10 11 6 0 10
-2 10 -4z m100 -12 c0 -12 -6 -15 -22 -11 -12 4 -29 1 -37 -6 -12 -10 -13 -9
-7 2 7 10 3 12 -13 6 -11 -3 -21 -4 -21 -1 0 6 57 24 83 25 9 1 17 -6 17 -15z
m93 -1 c-7 -2 -19 -2 -25 0 -7 3 -2 5 12 5 14 0 19 -2 13 -5z m-303 -54 c0 -5
15 -3 33 4 42 17 117 22 117 8 0 -6 -3 -10 -7 -10 -29 5 -103 -3 -99 -9 8 -14
-27 -11 -61 4 -39 18 -42 23 -8 16 14 -2 25 -8 25 -13z m217 7 c0 -8 -11 -19
-24 -25 -15 -7 -22 -7 -18 -1 3 5 0 10 -7 11 -7 0 1 7 17 14 17 8 30 14 31 15
0 0 1 -6 1 -14z m-182 -46 c-3 -5 -12 -7 -20 -3 -21 7 -19 13 6 13 11 0 18 -4
14 -10z m-545 -4 c0 -3 -4 -8 -10 -11 -5 -3 -10 -1 -10 4 0 6 5 11 10 11 6 0
10 -2 10 -4z m670 -8 c0 -4 -9 -8 -21 -8 -11 0 -18 4 -15 8 3 5 12 9 21 9 8 0
15 -4 15 -9z m734 -23 c9 -14 15 -25 13 -25 -2 0 -16 11 -31 25 -17 16 -22 25
-13 25 8 0 22 -11 31 -25z m-1021 8 c-7 -2 -19 -2 -25 0 -7 3 -2 5 12 5 14 0
19 -2 13 -5z m-1122 -50 c13 -15 12 -15 -11 -3 -34 17 -36 20 -18 20 9 0 22
-7 29 -17z m493 -9 c5 -13 4 -14 -7 -6 -8 7 -18 8 -22 4 -5 -4 -5 -1 -1 6 10
17 23 15 30 -4z m-86 -37 c8 -10 6 -13 -9 -13 -10 0 -19 3 -19 7 0 4 -10 5
-22 3 -21 -4 -22 -4 -3 5 28 13 41 13 53 -2z m57 -9 c-9 -6 -19 -7 -22 -4 -4
3 -1 6 6 6 7 0 9 4 6 10 -4 6 1 7 11 3 15 -6 15 -7 -1 -15z m1525 12 c0 -5 -5
-10 -11 -10 -5 0 -7 5 -4 10 3 6 8 10 11 10 2 0 4 -4 4 -10z m-1889 -17 c13
-16 12 -17 -3 -4 -10 7 -18 15 -18 17 0 8 8 3 21 -13z m56 11 c-3 -3 -12 -4
-19 -1 -8 3 -5 6 6 6 11 1 17 -2 13 -5z m2003 2 c0 -2 -7 -7 -16 -10 -8 -3
-12 -2 -9 4 6 10 25 14 25 6z m-2145 -26 c3 -6 -1 -7 -9 -4 -18 7 -21 14 -7
14 6 0 13 -4 16 -10z m528 3 c-7 -2 -19 -2 -25 0 -7 3 -2 5 12 5 14 0 19 -2
13 -5z m-644 -19 c18 -4 28 -11 25 -18 -3 -6 1 -3 9 6 8 10 18 14 23 9 5 -5
18 -12 29 -15 11 -3 5 -4 -12 -2 -18 1 -33 -1 -33 -6 0 -4 9 -8 19 -8 11 0 22
-4 25 -9 4 -5 -10 -5 -31 -1 -20 5 -39 8 -42 8 -3 0 -13 0 -21 1 -13 1 -13 2
0 11 8 5 13 10 10 11 -43 7 -55 10 -59 14 -6 7 21 6 58 -1z m-81 -23 c10 -6 7
-10 -11 -13 -14 -3 -32 -1 -39 4 -10 7 -8 8 5 4 9 -3 17 -1 17 4 0 12 11 12
28 1z m1807 0 c-6 -5 -21 -12 -35 -15 l-25 -7 25 15 c28 17 50 21 35 7z m405
-5 c0 -8 -7 -16 -15 -20 -12 -4 -13 -2 -2 14 14 24 17 25 17 6z m63 -31 c4 -8
2 -17 -2 -20 -5 -2 -11 4 -14 15 -6 23 8 27 16 5z m-2653 -5 c0 -5 -5 -10 -11
-10 -5 0 -7 5 -4 10 3 6 8 10 11 10 2 0 4 -4 4 -10z m2750 -11 c0 -6 -4 -7
-10 -4 -5 3 -10 11 -10 16 0 6 5 7 10 4 6 -3 10 -11 10 -16z m227 -26 c0 -7
-4 -13 -8 -13 -4 0 -9 6 -12 13 -3 8 0 14 7 14 7 0 13 -6 13 -14z m-319 -18
c-3 -3 -9 2 -12 12 -6 14 -5 15 5 6 7 -7 10 -15 7 -18z m418 11 c18 5 18 5 0
-6 -15 -10 -21 -9 -35 6 -14 16 -14 17 0 6 9 -7 25 -10 35 -6z m-161 -5 c3 -5
-6 -21 -19 -34 l-25 -25 22 -16 22 -17 -22 11 c-12 5 -25 15 -28 20 -4 6 -25
18 -46 27 -22 8 -38 18 -35 21 3 2 21 -3 40 -12 46 -22 55 -20 66 9 10 27 16
30 25 16z m-3111 -16 c-4 -8 -11 -12 -16 -9 -6 4 -5 10 3 15 19 12 19 11 13
-6z m3201 -13 c-3 -3 -11 0 -18 7 -9 10 -8 11 6 5 10 -3 15 -9 12 -12z m-3170
-23 c11 -17 -1 -21 -15 -4 -8 9 -8 15 -2 15 6 0 14 -5 17 -11z m2995 -15 c0
-2 -9 0 -20 6 -11 6 -20 13 -20 16 0 2 9 0 20 -6 11 -6 20 -13 20 -16z m21
-52 c-7 -2 -18 1 -23 6 -8 8 -4 9 13 5 13 -4 18 -8 10 -11z m-3181 -92 c0 -5
-4 -10 -10 -10 -5 0 -10 5 -10 10 0 6 5 10 10 10 6 0 10 -4 10 -10z m2397 -80
c-1 -22 -5 -40 -9 -40 -4 0 -8 3 -8 8 0 4 -3 18 -7 31 -5 18 -3 22 7 16 10 -6
12 -4 7 8 -3 10 -2 17 3 17 5 0 8 -18 7 -40z m130 -22 c-3 -8 -6 -5 -6 6 -1
11 2 17 5 13 3 -3 4 -12 1 -19z m-143 -63 c3 -8 1 -15 -4 -15 -6 0 -10 7 -10
15 0 8 2 15 4 15 2 0 6 -7 10 -15z m43 -127 c-3 -8 -6 -5 -6 6 -1 11 2 17 5
13 3 -3 4 -12 1 -19z m-2560 -60 c-3 -8 -6 -5 -6 6 -1 11 2 17 5 13 3 -3 4
-12 1 -19z m-33 -34 c4 -10 1 -14 -6 -12 -15 5 -23 28 -10 28 5 0 13 -7 16
-16z m-153 -367 c-13 -13 -26 -3 -16 12 3 6 11 8 17 5 6 -4 6 -10 -1 -17z
m3424 13 c3 -5 -1 -10 -9 -10 -9 0 -16 5 -16 10 0 6 4 10 9 10 6 0 13 -4 16
-10z m-3383 -32 c-9 -9 -12 -7 -12 12 0 19 3 21 12 12 9 -9 9 -15 0 -24z
m3112 -23 c3 -8 1 -15 -4 -15 -6 0 -10 7 -10 15 0 8 2 15 4 15 2 0 6 -7 10
-15z m-1804 -171 c0 -1 -12 -10 -27 -20 -20 -13 -25 -13 -16 -2 7 8 11 17 8
19 -2 3 5 5 15 5 11 0 20 -1 20 -2z m-1400 -129 c0 -8 -7 -15 -15 -15 -16 0
-20 12 -8 23 11 12 23 8 23 -8z m1310 -25 c-8 -5 -19 -10 -25 -10 -5 0 -3 5 5
10 8 5 20 10 25 10 6 0 3 -5 -5 -10z m-70 -54 c0 -2 -7 -7 -16 -10 -8 -3 -12
-2 -9 4 6 10 25 14 25 6z m1844 -27 c-3 -5 0 -9 5 -9 6 0 11 -5 11 -12 0 -9
-3 -9 -12 0 -17 17 -28 15 -29 -5 0 -15 -2 -15 -8 2 -11 28 -3 44 20 38 10 -3
16 -9 13 -14z m-2017 -25 c-3 -3 -12 -4 -19 -1 -8 3 -5 6 6 6 11 1 17 -2 13
-5z m-82 -54 l20 -9 -20 1 c-11 0 -33 4 -50 8 l-30 8 30 0 c17 0 39 -3 50 -8z
m54 -46 c2 -2 -13 -4 -35 -5 -34 0 -36 -1 -16 -10 22 -8 75 -5 94 7 4 3 8 1 8
-4 0 -13 -25 -22 -58 -22 -27 0 -115 29 -128 43 -7 6 127 -2 135 -9z m2191 -8
c0 -3 -4 -8 -10 -11 -5 -3 -10 -1 -10 4 0 6 5 11 10 11 6 0 10 -2 10 -4z m-30
-26 c0 -5 -2 -10 -4 -10 -3 0 -8 5 -11 10 -3 6 -1 10 4 10 6 0 11 -4 11 -10z
m-2290 -66 c0 -2 -7 -4 -15 -4 -8 0 -15 4 -15 10 0 5 7 7 15 4 8 -4 15 -8 15
-10z m2237 10 c-3 -3 -12 -4 -19 -1 -8 3 -5 6 6 6 11 1 17 -2 13 -5z m-3174
-11 c-7 -2 -21 -2 -30 0 -10 3 -4 5 12 5 17 0 24 -2 18 -5z m988 -21 c-13 -2
-27 0 -32 5 -6 6 3 7 23 4 28 -4 29 -6 9 -9z m94 8 c3 -5 1 -10 -4 -10 -6 0
-11 5 -11 10 0 6 2 10 4 10 3 0 8 -4 11 -10z m122 -6 c-3 -3 -12 -4 -19 -1 -8
3 -5 6 6 6 11 1 17 -2 13 -5z m-292 -15 c11 -16 1 -19 -13 -3 -7 8 -8 14 -3
14 5 0 13 -5 16 -11z m232 -5 c-3 -3 -12 -4 -19 -1 -8 3 -5 6 6 6 11 1 17 -2
13 -5z m-171 -29 c-16 -17 -42 -20 -51 -6 -5 9 15 16 53 20 10 1 10 -3 -2 -14z
m209 4 c-16 -5 -53 -10 -81 -12 -42 -2 -48 -4 -35 -14 9 -7 25 -13 36 -13 17
0 17 -2 5 -10 -12 -8 -11 -10 6 -10 11 0 24 3 27 7 4 3 19 7 34 9 l28 2 -30
-13 c-16 -7 -39 -16 -49 -19 -10 -4 -17 -9 -14 -11 3 -3 30 4 61 14 32 11 57
18 57 16 0 -6 -91 -45 -105 -45 -16 0 -41 -29 -50 -58 -6 -21 -4 -23 15 -17
15 5 20 4 16 -4 -4 -6 -18 -11 -31 -11 -13 0 -27 -4 -30 -10 -10 -16 -38 -12
-32 4 4 11 -3 14 -26 14 -28 0 -74 5 -99 10 -5 1 -8 6 -8 11 0 4 17 7 38 4 27
-2 33 -1 22 7 -11 7 -5 9 23 7 31 -2 35 -4 22 -14 -10 -6 -12 -14 -6 -17 5 -4
12 -2 15 3 3 5 22 12 43 16 27 5 33 9 22 16 -12 7 -12 9 0 9 25 0 5 10 -40 20
l-44 9 50 -4 c28 -3 57 0 65 5 12 8 12 10 -5 11 l-20 0 20 9 c14 6 0 9 -50 11
l-70 2 65 7 c36 4 63 8 60 9 -3 1 -44 3 -92 4 -49 1 -88 5 -88 9 0 4 18 8 39
8 22 0 41 5 43 11 4 12 89 26 168 26 47 0 51 -1 25 -8z m-42 -26 c-7 -2 -21
-2 -30 0 -10 3 -4 5 12 5 17 0 24 -2 18 -5z m2083 -25 c-14 -20 -62 -36 -50
-16 3 4 11 8 19 8 7 0 15 7 19 15 3 8 10 15 16 15 7 0 5 -9 -4 -22z m-3456
-28 c0 -5 -4 -10 -9 -10 -6 0 -13 5 -16 10 -3 6 1 10 9 10 9 0 16 -4 16 -10z
m1233 -47 c-7 -2 -19 -2 -25 0 -7 3 -2 5 12 5 14 0 19 -2 13 -5z m269 -22
c-12 -10 -22 -23 -22 -30 0 -6 -5 -11 -10 -11 -6 0 -22 -7 -36 -17 -19 -12
-22 -18 -12 -24 24 -15 1 -19 -26 -5 l-28 14 31 18 c36 21 38 29 14 43 -17 10
-17 10 -1 11 10 0 23 -6 30 -13 10 -12 17 -9 42 14 17 15 32 26 35 24 2 -3 -6
-13 -17 -24z m-142 9 c0 -5 -4 -10 -10 -10 -5 0 -10 5 -10 10 0 6 5 10 10 10
6 0 10 -4 10 -10z m-1380 -26 c0 -9 -5 -14 -12 -12 -18 6 -21 28 -4 28 9 0 16
-7 16 -16z m3460 -14 c0 -5 -5 -10 -11 -10 -5 0 -7 5 -4 10 3 6 8 10 11 10 2
0 4 -4 4 -10z m-3400 -35 c0 -12 -19 -12 -23 0 -4 9 -1 12 9 8 7 -3 14 -7 14
-8z m1303 8 c-7 -2 -19 -2 -25 0 -7 3 -2 5 12 5 14 0 19 -2 13 -5z m-1393 -23
c0 -5 -5 -10 -11 -10 -5 0 -7 5 -4 10 3 6 8 10 11 10 2 0 4 -4 4 -10z m3559
-42 c1 -5 -3 -8 -9 -8 -5 0 -10 12 -9 28 0 24 1 25 9 7 5 -11 9 -23 9 -27z
m-2034 14 c-12 -8 -13 -32 -2 -50 10 -15 -15 -26 -64 -27 -23 0 -35 -4 -32
-11 5 -12 -27 -24 -67 -24 -15 0 -30 -4 -36 -10 -6 -6 -15 -6 -24 0 -12 8 -11
11 8 16 12 4 22 10 22 15 0 5 7 9 15 9 16 0 76 27 85 39 7 9 83 49 95 50 7 0
7 -2 0 -7z m65 -2 c0 -5 -10 -10 -22 -9 -22 0 -22 1 -3 9 11 5 21 9 23 9 1 1
2 -3 2 -9z m85 -42 c0 -32 -5 -56 -12 -61 -7 -4 -13 -14 -13 -22 0 -7 -12 -18
-27 -23 -21 -8 -23 -11 -9 -11 18 -1 18 -3 -4 -26 -13 -14 -29 -25 -35 -25
-17 0 -65 -24 -65 -32 0 -5 -8 -8 -17 -8 -17 1 -17 1 0 11 9 5 17 16 17 23 0
8 8 16 18 18 10 3 28 23 39 44 11 22 30 44 44 51 19 10 23 19 23 57 -1 38 2
46 20 49 12 2 21 5 21 6 0 0 0 -23 0 -51z m25 12 c0 -5 -4 -10 -10 -10 -5 0
-10 5 -10 10 0 6 5 10 10 10 6 0 10 -4 10 -10z m-1892 -18 c3 -9 -2 -13 -14
-10 -9 1 -19 9 -22 16 -3 9 2 13 14 10 9 -1 19 -9 22 -16z m-43 -70 c-3 -3
-11 0 -18 7 -9 10 -8 11 6 5 10 -3 15 -9 12 -12z m1729 3 c15 -12 22 -12 27
-3 5 7 11 9 16 5 4 -5 3 -11 -3 -15 -6 -4 -13 -14 -16 -23 -4 -9 -20 -19 -36
-22 -16 -3 -37 -13 -45 -22 -11 -10 -25 -13 -42 -9 -28 7 -33 19 -9 28 8 3 12
11 9 17 -4 6 2 13 14 16 12 3 21 11 21 18 0 25 37 31 64 10z m-1820 -24 c-7
-8 -35 9 -29 19 4 6 11 5 20 -3 7 -6 11 -14 9 -16z m2018 -52 c-4 -50 -9 -59
-21 -40 -7 11 -10 9 -15 -7 -4 -11 -16 -22 -28 -25 -15 -4 -19 -11 -15 -28 3
-12 0 -28 -9 -36 -12 -12 -19 -12 -43 -2 -46 21 -53 42 -25 73 14 14 32 26 40
26 8 0 17 7 20 15 4 8 11 15 18 15 6 0 22 13 36 29 33 39 46 33 42 -20z m1888
47 c0 -3 -4 -8 -10 -11 -5 -3 -10 -1 -10 4 0 6 5 11 10 11 6 0 10 -2 10 -4z
m50 -86 c0 -5 -4 -10 -10 -10 -5 0 -10 5 -10 10 0 6 5 10 10 10 6 0 10 -4 10
-10z m80 -10 c0 -5 -2 -10 -4 -10 -3 0 -8 5 -11 10 -3 6 -1 10 4 10 6 0 11 -4
11 -10z m-2006 -46 c17 -16 21 -34 8 -34 -17 0 -46 -73 -43 -112 2 -29 -2 -43
-16 -53 -22 -17 -33 -19 -33 -5 0 6 7 10 16 10 14 0 16 9 11 63 -5 46 -3 67 8
81 8 11 15 30 15 43 0 27 12 29 34 7z m2014 -6 c-2 -5 -8 -9 -13 -9 -5 0 -11
4 -13 9 -1 5 4 9 13 9 9 0 14 -4 13 -9z m-1971 -100 c-3 -8 -6 -5 -6 6 -1 11
2 17 5 13 3 -3 4 -12 1 -19z m-127 2 c0 -5 -4 -10 -10 -10 -5 0 -10 -18 -10
-40 0 -22 -4 -40 -8 -40 -5 0 -7 13 -4 29 2 16 -1 32 -8 36 -8 5 -6 11 7 21
22 16 33 18 33 4z m209 -46 c7 -7 -3 -11 -41 -18 -34 -6 -38 -5 -38 14 0 19 4
20 38 14 20 -4 39 -8 41 -10z m-2309 2 c0 -11 -19 -15 -25 -6 -3 5 1 10 9 10
9 0 16 -2 16 -4z m4280 -16 c-19 -13 -30 -13 -30 0 0 6 10 10 23 10 18 0 19
-2 7 -10z m-1933 -22 c-3 -8 -6 -5 -6 6 -1 11 2 17 5 13 3 -3 4 -12 1 -19z
m2253 12 c0 -12 -8 -12 -35 0 -18 8 -17 9 8 9 15 1 27 -3 27 -9z m-570 -32 c0
-23 -11 -23 -33 2 -16 19 -16 20 8 18 17 -2 25 -8 25 -20z m-1233 -25 c-3 -10
-5 -4 -5 12 0 17 2 24 5 18 2 -7 2 -21 0 -30z m1540 21 c-3 -3 -12 -4 -19 -1
-8 3 -5 6 6 6 11 1 17 -2 13 -5z m243 -4 c13 -8 13 -10 -2 -10 -9 0 -20 5 -23
10 -8 13 5 13 25 0z m-210 -15 c0 -8 -6 -15 -12 -16 -7 0 3 -5 22 -11 19 -6
30 -12 24 -15 -16 -5 -64 15 -64 27 0 5 5 10 11 10 5 0 7 5 4 10 -3 6 -1 10 4
10 6 0 11 -7 11 -15z m-4357 -32 c-7 -2 -19 -2 -25 0 -7 3 -2 5 12 5 14 0 19
-2 13 -5z m2823 -38 c-3 -13 -2 -27 4 -30 13 -8 13 -25 0 -25 -5 0 -10 7 -10
16 0 10 -6 14 -15 10 -8 -3 -15 -1 -15 3 0 5 7 12 16 15 10 4 14 14 11 26 -3
12 -1 18 5 14 5 -3 7 -17 4 -29z m1771 29 c-3 -3 -12 -4 -19 -1 -8 3 -5 6 6 6
11 1 17 -2 13 -5z m-4517 -23 c13 -25 13 -31 -2 -31 -6 0 -8 3 -5 7 4 3 0 15
-10 25 -9 10 -11 18 -5 18 6 0 16 -9 22 -19z m2320 10 c0 -23 -13 -71 -20 -71
-4 0 -5 11 -2 25 2 14 -1 32 -8 40 -10 13 -9 15 9 15 11 0 21 -4 21 -9z m2295
-1 c8 -13 -5 -13 -25 0 -13 8 -13 10 2 10 9 0 20 -4 23 -10z m-298 -16 c-3 -3
-12 -4 -19 -1 -8 3 -5 6 6 6 11 1 17 -2 13 -5z m200 -15 c-14 -8 -22 -8 -30 0
-8 8 -3 11 19 11 25 -1 27 -2 11 -11z m-2777 -14 c0 -9 -6 -12 -15 -9 -8 4
-12 10 -9 15 8 14 24 10 24 -6z m2880 -7 c0 -6 -6 -5 -15 2 -8 7 -15 14 -15
16 0 2 7 1 15 -2 8 -4 15 -11 15 -16z m-217 -15 c-7 -2 -19 -2 -25 0 -7 3 -2
5 12 5 14 0 19 -2 13 -5z m-2677 -39 c-14 -14 -18 -14 -31 0 -20 20 -19 32 1
15 15 -12 18 -11 28 4 6 9 12 13 14 7 2 -5 -4 -17 -12 -26z m-106 2 c0 -2 -9
-2 -20 1 -11 3 -20 9 -20 15 0 5 9 4 20 -2 11 -6 20 -12 20 -14z m200 -2 c0
-18 23 -44 39 -44 14 0 14 -10 1 -30 -8 -12 -11 -11 -16 8 -4 15 -12 21 -23
18 -32 -10 -91 -10 -93 -1 -2 5 19 8 47 6 l50 -3 -23 25 c-17 18 -20 26 -10
30 23 9 28 8 28 -9z m2600 -5 c0 -6 -4 -7 -10 -4 -5 3 -10 11 -10 16 0 6 5 7
10 4 6 -3 10 -11 10 -16z m-1750 -5 c0 -8 -5 -12 -10 -9 -6 4 -8 11 -5 16 9
14 15 11 15 -7z m1837 10 c-3 -3 -12 -4 -19 -1 -8 3 -5 6 6 6 11 1 17 -2 13
-5z m63 -4 c0 -5 9 -10 21 -10 12 0 19 -5 16 -12 -5 -14 -35 -12 -54 4 -7 6
-10 14 -7 19 7 12 24 11 24 -1z m-4520 -50 c0 -5 -4 -10 -10 -10 -5 0 -10 5
-10 10 0 6 5 10 10 10 6 0 10 -4 10 -10z m950 6 c0 -3 -4 -8 -10 -11 -5 -3
-10 -1 -10 4 0 6 5 11 10 11 6 0 10 -2 10 -4z m1429 -58 c1 -12 -6 -18 -19
-18 -11 0 -18 5 -16 13 3 6 8 26 12 42 l7 30 7 -25 c5 -14 8 -33 9 -42z m-924
3 c-3 -6 9 -12 27 -14 l33 -4 -31 -1 c-36 -2 -59 19 -49 45 6 17 7 17 16 0 6
-9 8 -21 4 -26z m407 21 c-7 -2 -12 -12 -12 -23 0 -10 -7 -19 -15 -19 -8 0
-15 9 -15 20 0 11 7 20 15 20 8 0 15 5 15 11 0 5 5 7 12 3 9 -6 9 -9 0 -12z
m2628 8 c0 -6 -13 -9 -29 -8 -16 1 -27 6 -25 10 7 12 54 10 54 -2z m-2930 -20
c0 -5 -4 -10 -10 -10 -5 0 -10 5 -10 10 0 6 5 10 10 10 6 0 10 -4 10 -10z
m-1693 -36 c-3 -3 -12 -4 -19 -1 -8 3 -5 6 6 6 11 1 17 -2 13 -5z m1663 -24
c0 -5 -7 -7 -15 -4 -8 4 -15 8 -15 10 0 2 7 4 15 4 8 0 15 -4 15 -10z m-1523
-36 c-3 -3 -12 -4 -19 -1 -8 3 -5 6 6 6 11 1 17 -2 13 -5z m1503 -34 c0 -5 -7
-10 -16 -10 -8 0 -12 5 -9 10 3 6 10 10 16 10 5 0 9 -4 9 -10z m-170 -10 c0
-5 -2 -10 -4 -10 -3 0 -8 5 -11 10 -3 6 -1 10 4 10 6 0 11 -4 11 -10z m-210
-20 c0 -5 -2 -10 -4 -10 -3 0 -8 5 -11 10 -3 6 -1 10 4 10 6 0 11 -4 11 -10z
m284 -35 c27 -8 12 -19 -17 -11 -14 3 -27 13 -31 21 -4 11 -1 13 12 6 9 -5 26
-12 36 -16z m-1572 -2 c-6 -2 -10 -9 -7 -14 4 -5 -1 -6 -10 -2 -13 5 -14 7 -3
14 7 5 18 8 23 8 6 0 4 -3 -3 -6z m1272 -53 c-6 -5 -24 21 -24 34 0 6 6 1 14
-10 8 -10 12 -21 10 -24z m496 26 c0 -9 -7 -12 -20 -9 -31 8 -34 23 -6 23 16
0 26 -6 26 -14z m-1696 -11 c-21 -16 -54 -20 -54 -6 0 10 22 18 54 20 20 1 20
1 0 -14z m1637 -33 c-7 -2 -18 1 -23 6 -8 8 -4 9 13 5 13 -4 18 -8 10 -11z
m-71 -12 c22 -7 21 -8 -12 -9 -21 -1 -38 4 -38 9 0 11 14 11 50 0z m80 -34 c0
-2 -7 -6 -15 -10 -8 -3 -15 -1 -15 4 0 6 7 10 15 10 8 0 15 -2 15 -4z m-1647
-43 c-7 -2 -21 -2 -30 0 -10 3 -4 5 12 5 17 0 24 -2 18 -5z m1403 -51 c-4 -3
-14 2 -24 12 -16 18 -16 18 6 6 13 -6 21 -14 18 -18z m-1376 4 c0 -2 -13 -6
-29 -8 -17 -2 -28 -1 -25 4 5 8 54 12 54 4z m1193 -16 c3 -11 1 -18 -4 -14 -5
3 -9 12 -9 20 0 20 7 17 13 -6z m241 11 c6 -10 -43 -25 -52 -16 -3 3 2 5 11 5
10 0 17 5 17 10 0 12 17 13 24 1z m-258 -42 c19 -22 19 -22 -3 -10 -24 12 -39
31 -25 31 5 0 17 -10 28 -21z m314 11 c0 -5 -6 -10 -14 -10 -8 0 -18 5 -21 10
-3 6 3 10 14 10 12 0 21 -4 21 -10z m35 -10 c3 -5 1 -10 -4 -10 -6 0 -11 5
-11 10 0 6 2 10 4 10 3 0 8 -4 11 -10z m-1534 -24 c-12 -15 -56 -28 -98 -30
-38 -2 -9 15 48 29 30 7 56 13 58 14 2 1 -2 -5 -8 -13z m69 4 c-8 -5 -19 -10
-25 -10 -5 0 -3 5 5 10 8 5 20 10 25 10 6 0 3 -5 -5 -10z m1370 -6 c0 -2 -12
-4 -26 -4 -14 0 -23 4 -20 9 6 8 46 4 46 -5z m-225 -33 c-6 -5 -25 10 -25 20
0 5 6 4 14 -3 8 -7 12 -15 11 -17z m-1156 3 c2 -2 -2 -4 -11 -4 -18 0 -77 -28
-100 -47 -11 -10 -18 -11 -23 -4 -3 6 5 15 18 20 14 6 28 15 32 20 3 6 16 11
28 11 18 0 19 2 7 10 -11 8 -7 9 15 4 17 -4 32 -8 34 -10z m1395 7 c3 -5 -1
-11 -9 -14 -9 -4 -12 -1 -8 9 6 16 10 17 17 5z m74 -31 c6 0 12 -4 12 -10 0
-5 -9 -10 -20 -10 -11 0 -20 5 -20 11 0 6 -7 9 -15 5 -8 -3 -15 0 -15 5 0 7 9
9 23 5 12 -3 28 -6 35 -6z m-89 -49 c-14 -4 -90 30 -84 39 2 4 25 -2 50 -14
25 -12 40 -23 34 -25z m-1034 9 c-3 -5 -14 -10 -23 -9 -14 0 -13 2 3 9 27 11
27 11 20 0z m1285 0 c-19 -13 -30 -13 -30 0 0 6 10 10 23 10 18 0 19 -2 7 -10z
m-1785 -20 c-27 -12 -43 -12 -25 0 8 5 22 9 30 9 10 0 8 -3 -5 -9z m1600 0
c13 -5 14 -9 5 -9 -8 0 -24 4 -35 9 -13 5 -14 9 -5 9 8 0 24 -4 35 -9z m230
-10 c-3 -5 -10 -10 -16 -10 -5 0 -9 5 -9 10 0 6 7 10 16 10 8 0 12 -4 9 -10z
m-290 -11 c11 -17 -1 -21 -15 -4 -8 9 -8 15 -2 15 6 0 14 -5 17 -11z m-1525
-3 c0 -2 -7 -7 -16 -10 -8 -3 -12 -2 -9 4 6 10 25 14 25 6z m1710 -6 c0 -5 -8
-10 -17 -10 -15 0 -16 2 -3 10 19 12 20 12 20 0z m130 -20 c0 -5 -2 -10 -4
-10 -3 0 -8 5 -11 10 -3 6 -1 10 4 10 6 0 11 -4 11 -10z m-494 -32 c-9 -5 -23
-5 -32 0 -12 6 -7 9 16 9 23 0 28 -3 16 -9z m58 -3 c3 -8 12 -15 19 -15 8 0
21 -7 28 -16 12 -15 11 -16 -11 -9 -14 4 -29 11 -34 16 -6 5 -18 9 -28 9 -16
0 -17 2 -6 15 17 18 24 19 32 0z m-1089 -5 c-3 -5 -14 -10 -23 -9 -14 0 -13 2
3 9 27 11 27 11 20 0z m52 4 c-3 -3 -12 -4 -19 -1 -8 3 -5 6 6 6 11 1 17 -2
13 -5z m-407 -54 c-43 -51 -58 -65 -65 -58 -4 4 94 108 102 108 3 0 -14 -22
-37 -50z m1880 40 c0 -5 -4 -10 -10 -10 -5 0 -10 5 -10 10 0 6 5 10 10 10 6 0
10 -4 10 -10z m100 -9 c0 -4 -3 -11 -7 -14 -8 -9 -34 13 -28 24 6 9 35 1 35
-10z m-431 -52 c-7 -4 -18 -1 -26 6 -20 21 -16 26 12 13 17 -8 22 -14 14 -19z
m418 -6 c10 -4 14 -2 10 4 -4 6 4 8 20 5 26 -5 26 -5 5 -13 -12 -5 -22 -15
-22 -23 0 -8 -7 -13 -15 -12 -18 3 -32 16 -17 16 7 0 12 4 12 8 0 4 -18 8 -40
7 -22 0 -40 -3 -40 -7 0 -5 5 -8 11 -8 5 0 7 -5 3 -12 -6 -9 -9 -9 -12 0 -2 8
-8 10 -15 4 -20 -16 -57 -24 -57 -13 0 6 9 11 20 11 22 0 27 16 8 23 -7 2 -3
2 10 0 12 -2 22 1 22 7 0 7 14 9 38 5 29 -5 34 -4 22 5 -13 10 -12 11 3 6 9
-3 24 -9 34 -13z m-1817 3 c0 -3 -4 -8 -10 -11 -5 -3 -10 -1 -10 4 0 6 5 11
10 11 6 0 10 -2 10 -4z m27 -53 c-9 -9 -19 -14 -22 -11 -3 3 2 13 11 22 9 9
19 14 22 11 3 -3 -2 -13 -11 -22z m1593 7 c0 -5 -24 -10 -52 -9 -39 0 -48 3
-33 9 28 12 85 12 85 0z m291 -21 c-9 -22 -10 -22 -10 -3 -1 11 2 24 6 27 12
12 14 0 4 -24z m-1981 18 c0 -2 -16 -18 -35 -37 -19 -19 -35 -28 -35 -21 0 13
48 61 61 61 5 0 9 -1 9 -3z m87 -33 c-3 -3 -12 -4 -19 -1 -8 3 -5 6 6 6 11 1
17 -2 13 -5z m743 -24 c0 -5 -4 -10 -10 -10 -5 0 -10 5 -10 10 0 6 5 10 10 10
6 0 10 -4 10 -10z m295 -10 c4 -7 -3 -8 -21 -4 -15 4 -25 3 -21 -2 6 -11 -34
-14 -83 -7 -25 4 -30 7 -18 12 30 11 136 12 143 1z m-388 -13 c9 -10 -48 -7
-72 3 -15 7 -9 9 22 6 24 -1 46 -5 50 -9z"/>
<path d="M2099 1542 c-14 -16 -12 -18 23 -18 42 -2 45 1 24 22 -19 18 -28 18
-47 -4z"/>
<path d="M2225 1400 c3 -5 8 -10 11 -10 2 0 4 5 4 10 0 6 -5 10 -11 10 -5 0
-7 -4 -4 -10z"/>
<path d="M2848 4243 c7 -3 16 -2 19 1 4 3 -2 6 -13 5 -11 0 -14 -3 -6 -6z"/>
<path d="M3128 4243 c7 -3 16 -2 19 1 4 3 -2 6 -13 5 -11 0 -14 -3 -6 -6z"/>
<path d="M1680 4231 c0 -5 7 -12 16 -15 14 -5 15 -4 4 9 -14 17 -20 19 -20 6z"/>
<path d="M1739 4220 l-24 -21 25 3 c15 2 24 9 22 17 -2 10 5 12 25 7 21 -5 24
-4 13 4 -22 14 -35 12 -61 -10z"/>
<path d="M3238 4233 c7 -3 16 -2 19 1 4 3 -2 6 -13 5 -11 0 -14 -3 -6 -6z"/>
<path d="M2780 4220 c-18 -6 -7 -8 39 -9 35 -1 61 2 57 6 -10 10 -66 12 -96 3z"/>
<path d="M1640 4209 c0 -5 5 -7 10 -4 6 3 10 8 10 11 0 2 -4 4 -10 4 -5 0 -10
-5 -10 -11z"/>
<path d="M1813 4203 c-13 -2 -23 -9 -23 -14 0 -6 -10 -8 -22 -4 -20 5 -20 4
-6 -5 13 -8 25 -7 47 4 15 8 32 12 36 8 5 -4 5 -1 1 6 -4 6 -8 11 -9 11 -1 -1
-12 -4 -24 -6z"/>
<path d="M1685 4190 c-4 -6 -11 -7 -17 -4 -7 4 -8 2 -4 -5 6 -9 12 -9 24 1 10
7 19 14 21 15 2 2 -1 3 -7 3 -6 0 -14 -5 -17 -10z"/>
<path d="M2850 4190 c-9 -6 -7 -11 10 -20 12 -6 24 -9 28 -6 3 3 -1 6 -9 6
-11 0 -12 2 -1 9 11 7 11 9 -1 14 -7 3 -20 2 -27 -3z"/>
<path d="M1925 4180 l-40 -6 45 -5 c25 -3 51 -3 59 1 21 11 -16 17 -64 10z"/>
<path d="M2799 4167 c7 -7 14 -8 21 -1 6 6 2 10 -12 11 -16 2 -18 -1 -9 -10z"/>
<path d="M3850 4169 c0 -5 5 -7 10 -4 6 3 10 8 10 11 0 2 -4 4 -10 4 -5 0 -10
-5 -10 -11z"/>
<path d="M3965 4169 c-4 -6 -5 -13 -2 -16 7 -7 27 6 27 18 0 12 -17 12 -25 -2z"/>
<path d="M2060 4152 c0 -4 4 -13 9 -20 7 -11 9 -11 14 1 3 9 -1 18 -9 21 -8 3
-14 2 -14 -2z"/>
<path d="M2008 4143 c6 -2 18 -2 25 0 6 3 1 5 -13 5 -14 0 -19 -2 -12 -5z"/>
<path d="M3135 4139 c-4 -6 -5 -12 -2 -15 2 -3 7 2 10 11 7 17 1 20 -8 4z"/>
<path d="M3315 4130 c3 -5 11 -10 16 -10 6 0 7 5 4 10 -3 6 -11 10 -16 10 -6
0 -7 -4 -4 -10z"/>
<path d="M2270 4117 c0 -9 60 -26 64 -18 3 4 0 8 -7 8 -7 0 -22 3 -34 7 -13 4
-23 5 -23 3z"/>
<path d="M2362 4100 c15 -23 31 -26 47 -6 9 11 7 15 -11 20 -42 11 -50 8 -36
-14z"/>
<path d="M3134 4098 c-3 -4 -12 -4 -22 -1 -9 3 -14 3 -11 -1 11 -11 48 -15 54
-5 4 5 16 9 28 8 12 0 16 -3 9 -6 -13 -5 -7 -23 9 -23 6 0 7 5 3 12 -5 8 -2 9
9 5 43 -17 49 -16 15 2 -35 20 -85 25 -94 9z"/>
<path d="M2068 4083 c7 -3 16 -2 19 1 4 3 -2 6 -13 5 -11 0 -14 -3 -6 -6z"/>
<path d="M2782 4070 c-9 -14 -8 -19 3 -24 8 -3 15 -16 15 -28 0 -19 2 -20 11
-8 7 11 12 12 15 3 3 -7 11 -10 17 -7 7 2 26 6 44 8 34 3 40 -10 13 -31 -13
-10 -12 -12 5 -18 39 -13 43 -13 55 -2 10 9 11 9 6 0 -4 -8 -2 -13 6 -13 7 0
24 -3 37 -7 17 -4 22 -3 17 6 -4 6 -10 9 -14 7 -4 -2 -13 2 -20 10 -11 12 -9
13 7 11 11 -2 24 -6 27 -10 11 -11 26 -8 19 3 -4 6 10 10 35 10 25 0 39 4 35
10 -4 6 6 11 22 11 29 2 -24 12 -122 24 -131 16 -175 26 -175 37 0 6 -7 5 -15
-2 -9 -7 -18 -10 -22 -6 -3 3 -1 6 5 6 16 0 15 17 -1 23 -7 3 -19 -3 -25 -13z
m168 -84 c0 -2 -7 -7 -16 -10 -8 -3 -12 -2 -9 4 6 10 25 14 25 6z"/>
<path d="M2885 4071 c-9 -16 12 -22 37 -11 21 10 21 10 -5 5 -19 -4 -26 -2
-22 5 3 5 4 10 1 10 -3 0 -7 -4 -11 -9z"/>
<path d="M2960 4071 c0 -5 7 -12 16 -15 14 -5 15 -4 4 9 -14 17 -20 19 -20 6z"/>
<path d="M3036 4071 c-11 -17 20 -26 69 -20 50 6 50 6 10 8 -32 2 -36 4 -20
11 16 7 13 9 -17 9 -20 1 -39 -3 -42 -8z"/>
<path d="M3306 4068 c3 -4 17 -5 31 -2 15 4 24 3 20 -2 -3 -6 3 -10 14 -10 26
0 24 14 -3 21 -31 7 -68 3 -62 -7z"/>
<path d="M3168 4053 c6 -2 18 -2 25 0 6 3 1 5 -13 5 -14 0 -19 -2 -12 -5z"/>
<path d="M3230 4050 c-24 -8 -23 -8 8 -9 20 -1 31 3 27 9 -3 6 -7 10 -8 9 -1
-1 -13 -5 -27 -9z"/>
<path d="M4288 4053 c7 -3 16 -2 19 1 4 3 -2 6 -13 5 -11 0 -14 -3 -6 -6z"/>
<path d="M2619 4037 c5 -5 19 -7 32 -5 20 3 19 5 -9 9 -20 3 -29 2 -23 -4z"/>
<path d="M3300 4040 c14 -4 34 -8 45 -8 16 0 15 2 -5 8 -14 4 -34 8 -45 8 -16
0 -15 -2 5 -8z"/>
<path d="M3130 4030 c-23 -7 -23 -8 -3 -9 12 -1 25 4 28 9 3 6 5 10 3 9 -2 -1
-14 -5 -28 -9z"/>
<path d="M3208 4023 c7 -3 16 -2 19 1 4 3 -2 6 -13 5 -11 0 -14 -3 -6 -6z"/>
<path d="M3498 4023 c7 -3 16 -2 19 1 4 3 -2 6 -13 5 -11 0 -14 -3 -6 -6z"/>
<path d="M2639 4006 c18 -10 20 -15 10 -19 -9 -3 -6 -6 8 -6 26 -1 38 -17 22
-27 -8 -5 -9 -3 -4 6 6 9 4 11 -5 5 -18 -11 27 -44 51 -38 9 3 26 -4 37 -15
20 -20 35 -18 40 6 1 6 -7 12 -17 12 -11 0 -22 4 -26 10 -3 5 -13 7 -23 4 -9
-3 -6 2 8 11 14 8 18 14 10 13 -22 -3 -61 12 -89 33 -13 11 -29 19 -35 19 -6
-1 0 -7 13 -14z"/>
<path d="M3177 4009 c7 -7 15 -10 18 -7 3 3 -2 9 -12 12 -14 6 -15 5 -6 -5z"/>
<path d="M3358 4013 c6 -2 18 -2 25 0 6 3 1 5 -13 5 -14 0 -19 -2 -12 -5z"/>
<path d="M3438 4013 c7 -3 16 -2 19 1 4 3 -2 6 -13 5 -11 0 -14 -3 -6 -6z"/>
<path d="M4283 4007 c24 -7 35 -16 30 -22 -4 -5 1 -3 11 5 13 10 17 10 12 3
-5 -9 1 -13 19 -13 15 0 24 4 20 10 -4 6 -10 8 -15 5 -4 -3 -10 -1 -12 4 -1 5
-25 12 -53 15 l-50 6 38 -13z"/>
<path d="M1498 3991 c-16 -9 -28 -24 -28 -33 0 -10 -4 -18 -8 -18 -4 0 -8 -9
-9 -20 -2 -21 14 -33 59 -44 26 -6 26 -5 13 22 -8 15 -16 41 -20 57 -6 27 -5
28 6 10 14 -23 56 -66 45 -47 -4 7 -2 12 5 12 7 0 5 8 -7 21 l-19 21 35 -19
35 -20 1 24 c3 38 -66 60 -108 34z m98 -23 c3 -4 -1 -5 -10 -4 -8 1 -18 5 -22
8 -3 4 1 5 10 4 8 -1 18 -5 22 -8z"/>
<path d="M2608 3993 c7 -3 16 -2 19 1 4 3 -2 6 -13 5 -11 0 -14 -3 -6 -6z"/>
<path d="M2187 3979 c7 -7 15 -10 18 -7 3 3 -2 9 -12 12 -14 6 -15 5 -6 -5z"/>
<path d="M3078 3963 c7 -3 16 -2 19 1 4 3 -2 6 -13 5 -11 0 -14 -3 -6 -6z"/>
<path d="M4318 3963 c7 -3 16 -2 19 1 4 3 -2 6 -13 5 -11 0 -14 -3 -6 -6z"/>
<path d="M2164 3941 c11 -11 27 -21 37 -21 10 0 21 -5 24 -10 4 -6 16 -8 27
-4 13 4 18 2 14 -4 -3 -5 1 -13 10 -16 25 -10 26 -7 7 13 -18 19 -68 44 -113
57 -25 7 -25 7 -6 -15z"/>
<path d="M2310 3946 c0 -2 7 -7 16 -10 8 -3 12 -2 9 4 -6 10 -25 14 -25 6z"/>
<path d="M2635 3940 c3 -5 11 -10 16 -10 6 0 7 5 4 10 -3 6 -11 10 -16 10 -6
0 -7 -4 -4 -10z"/>
<path d="M4373 3930 c14 -11 31 -20 39 -20 10 0 9 3 -2 10 -8 5 -10 10 -5 11
13 1 -26 17 -44 18 -7 1 -2 -8 12 -19z"/>
<path d="M1690 3915 c13 -14 26 -25 28 -25 3 0 -5 11 -18 25 -13 14 -26 25
-28 25 -3 0 5 -11 18 -25z"/>
<path d="M2080 3932 c0 -5 15 -16 34 -25 28 -13 37 -13 45 -3 11 13 -3 36 -23
36 -5 0 -1 -7 10 -15 10 -8 14 -15 8 -15 -5 0 -19 7 -30 15 -21 16 -44 20 -44
7z"/>
<path d="M2520 3913 c0 -10 6 -13 16 -9 8 3 12 2 9 -3 -3 -6 8 -9 24 -9 17 1
28 5 25 10 -3 5 -12 7 -20 4 -8 -3 -14 -2 -14 3 0 5 -9 11 -20 14 -13 3 -20 0
-20 -10z"/>
<path d="M3058 3903 c7 -3 16 -2 19 1 4 3 -2 6 -13 5 -11 0 -14 -3 -6 -6z"/>
<path d="M2460 3884 c0 -7 71 -36 76 -31 2 2 -14 11 -36 20 -22 8 -40 13 -40
11z"/>
<path d="M2586 3871 c15 -14 54 -23 54 -13 0 5 -10 12 -22 16 -33 8 -44 8 -32
-3z"/>
<path d="M1000 3860 c0 -5 5 -10 11 -10 5 0 7 5 4 10 -3 6 -8 10 -11 10 -2 0
-4 -4 -4 -10z"/>
<path d="M1477 3850 c3 -11 9 -20 14 -20 6 0 14 -10 19 -22 7 -18 9 -19 9 -5
1 31 1 32 -8 32 -5 0 -13 3 -17 8 -4 4 -2 7 5 7 7 0 9 5 6 10 -12 19 -33 11
-28 -10z"/>
<path d="M2560 3850 c8 -5 20 -10 25 -10 6 0 3 5 -5 10 -8 5 -19 10 -25 10 -5
0 -3 -5 5 -10z"/>
<path d="M2068 3828 c12 -6 22 -15 22 -20 0 -4 6 -8 13 -8 6 1 1 10 -12 20
-13 11 -28 20 -35 19 -6 0 -1 -5 12 -11z"/>
<path d="M4482 3821 c-15 -9 -4 -51 13 -51 8 0 22 -3 32 -6 16 -6 16 -5 -2 9
-11 8 -24 13 -29 10 -5 -4 -6 -1 -3 4 4 6 19 8 34 5 31 -5 30 -3 -8 20 -14 9
-31 13 -37 9z"/>
<path d="M4510 3826 c0 -9 30 -14 35 -6 4 6 -3 10 -14 10 -12 0 -21 -2 -21 -4z"/>
<path d="M1477 3754 c3 -7 9 -14 14 -14 14 0 10 17 -5 23 -10 4 -13 1 -9 -9z"/>
<path d="M4395 3760 c3 -5 8 -10 11 -10 2 0 4 5 4 10 0 6 -5 10 -11 10 -5 0
-7 -4 -4 -10z"/>
<path d="M1816 3745 c4 -8 10 -15 16 -15 5 0 6 -6 2 -12 -5 -10 -4 -10 5 -2
14 13 4 44 -15 44 -8 0 -11 -6 -8 -15z"/>
<path d="M4643 3735 c0 -9 10 -15 24 -15 14 0 23 6 23 15 0 9 -9 15 -23 15
-14 0 -24 -6 -24 -15z"/>
<path d="M4700 3725 c0 -8 9 -15 20 -15 11 0 20 2 20 5 0 2 -9 9 -20 15 -16 9
-20 8 -20 -5z"/>
<path d="M4535 3690 c-3 -6 1 -7 9 -4 18 7 21 14 7 14 -6 0 -13 -4 -16 -10z"/>
<path d="M4775 3690 c-3 -5 -1 -10 4 -10 6 0 11 5 11 10 0 6 -2 10 -4 10 -3 0
-8 -4 -11 -10z"/>
<path d="M1241 3474 c-1 -23 25 -51 37 -40 4 4 0 13 -9 19 -9 7 -18 19 -22 27
-4 11 -6 9 -6 -6z"/>
<path d="M1110 3394 c0 -8 5 -12 10 -9 6 3 10 10 10 16 0 5 -4 9 -10 9 -5 0
-10 -7 -10 -16z"/>
<path d="M818 3392 c-10 -2 -18 -8 -18 -13 0 -11 11 -11 30 1 18 11 11 18 -12
12z"/>
<path d="M1151 3344 c0 -11 3 -14 6 -6 3 7 2 16 -1 19 -3 4 -6 -2 -5 -13z"/>
<path d="M1013 2885 c-9 -10 -10 -16 -2 -21 6 -3 15 0 20 7 18 29 4 40 -18 14z"/>
<path d="M6055 2821 c-3 -6 -4 -15 0 -21 3 -5 -26 -41 -65 -80 -39 -39 -68
-76 -64 -81 11 -18 -7 -300 -18 -292 -7 4 -9 -3 -5 -19 4 -14 -1 -52 -10 -84
-8 -32 -16 -68 -16 -79 1 -11 -4 -35 -9 -52 -7 -26 -15 -33 -34 -33 -13 0 -24
-6 -24 -13 0 -8 -11 -24 -25 -37 -14 -13 -25 -32 -25 -42 0 -11 -4 -17 -9 -14
-5 3 -12 -6 -16 -21 -3 -16 -10 -30 -14 -33 -4 -3 -11 -23 -17 -45 -6 -27 -14
-39 -25 -38 -10 2 -27 -21 -49 -65 -34 -68 -61 -102 -80 -102 -5 0 -10 -4 -10
-10 0 -5 7 -10 16 -10 10 0 14 -6 11 -14 -3 -8 5 -22 19 -32 30 -23 32 -41 2
-20 -12 9 -26 16 -29 16 -9 0 26 -43 59 -73 12 -11 22 -25 22 -29 0 -5 11 -24
25 -42 14 -18 25 -36 25 -39 0 -12 38 -45 57 -50 17 -5 17 -5 0 -6 -16 -1 -15
-6 11 -38 31 -41 62 -96 62 -112 0 -6 -8 -7 -17 -4 -12 5 -8 -3 10 -22 15 -17
27 -35 27 -42 0 -7 7 -13 16 -13 8 0 12 -5 9 -10 -3 -6 -1 -10 5 -10 7 0 9 -7
6 -16 -5 -12 -2 -15 10 -10 10 4 14 1 11 -6 -4 -15 31 -88 43 -88 4 0 10 -9
13 -20 3 -11 0 -20 -6 -20 -6 0 4 -11 22 -25 39 -28 66 -56 67 -70 3 -30 21
-53 60 -82 24 -18 48 -33 53 -33 5 0 7 -9 4 -20 -3 -12 0 -20 7 -20 7 0 10 -8
7 -19 -3 -14 2 -21 19 -25 13 -4 24 -13 24 -21 0 -8 9 -15 20 -15 14 0 18 -5
13 -16 -3 -9 -1 -19 6 -23 6 -4 13 -26 15 -48 4 -47 12 -63 32 -63 8 0 14 -6
14 -14 0 -8 11 -23 25 -34 14 -11 25 -27 25 -37 0 -22 18 -55 30 -55 6 0 10
432 10 1189 0 1182 0 1190 -21 1238 -19 44 -22 47 -34 29 -15 -20 -105 -33
-105 -16 0 6 -5 10 -10 10 -6 0 -20 9 -32 20 -15 13 -36 20 -64 20 -23 0 -49
3 -57 6 -8 3 -18 1 -22 -5z"/>
<path d="M186 2695 c-11 -8 -17 -17 -14 -20 3 -3 16 3 29 14 27 23 14 28 -15
6z"/>
<path d="M131 2690 c0 -8 4 -22 9 -30 12 -18 12 -2 0 25 -6 13 -9 15 -9 5z"/>
<path d="M901 2634 c0 -11 3 -14 6 -6 3 7 2 16 -1 19 -3 4 -6 -2 -5 -13z"/>
<path d="M4288 2634 c-4 -5 -4 -21 -1 -36 5 -25 7 -26 21 -12 9 10 11 18 5 22
-5 4 -12 14 -15 22 -2 7 -7 10 -10 4z"/>
<path d="M4323 2563 c9 -2 23 -2 30 0 6 3 -1 5 -18 5 -16 0 -22 -2 -12 -5z"/>
<path d="M855 2550 c3 -5 10 -10 16 -10 5 0 9 5 9 10 0 6 -7 10 -16 10 -8 0
-12 -4 -9 -10z"/>
<path d="M758 2193 c7 -3 16 -2 19 1 4 3 -2 6 -13 5 -11 0 -14 -3 -6 -6z"/>
<path d="M4146 1945 c-16 -12 -17 -15 -4 -15 9 0 18 7 22 15 7 18 6 18 -18 0z"/>
<path d="M4250 1906 c0 -2 15 -6 34 -8 19 -2 32 0 30 4 -5 8 -64 12 -64 4z"/>
<path d="M4340 1890 c0 -5 4 -10 9 -10 6 0 13 5 16 10 3 6 -1 10 -9 10 -9 0
-16 -4 -16 -10z"/>
<path d="M582 1838 c3 -7 13 -15 22 -16 12 -3 17 1 14 10 -3 7 -13 15 -22 16
-12 3 -17 -1 -14 -10z"/>
<path d="M4168 1793 c7 -3 16 -2 19 1 4 3 -2 6 -13 5 -11 0 -14 -3 -6 -6z"/>
<path d="M300 1626 c30 -16 80 -29 80 -21 0 9 -67 35 -87 35 -14 -1 -12 -4 7
-14z"/>
<path d="M4275 1630 c-3 -6 -2 -10 3 -10 6 0 8 -9 5 -20 -4 -14 0 -20 10 -20
9 0 15 8 14 18 -1 24 -24 45 -32 32z"/>
<path d="M220 1566 c0 -2 7 -6 15 -10 8 -3 15 -1 15 4 0 6 -7 10 -15 10 -8 0
-15 -2 -15 -4z"/>
<path d="M230 1530 c0 -5 5 -10 11 -10 5 0 7 5 4 10 -3 6 -8 10 -11 10 -2 0
-4 -4 -4 -10z"/>
<path d="M5596 1477 c3 -10 9 -15 12 -12 3 3 0 11 -7 18 -10 9 -11 8 -5 -6z"/>
<path d="M270 1449 c0 -5 5 -7 10 -4 6 3 10 8 10 11 0 2 -4 4 -10 4 -5 0 -10
-5 -10 -11z"/>
<path d="M5620 1451 c0 -5 5 -13 10 -16 6 -3 10 -2 10 4 0 5 -4 13 -10 16 -5
3 -10 2 -10 -4z"/>
<path d="M113 1415 c21 -20 35 -40 32 -45 -4 -6 1 -10 9 -10 9 0 16 -4 16 -10
0 -5 6 -7 14 -4 21 8 9 30 -25 44 -16 7 -26 16 -23 21 3 5 -2 9 -10 9 -9 0
-16 4 -16 9 0 5 -8 12 -17 15 -10 3 -1 -10 20 -29z"/>
<path d="M295 1430 c3 -5 10 -10 16 -10 5 0 9 5 9 10 0 6 -7 10 -16 10 -8 0
-12 -4 -9 -10z"/>
<path d="M15 1394 c21 -15 49 -19 41 -5 -3 5 -18 11 -33 14 -26 5 -26 4 -8 -9z"/>
<path d="M70 1396 c0 -2 7 -6 15 -10 8 -3 15 -1 15 4 0 6 -7 10 -15 10 -8 0
-15 -2 -15 -4z"/>
<path d="M4418 1383 c7 -3 16 -2 19 1 4 3 -2 6 -13 5 -11 0 -14 -3 -6 -6z"/>
<path d="M110 1360 c0 -6 -15 -9 -35 -7 -20 3 -38 0 -41 -4 -3 -5 15 -9 39 -9
31 0 47 5 51 15 3 8 1 15 -4 15 -6 0 -10 -5 -10 -10z"/>
<path d="M5670 1346 c0 -2 7 -9 15 -16 13 -11 14 -10 9 4 -5 14 -24 23 -24 12z"/>
<path d="M190 1330 c0 -5 5 -10 11 -10 5 0 7 5 4 10 -3 6 -8 10 -11 10 -2 0
-4 -4 -4 -10z"/>
<path d="M4788 1313 c9 -3 10 -9 2 -18 -7 -9 -7 -15 2 -23 10 -8 13 -3 14 19
1 21 -3 29 -15 28 -11 0 -12 -2 -3 -6z"/>
<path d="M5671 1188 c-1 -22 11 -29 29 -17 13 7 12 9 -2 9 -9 0 -19 6 -21 13
-3 7 -6 6 -6 -5z"/>
<path d="M4875 1180 c-4 -6 3 -10 14 -10 25 0 27 6 6 13 -8 4 -17 2 -20 -3z"/>
<path d="M5779 1159 c12 -12 25 -18 28 -15 4 3 -2 13 -13 21 -29 22 -41 18
-15 -6z"/>
<path d="M5820 1131 c0 -6 4 -13 10 -16 6 -3 7 1 4 9 -7 18 -14 21 -14 7z"/>
<path d="M149 1075 c19 -8 36 -13 39 -10 9 8 -3 15 -39 20 l-34 6 34 -16z"/>
<path d="M30 1050 c8 -5 20 -10 25 -10 6 0 3 5 -5 10 -8 5 -19 10 -25 10 -5 0
-3 -5 5 -10z"/>
<path d="M24 981 c3 -5 15 -11 26 -14 17 -4 19 -3 9 9 -12 15 -44 20 -35 5z"/>
<path d="M5555 973 c4 -8 -1 -13 -12 -14 -14 0 -12 -3 6 -10 31 -12 35 -7 15
17 -8 10 -13 13 -9 7z"/>
<path d="M58 943 c7 -3 16 -2 19 1 4 3 -2 6 -13 5 -11 0 -14 -3 -6 -6z"/>
<path d="M5560 926 c0 -3 9 -10 20 -16 11 -6 20 -8 20 -6 0 3 -9 10 -20 16
-11 6 -20 8 -20 6z"/>
<path d="M5632 904 c9 -9 21 -15 27 -13 6 2 -2 10 -17 17 -25 11 -25 11 -10
-4z"/>
<path d="M3025 890 c-3 -5 -1 -10 4 -10 6 0 11 5 11 10 0 6 -2 10 -4 10 -3 0
-8 -4 -11 -10z"/>
<path d="M4123 856 c5 -16 34 -19 39 -4 4 8 -3 14 -19 14 -14 1 -22 -3 -20
-10z"/>
<path d="M4290 860 c0 -5 5 -10 10 -10 6 0 10 5 10 10 0 6 -4 10 -10 10 -5 0
-10 -4 -10 -10z"/>
<path d="M5690 858 c0 -9 7 -19 16 -22 15 -6 15 -4 3 11 -7 10 -15 20 -16 22
-2 2 -3 -3 -3 -11z"/>
<path d="M4188 853 c7 -3 16 -2 19 1 4 3 -2 6 -13 5 -11 0 -14 -3 -6 -6z"/>
<path d="M3040 821 c0 -10 9 -21 20 -24 18 -5 18 -4 3 19 -19 29 -23 30 -23 5z"/>
<path d="M1920 784 c0 -17 22 -14 28 4 2 7 -3 12 -12 12 -9 0 -16 -7 -16 -16z"/>
<path d="M5000 791 c0 -5 7 -12 16 -15 14 -5 15 -4 4 9 -14 17 -20 19 -20 6z"/>
<path d="M2008 783 c7 -3 16 -2 19 1 4 3 -2 6 -13 5 -11 0 -14 -3 -6 -6z"/>
<path d="M4123 755 c-6 -20 -7 -39 -1 -49 10 -19 -2 -22 -20 -4 -9 9 -12 4
-12 -24 0 -27 -8 -43 -32 -67 -17 -17 -36 -31 -40 -31 -5 0 -6 -4 -3 -10 3 -5
-3 -10 -14 -10 -32 0 -30 -50 2 -50 18 -1 14 -5 -17 -20 -21 -11 -44 -24 -52
-31 -11 -9 -14 -9 -14 1 0 6 9 14 20 17 14 4 20 14 20 32 l-1 26 -14 -25 c-7
-14 -17 -24 -22 -24 -15 3 -44 -23 -41 -36 2 -7 -8 -17 -22 -21 -14 -4 -18 -8
-10 -8 8 -1 1 -8 -15 -15 -17 -7 -42 -27 -55 -44 -26 -33 -45 -40 -53 -19 -5
14 -57 -44 -74 -84 -8 -19 -8 -30 0 -38 7 -7 5 -12 -7 -17 -11 -4 -21 -1 -27
7 -4 8 -13 15 -19 15 -24 3 -24 6 0 13 18 5 26 15 28 35 2 18 0 26 -7 21 -6
-3 -11 -16 -11 -27 0 -12 -3 -18 -7 -15 -10 10 -33 -13 -33 -33 0 -10 -7 -23
-15 -30 -9 -7 -14 -19 -11 -26 3 -8 -4 -18 -15 -24 -15 -9 -21 -7 -25 5 -8 20
-24 9 -24 -16 0 -24 -29 -37 -40 -19 -11 17 -41 5 -47 -20 -4 -15 -14 -20 -38
-20 -38 0 -68 -26 -41 -36 9 -3 28 -3 42 0 17 5 23 3 19 -4 -3 -5 -18 -10 -33
-11 -15 -1 -38 -5 -52 -9 -14 -4 81 -8 218 -8 229 -1 294 5 388 33 12 4 25 2
28 -4 4 -7 -1 -11 -13 -11 -11 0 -23 -5 -26 -10 -4 -6 30 -10 94 -10 88 0 101
2 101 17 0 15 1 15 13 -2 8 -10 19 -15 25 -11 9 5 7 14 -5 31 -13 18 -28 24
-55 25 -20 0 -40 -4 -43 -10 -3 -5 -15 -10 -27 -10 -16 0 -18 3 -9 14 9 11 5
15 -21 21 -18 4 -45 7 -60 5 -26 -1 -33 7 -29 32 0 5 -3 8 -9 8 -5 0 -10 -10
-11 -22 0 -13 -3 -18 -5 -12 -3 6 -15 9 -28 7 -13 -3 -27 0 -30 6 -5 7 3 11
19 11 15 0 24 4 20 10 -3 6 -16 8 -28 6 -12 -1 -16 -1 -9 1 6 3 12 8 12 13 0
4 11 10 25 12 14 3 25 1 25 -3 0 -5 9 -9 19 -9 11 0 21 -5 23 -11 2 -7 18 -5
48 5 52 18 71 20 50 5 -12 -8 -12 -12 -2 -16 10 -4 9 -8 -5 -18 -20 -15 -18
-19 14 -29 18 -6 22 -4 17 8 -4 11 0 16 14 16 12 0 24 -4 27 -10 3 -5 16 -10
28 -10 14 0 30 -13 44 -34 18 -27 29 -34 69 -40 83 -11 127 -8 120 9 -5 13 -3
13 17 1 27 -17 133 -20 143 -4 4 7 2 14 -4 16 -7 2 -12 12 -12 23 0 13 -15 26
-45 40 -25 12 -48 25 -51 30 -3 5 -14 9 -24 9 -13 0 -17 5 -14 15 4 8 13 15
21 15 8 0 11 5 8 10 -11 18 -26 10 -36 -20 -13 -36 -23 -38 -43 -8 -21 29 -21
44 0 24 21 -21 27 -20 39 7 7 14 17 21 30 19 11 -2 47 -5 80 -7 73 -5 122 -19
146 -41 23 -21 25 -36 4 -28 -31 12 -14 -24 32 -64 46 -42 67 -50 78 -32 4 6
-1 7 -11 3 -13 -5 -16 -3 -11 9 3 9 -2 23 -14 34 -10 9 -19 22 -19 28 0 7 3 8
8 1 12 -17 107 -75 123 -75 8 0 20 -5 27 -12 26 -26 12 16 -15 44 -36 37 -17
36 27 -2 42 -36 55 -38 39 -8 -7 12 -12 31 -13 43 -1 11 -5 20 -11 21 -29 1
-75 17 -75 25 0 5 16 8 35 6 19 -1 35 -5 35 -8 0 -3 11 -11 24 -17 23 -10 23
-10 13 17 -11 29 -62 65 -78 55 -6 -3 -20 1 -32 9 -12 7 -34 17 -49 21 -15 3
-36 15 -46 26 -9 10 -26 19 -37 19 -11 -1 -34 4 -52 9 -17 6 -34 8 -37 4 -3
-3 -6 4 -6 16 0 19 -3 20 -26 12 -34 -13 -39 -13 -24 5 7 8 16 13 20 10 5 -3
11 -1 15 5 4 6 -6 10 -24 10 -17 0 -31 -4 -31 -10 0 -5 -9 -10 -21 -10 -13 0
-18 4 -13 13 5 9 3 9 -7 -1 -12 -11 -12 -14 0 -21 10 -7 11 -10 1 -16 -8 -5
-18 -1 -25 8 -7 10 -20 17 -29 17 -16 0 -20 10 -17 40 2 12 0 13 -7 1 -8 -11
-14 -10 -36 5 -14 11 -26 22 -26 27 0 11 28 9 32 -3 2 -6 12 -12 23 -15 11 -2
31 -7 45 -10 24 -6 25 -6 5 10 -11 9 -31 19 -44 22 -13 3 -32 14 -41 23 -16
16 -15 17 11 16 16 -1 29 -5 29 -9 0 -5 5 -5 11 -1 17 10 -5 25 -38 26 -17 1
-35 -2 -42 -6 -6 -4 -11 -2 -11 5 0 7 -3 9 -6 6 -4 -4 -1 -13 5 -21 8 -10 9
-16 1 -21 -6 -3 -8 -10 -5 -15 3 -5 1 -11 -4 -15 -15 -9 -1 -35 18 -35 13 0
13 -2 2 -9 -16 -10 -5 -34 12 -28 7 2 22 -8 35 -22 18 -21 21 -22 16 -6 -6 16
-5 18 7 8 16 -12 133 -22 144 -11 9 8 35 -1 35 -13 0 -5 -19 -9 -42 -9 -29 0
-38 -3 -29 -9 11 -7 10 -11 -6 -20 -23 -12 -34 -6 -26 15 3 8 0 14 -6 14 -6 0
-11 -5 -11 -11 0 -5 -4 -7 -10 -4 -16 10 -70 14 -70 5 0 -4 -9 -6 -20 -3 -11
3 -20 9 -20 14 0 5 -7 9 -15 9 -8 0 -15 5 -15 11 0 5 5 7 12 3 7 -4 8 -3 4 5
-6 9 -11 9 -22 0 -8 -6 -18 -9 -21 -5 -4 4 -1 11 7 16 12 7 8 16 -20 47 -19
21 -38 40 -41 43 -4 3 -10 24 -14 47 -6 39 -26 60 -46 47 -5 -3 -9 -1 -9 5 0
5 -10 12 -22 14 -22 4 -22 4 -2 6 13 0 24 10 27 22 6 22 -1 22 -45 4 -11 -4
-18 -3 -18 3 0 6 9 14 20 17 11 3 20 10 20 14 0 4 6 8 13 8 15 1 147 60 147
67 0 2 -13 1 -29 -4 -29 -8 -41 -5 -41 12 0 5 4 7 9 3 13 -8 91 6 91 16 0 5
-7 6 -15 3 -8 -4 -15 -1 -15 5 0 6 -15 18 -32 26 l-33 14 40 -5 c50 -7 95 -24
95 -35 0 -5 8 -9 18 -9 15 1 15 2 2 13 -9 7 -14 21 -12 32 3 20 3 20 -13 1 -8
-11 -15 -14 -15 -8 0 7 -10 12 -22 13 -13 0 -32 5 -43 10 -17 8 -16 9 8 6 20
-3 27 0 27 13 0 13 -6 16 -25 12 -15 -2 -25 0 -25 7 0 6 7 11 16 11 8 0 13 4
10 9 -3 4 -23 8 -44 8 -36 0 -40 -3 -49 -32z m-63 -317 c0 -17 -40 -82 -46
-76 -2 3 2 20 10 39 19 46 36 63 36 37z m-170 -28 c0 -5 -4 -10 -10 -10 -5 0
-10 5 -10 10 0 6 5 10 10 10 6 0 10 -4 10 -10z m-40 -32 c-13 -5 -30 -14 -37
-20 -7 -6 -13 -7 -13 -2 0 13 53 42 64 36 5 -3 -1 -9 -14 -14z m93 -79 c-4
-12 2 -16 21 -16 14 0 33 -9 43 -19 17 -17 17 -18 -2 -10 -11 5 -30 8 -42 7
-13 0 -23 4 -23 9 0 17 -36 11 -63 -10 -14 -11 -32 -20 -40 -20 -9 0 -19 -4
-22 -10 -3 -5 -11 -10 -17 -10 -19 0 26 36 78 64 27 14 45 25 41 26 -4 0 -22
-7 -38 -16 -17 -8 -33 -13 -36 -11 -9 10 52 36 78 34 18 -1 25 -7 22 -18z
m247 -13 c0 -11 -19 -15 -25 -6 -3 5 1 10 9 10 9 0 16 -2 16 -4z m-407 -13
c-7 -2 -19 -2 -25 0 -7 3 -2 5 12 5 14 0 19 -2 13 -5z m847 -62 c19 -17 30
-30 24 -31 -6 0 -24 12 -39 26 -16 15 -36 28 -44 29 -9 2 -17 4 -19 4 -2 1 0
6 3 11 8 12 28 2 75 -39z m-461 5 c17 -9 29 -21 26 -27 -4 -5 -12 -6 -18 -2
-15 9 -18 10 -97 27 -54 11 -60 14 -35 18 48 7 89 1 124 -16z m206 3 c5 -5 1
-9 -12 -9 -11 0 -27 7 -34 16 -12 15 -11 16 11 9 14 -4 29 -11 35 -16z m-398
-15 c-3 -3 -12 -4 -19 -1 -8 3 -5 6 6 6 11 1 17 -2 13 -5z m50 -11 c9 -13 13
-14 11 -4 -2 8 6 17 16 19 14 3 17 0 13 -12 -5 -11 -1 -16 13 -16 10 0 22 -4
25 -10 3 -5 -1 -10 -10 -10 -24 0 -12 -24 13 -28 29 -4 28 -19 -2 -24 -17 -4
-23 -1 -19 9 4 9 -4 13 -25 13 -19 0 -35 7 -40 17 -10 17 -102 28 -235 27 -36
0 -52 3 -43 8 8 5 69 6 135 4 100 -4 121 -2 121 10 0 19 10 18 27 -3z m558 7
c3 -5 -1 -10 -9 -10 -9 0 -16 5 -16 10 0 6 4 10 9 10 6 0 13 -4 16 -10z m-975
-10 c0 -5 -4 -10 -10 -10 -5 0 -10 5 -10 10 0 6 5 10 10 10 6 0 10 -4 10 -10z
m594 -36 c-4 -16 0 -24 15 -29 12 -3 21 -10 21 -15 0 -5 8 -6 18 -3 14 6 15 4
4 -9 -16 -20 -41 -9 -92 43 l-35 36 37 -1 c33 -1 37 -3 32 -22z m121 -54 c3
-5 2 -10 -4 -10 -5 0 -13 5 -16 10 -3 6 -2 10 4 10 5 0 13 -4 16 -10z m-156
-9 c11 -7 9 -10 -8 -16 -25 -8 -36 -2 -26 14 8 13 15 14 34 2z m-596 -8 c-7
-2 -19 -2 -25 0 -7 3 -2 5 12 5 14 0 19 -2 13 -5z m817 -13 c8 -5 11 -12 7
-16 -4 -4 -15 0 -24 9 -18 18 -8 23 17 7z m-196 -15 c3 -8 15 -15 26 -15 11 0
20 -4 20 -10 0 -16 -37 -12 -55 7 -14 14 -18 14 -26 2 -10 -16 -12 -8 -3 15 8
20 30 21 38 1z m-234 -9 c0 -11 -19 -15 -25 -6 -3 5 1 10 9 10 9 0 16 -2 16
-4z m-510 -20 c0 -11 -19 -15 -25 -6 -3 5 1 10 9 10 9 0 16 -2 16 -4z"/>
<path d="M2055 770 c3 -5 10 -10 16 -10 5 0 9 5 9 10 0 6 -7 10 -16 10 -8 0
-12 -4 -9 -10z"/>
<path d="M2320 760 c0 -5 7 -10 16 -10 8 0 12 5 9 10 -3 6 -10 10 -16 10 -5 0
-9 -4 -9 -10z"/>
<path d="M5510 758 c0 -9 5 -20 10 -23 13 -8 13 5 0 25 -8 13 -10 13 -10 -2z"/>
<path d="M2827 754 c-14 -15 -6 -34 14 -34 14 0 19 5 17 17 -3 18 -20 27 -31
17z"/>
<path d="M20 739 c0 -5 5 -7 10 -4 6 3 10 8 10 11 0 2 -4 4 -10 4 -5 0 -10 -5
-10 -11z"/>
<path d="M4420 740 c0 -5 5 -10 10 -10 6 0 10 5 10 10 0 6 -4 10 -10 10 -5 0
-10 -4 -10 -10z"/>
<path d="M2055 730 c-3 -5 1 -10 9 -10 9 0 16 5 16 10 0 6 -4 10 -9 10 -6 0
-13 -4 -16 -10z"/>
<path d="M4250 736 c0 -2 7 -7 16 -10 8 -3 12 -2 9 4 -6 10 -25 14 -25 6z"/>
<path d="M4960 736 c0 -2 7 -7 16 -10 8 -3 12 -2 9 4 -6 10 -25 14 -25 6z"/>
<path d="M6105 730 c3 -5 11 -10 16 -10 6 0 7 5 4 10 -3 6 -11 10 -16 10 -6 0
-7 -4 -4 -10z"/>
<path d="M58 723 c7 -3 16 -2 19 1 4 3 -2 6 -13 5 -11 0 -14 -3 -6 -6z"/>
<path d="M4327 719 c7 -7 15 -10 18 -7 3 3 -2 9 -12 12 -14 6 -15 5 -6 -5z"/>
<path d="M2118 706 c-27 -20 -22 -26 25 -26 40 1 41 1 18 14 -18 10 -20 15
-10 19 11 4 11 6 -1 6 -8 0 -23 -6 -32 -13z"/>
<path d="M2643 706 c9 -7 17 -19 17 -26 0 -7 3 -11 6 -7 11 11 -7 47 -24 47
-16 -1 -16 -2 1 -14z"/>
<path d="M2707 700 c3 -11 7 -20 9 -20 2 0 4 9 4 20 0 11 -4 20 -9 20 -5 0 -7
-9 -4 -20z"/>
<path d="M2785 710 c3 -5 8 -10 11 -10 2 0 4 5 4 10 0 6 -5 10 -11 10 -5 0 -7
-4 -4 -10z"/>
<path d="M2920 713 c0 -4 7 -17 15 -27 17 -23 34 -13 19 11 -12 19 -34 29 -34
16z"/>
<path d="M4360 710 c0 -5 5 -10 11 -10 5 0 7 5 4 10 -3 6 -8 10 -11 10 -2 0
-4 -4 -4 -10z"/>
<path d="M5134 701 c10 -10 18 -35 19 -55 2 -32 21 -55 35 -41 3 3 0 5 -6 5
-7 0 -12 5 -12 11 0 6 7 9 15 5 9 -3 15 0 15 10 0 9 -5 12 -12 8 -8 -5 -9 0
-6 14 4 15 0 25 -10 32 -10 5 -12 10 -7 10 15 1 -18 20 -34 20 -11 0 -10 -4 3
-19z"/>
<path d="M5095 685 c16 -13 32 -21 35 -18 3 3 -1 8 -7 10 -7 3 -13 12 -13 21
0 15 -2 15 -10 2 -6 -10 -10 -11 -10 -2 0 6 -6 12 -12 12 -7 -1 0 -12 17 -25z"/>
<path d="M2000 680 c0 -5 5 -10 10 -10 6 0 10 5 10 10 0 6 -4 10 -10 10 -5 0
-10 -4 -10 -10z"/>
<path d="M5024 679 c-3 -6 1 -18 10 -27 15 -15 16 -15 16 1 0 9 -5 17 -11 17
-5 0 -7 5 -4 10 3 6 4 10 1 10 -3 0 -8 -5 -12 -11z"/>
<path d="M2055 672 c-22 -5 -60 -40 -52 -48 3 -3 14 -1 25 5 12 6 34 11 51 11
17 0 31 3 31 8 0 13 -34 28 -55 24z"/>
<path d="M4054 655 c-9 -14 -14 -28 -12 -31 8 -8 38 25 38 42 0 20 -7 17 -26
-11z"/>
<path d="M5467 660 c3 -11 10 -23 16 -27 7 -4 8 0 4 11 -4 10 -7 22 -7 27 0 5
-4 9 -9 9 -5 0 -7 -9 -4 -20z"/>
<path d="M5730 662 c6 -13 14 -21 18 -18 3 4 -2 14 -12 24 -18 16 -18 16 -6
-6z"/>
<path d="M4635 650 c3 -5 8 -10 11 -10 2 0 4 5 4 10 0 6 -5 10 -11 10 -5 0 -7
-4 -4 -10z"/>
<path d="M4883 644 c0 -7 4 -11 9 -8 4 3 21 -4 37 -16 17 -11 32 -16 35 -11 4
5 2 12 -4 16 -5 3 -10 3 -10 -1 0 -4 -8 0 -17 8 -27 22 -50 28 -50 12z"/>
<path d="M5063 648 c3 -9 1 -19 -6 -22 -7 -3 -3 -4 8 -1 14 3 26 -6 42 -30 12
-19 18 -37 12 -40 -5 -4 -9 0 -9 8 0 8 -8 21 -18 30 -16 15 -18 15 -18 -3 0
-10 4 -17 7 -14 4 2 10 0 13 -5 4 -5 2 -13 -4 -16 -15 -9 -40 13 -34 30 3 7 1
16 -4 19 -5 3 -9 -2 -8 -11 0 -11 -6 -18 -19 -18 -13 0 -20 -6 -19 -17 1 -10
-3 -18 -10 -19 -6 0 12 -8 39 -18 28 -10 58 -21 67 -25 15 -7 16 -5 5 17 -6
14 -16 23 -22 20 -5 -3 -5 -1 1 6 8 9 18 9 39 1 15 -6 30 -8 33 -6 3 3 -2 8
-10 11 -9 4 -14 14 -11 23 3 11 -11 32 -38 57 -24 22 -40 32 -36 23z m-23 -98
c0 -5 -2 -10 -4 -10 -3 0 -8 5 -11 10 -3 6 -1 10 4 10 6 0 11 -4 11 -10z"/>
<path d="M5230 651 c0 -5 5 -13 10 -16 6 -3 10 -2 10 4 0 5 -4 13 -10 16 -5 3
-10 2 -10 -4z"/>
<path d="M4317 639 c7 -7 15 -10 18 -7 3 3 -2 9 -12 12 -14 6 -15 5 -6 -5z"/>
<path d="M4357 639 c7 -7 15 -10 18 -7 3 3 -2 9 -12 12 -14 6 -15 5 -6 -5z"/>
<path d="M58 633 c7 -3 16 -2 19 1 4 3 -2 6 -13 5 -11 0 -14 -3 -6 -6z"/>
<path d="M4256 625 c5 -11 4 -16 -3 -12 -5 4 -15 -5 -21 -18 -13 -28 -8 -32
35 -30 20 2 31 -2 30 -9 -3 -16 -39 -29 -47 -16 -4 6 -14 8 -23 4 -13 -5 -16
-2 -11 10 5 13 2 15 -12 10 -16 -6 -15 -3 4 15 20 20 27 31 18 31 -1 0 -16
-12 -31 -26 -24 -22 -27 -29 -17 -45 17 -27 15 -30 -15 -23 -25 7 -26 5 -15
-9 7 -8 27 -20 44 -26 27 -10 29 -9 17 6 -12 14 -11 15 10 8 16 -5 21 -4 17 4
-4 6 -14 11 -22 11 -8 0 -14 5 -14 10 0 14 17 12 56 -6 19 -9 38 -14 41 -10 3
3 -1 6 -10 6 -32 0 -17 18 20 25 20 3 32 10 26 13 -6 4 -10 18 -9 32 1 17 -5
26 -19 28 -11 2 -28 11 -38 20 -17 15 -17 14 -11 -3z"/>
<path d="M5128 633 c7 -3 16 -2 19 1 4 3 -2 6 -13 5 -11 0 -14 -3 -6 -6z"/>
<path d="M5676 630 c4 -8 14 -23 22 -32 7 -9 11 -22 7 -27 -3 -6 -2 -11 4 -11
22 0 19 19 -10 51 -17 19 -27 27 -23 19z"/>
<path d="M2145 621 c-3 -5 -1 -12 5 -16 5 -3 10 1 10 9 0 18 -6 21 -15 7z"/>
<path d="M34 610 c-24 -10 -41 -30 -25 -30 6 0 25 9 43 20 33 20 22 26 -18 10z"/>
<path d="M4357 594 c5 -13 7 -13 14 -2 6 10 11 9 22 -6 7 -10 22 -16 33 -14
16 3 13 7 -15 21 -43 21 -62 22 -54 1z"/>
<path d="M2190 590 c0 -5 5 -10 10 -10 6 0 10 5 10 10 0 6 -4 10 -10 10 -5 0
-10 -4 -10 -10z"/>
<path d="M5236 578 c1 -13 3 -26 3 -30 1 -5 6 -8 12 -8 6 0 8 9 4 23 -10 32
-22 42 -19 15z"/>
<path d="M5508 588 c7 -7 12 -19 12 -27 0 -13 -2 -13 -12 1 -7 8 -21 18 -30
21 -25 9 -23 -15 2 -38 13 -12 18 -25 14 -41 -3 -12 -1 -31 6 -41 10 -16 11
-16 6 0 -5 17 3 21 37 17 11 -1 21 7 24 19 3 11 10 18 16 14 6 -3 7 -1 3 5 -7
12 -37 5 -47 -10 -3 -5 -6 5 -7 22 0 17 3 28 9 25 12 -8 -2 28 -15 37 -18 12
-31 9 -18 -4z"/>
<path d="M73 574 c0 -16 13 -19 21 -5 3 5 0 11 -7 14 -8 3 -14 -1 -14 -9z"/>
<path d="M4131 571 c-20 -10 -35 -27 -36 -38 -2 -23 21 -48 30 -33 3 6 1 10
-6 10 -8 0 -8 4 1 15 7 9 20 13 27 10 9 -3 13 0 10 7 -2 7 0 21 5 31 11 21 11
21 -31 -2z"/>
<path d="M6170 586 c0 -2 7 -9 15 -16 13 -11 14 -10 9 4 -5 14 -24 23 -24 12z"/>
<path d="M2074 561 c3 -5 -8 -14 -24 -20 -17 -5 -30 -14 -30 -18 0 -5 -25 -8
-55 -7 -69 2 -73 -13 -5 -18 63 -4 99 5 129 33 18 17 20 23 9 30 -17 11 -31
11 -24 0z"/>
<path d="M2155 559 c-4 -6 -5 -12 -2 -15 2 -3 7 2 10 11 7 17 1 20 -8 4z"/>
<path d="M4370 560 c0 -5 14 -10 32 -10 36 0 35 4 -4 14 -17 4 -28 2 -28 -4z"/>
<path d="M4957 559 c7 -7 15 -10 18 -7 3 3 -2 9 -12 12 -14 6 -15 5 -6 -5z"/>
<path d="M5737 563 c-4 -3 1 -12 11 -19 12 -9 19 -9 24 -1 4 7 11 7 22 -2 11
-9 16 -10 16 -2 0 6 -6 12 -12 13 -7 0 -17 2 -23 2 -5 1 -15 5 -21 8 -6 4 -14
5 -17 1z"/>
<path d="M39 542 c11 -8 10 -11 -4 -19 -16 -9 -16 -11 -1 -16 10 -4 15 -3 11
3 -3 6 1 10 9 10 23 0 28 -18 7 -25 -11 -3 -25 -12 -31 -20 -23 -28 14 -17 50
15 27 24 31 30 15 28 -12 -2 -19 2 -17 10 1 6 -2 12 -7 12 -5 0 -18 3 -28 6
-14 4 -15 4 -4 -4z"/>
<path d="M5605 540 c3 -5 11 -10 16 -10 6 0 7 5 4 10 -3 6 -11 10 -16 10 -6 0
-7 -4 -4 -10z"/>
<path d="M4778 528 c12 -6 22 -14 22 -19 0 -4 -10 -5 -22 -2 -22 4 -22 4 -3
-8 11 -7 23 -17 26 -22 4 -5 9 -5 13 2 4 6 2 11 -4 11 -6 0 -8 5 -5 10 9 14
-13 40 -34 39 -11 0 -10 -3 7 -11z"/>
<path d="M5435 520 c12 -41 27 -60 20 -25 -4 17 -11 35 -17 40 -7 7 -8 2 -3
-15z"/>
<path d="M5370 520 c-7 -4 -9 -13 -5 -20 6 -9 4 -11 -5 -5 -10 6 -12 4 -7 -8
4 -12 2 -14 -10 -10 -11 4 -14 2 -11 -8 3 -8 1 -24 -3 -37 -7 -19 -1 -33 31
-77 22 -29 53 -62 70 -72 17 -9 42 -34 56 -55 15 -21 31 -35 37 -31 6 4 8 0 4
-10 -3 -9 0 -18 9 -21 9 -3 12 -1 9 4 -11 18 14 10 27 -8 14 -21 66 -57 72
-51 3 2 -4 15 -15 28 -10 13 -19 21 -19 18 0 -4 -12 5 -26 20 -26 26 -26 45 1
23 8 -7 15 -9 15 -4 0 5 5 2 10 -7 5 -9 26 -20 46 -24 44 -8 96 -44 90 -62 -3
-7 -2 -12 2 -11 14 3 62 -14 58 -21 -3 -4 4 -7 15 -7 17 0 16 3 -6 26 -13 14
-41 34 -62 45 -21 11 -56 31 -78 44 -53 33 -133 71 -151 71 -16 0 -18 9 -5 29
6 9 11 10 15 2 4 -6 2 -11 -5 -11 -7 0 -10 -2 -7 -5 3 -3 18 -1 33 5 22 8 31
7 46 -6 10 -9 17 -20 14 -24 -2 -4 21 -13 53 -20 31 -8 68 -24 81 -36 12 -13
32 -26 43 -29 15 -5 17 -10 8 -20 -9 -11 -7 -15 14 -21 14 -3 24 -11 23 -18
-1 -6 4 -10 11 -8 8 1 11 -1 8 -6 -3 -5 5 -14 17 -21 13 -7 27 -22 32 -33 14
-30 35 -35 35 -7 0 21 1 22 20 4 29 -26 25 -3 -5 25 -13 12 -22 26 -20 31 6 9
-22 6 -31 -4 -15 -14 -25 -6 -48 43 -13 28 -20 48 -15 44 5 -3 9 0 9 6 0 7 -7
10 -15 6 -15 -5 -67 38 -62 52 3 11 -32 57 -39 50 -3 -4 4 -16 15 -27 12 -12
16 -21 10 -21 -18 0 -97 81 -103 107 -4 13 -15 32 -26 43 -11 11 -17 26 -14
34 3 8 0 17 -7 22 -8 5 -10 3 -4 -7 4 -8 -3 -3 -16 11 -13 13 -23 27 -22 30 1
3 -9 5 -21 5 -24 0 -28 -23 -9 -47 6 -7 13 -26 16 -43 l5 -29 -30 34 c-16 19
-27 29 -23 23 4 -9 1 -11 -9 -7 -12 5 -16 -1 -16 -24 0 -48 -17 -47 -25 0 -4
24 -14 59 -23 78 -9 19 -16 41 -16 49 -1 16 -27 23 -46 11z m35 -36 c-1 -33
-14 -59 -16 -33 -5 52 -4 66 6 66 7 0 11 -15 10 -33z m31 -104 c0 -12 -4 -16
-9 -11 -5 5 -6 14 -3 20 10 15 12 14 12 -9z m164 -16 c0 -8 -4 -12 -10 -9 -5
3 -10 10 -10 16 0 5 5 9 10 9 6 0 10 -7 10 -16z m-64 -43 c0 -11 -6 -17 -13
-14 -6 3 -9 11 -6 19 7 20 19 17 19 -5z"/>
<path d="M5823 512 c-1 -10 5 -19 12 -19 10 0 11 5 4 19 -5 10 -11 18 -12 18
-2 0 -3 -8 -4 -18z"/>
<path d="M4850 511 c0 -11 40 -41 54 -41 5 0 -3 11 -18 25 -29 27 -36 30 -36
16z"/>
<path d="M0 500 c0 -5 5 -10 11 -10 5 0 7 5 4 10 -3 6 -8 10 -11 10 -2 0 -4
-4 -4 -10z"/>
<path d="M4375 500 c3 -5 10 -10 16 -10 5 0 9 5 9 10 0 6 -7 10 -16 10 -8 0
-12 -4 -9 -10z"/>
<path d="M4972 487 c14 -13 33 -37 42 -53 25 -45 76 -101 76 -82 0 8 -12 27
-26 41 -14 15 -27 38 -28 52 0 14 -7 25 -13 25 -7 0 -13 4 -13 9 0 5 -8 11
-17 15 -10 3 -25 9 -33 12 -8 3 -3 -6 12 -19z"/>
<path d="M5660 490 c6 -11 13 -20 16 -20 2 0 0 9 -6 20 -6 11 -13 20 -16 20
-2 0 0 -9 6 -20z"/>
<path d="M4425 490 c3 -5 8 -10 11 -10 2 0 4 5 4 10 0 6 -5 10 -11 10 -5 0 -7
-4 -4 -10z"/>
<path d="M5040 485 c0 -6 3 -15 7 -19 4 -4 8 -15 8 -24 0 -12 10 -17 33 -19
l34 -1 -23 24 c-12 13 -20 27 -17 30 9 8 48 -14 48 -27 0 -6 5 -7 11 -3 14 9
-42 45 -76 48 -14 2 -25 -2 -25 -9z"/>
<path d="M4265 480 c3 -5 14 -10 23 -10 15 0 15 2 2 10 -20 13 -33 13 -25 0z"/>
<path d="M5598 483 c6 -2 10 -8 7 -13 -3 -4 2 -11 10 -14 13 -4 14 -2 5 14 -6
11 -16 20 -23 19 -9 0 -9 -2 1 -6z"/>
<path d="M4940 471 c0 -5 5 -13 10 -16 6 -3 10 -2 10 4 0 5 -4 13 -10 16 -5 3
-10 2 -10 -4z"/>
<path d="M4318 463 c7 -3 16 -2 19 1 4 3 -2 6 -13 5 -11 0 -14 -3 -6 -6z"/>
<path d="M4635 450 c10 -11 23 -20 29 -19 6 0 6 3 -1 6 -7 2 -13 11 -13 19 0
8 -7 14 -17 14 -14 0 -14 -2 2 -20z"/>
<path d="M4368 453 c6 -2 18 -2 25 0 6 3 1 5 -13 5 -14 0 -19 -2 -12 -5z"/>
<path d="M4585 450 c3 -5 11 -10 16 -10 6 0 7 5 4 10 -3 6 -11 10 -16 10 -6 0
-7 -4 -4 -10z"/>
<path d="M4430 440 c8 -5 20 -10 25 -10 6 0 3 5 -5 10 -8 5 -19 10 -25 10 -5
0 -3 -5 5 -10z"/>
<path d="M4863 442 c-14 -2 -20 -8 -16 -18 6 -17 30 -19 35 -2 3 9 18 4 49
-16 24 -16 39 -23 32 -16 -6 7 -9 19 -6 26 4 11 8 11 20 -1 23 -23 37 -18 21
7 -12 18 -25 23 -64 23 -27 0 -59 -1 -71 -3z"/>
<path d="M2137 433 c-4 -3 -7 -11 -7 -17 0 -6 5 -5 12 2 6 6 9 14 7 17 -3 3
-9 2 -12 -2z"/>
<path d="M4150 424 c0 -9 14 -32 31 -52 24 -27 30 -30 24 -13 -4 15 -3 21 7
19 12 -3 14 18 3 50 -7 19 -65 16 -65 -4z m64 -32 c3 -5 -1 -9 -9 -9 -8 0 -15
4 -15 9 0 4 4 8 9 8 6 0 12 -4 15 -8z"/>
<path d="M4700 432 c0 -8 53 -42 65 -42 3 0 0 7 -9 15 -8 8 -19 15 -25 15 -6
0 -11 5 -11 10 0 6 -4 10 -10 10 -5 0 -10 -4 -10 -8z"/>
<path d="M4793 425 c-7 -8 -13 -18 -13 -24 0 -14 25 -20 41 -10 11 7 10 9 -4
9 -14 0 -17 5 -12 20 7 23 5 25 -12 5z"/>
<path d="M4350 421 c0 -5 19 -9 43 -9 31 0 37 2 22 8 -27 12 -65 12 -65 1z"/>
<path d="M2090 409 c0 -5 5 -7 10 -4 6 3 10 8 10 11 0 2 -4 4 -10 4 -5 0 -10
-5 -10 -11z"/>
<path d="M5290 403 c0 -12 5 -25 11 -28 17 -11 18 -2 4 25 -14 24 -14 24 -15
3z"/>
<path d="M2195 379 c0 -16 5 -30 10 -31 15 -4 18 49 3 54 -9 4 -13 -4 -13 -23z"/>
<path d="M4498 403 c7 -3 16 -2 19 1 4 3 -2 6 -13 5 -11 0 -14 -3 -6 -6z"/>
<path d="M5085 400 c3 -5 11 -10 16 -10 6 0 7 5 4 10 -3 6 -11 10 -16 10 -6 0
-7 -4 -4 -10z"/>
<path d="M5625 400 c3 -5 8 -10 11 -10 2 0 4 5 4 10 0 6 -5 10 -11 10 -5 0 -7
-4 -4 -10z"/>
<path d="M5790 406 c0 -2 7 -9 15 -16 9 -7 15 -8 15 -2 0 5 -7 12 -15 16 -8 3
-15 4 -15 2z"/>
<path d="M2282 375 c0 -16 2 -22 5 -12 2 9 2 23 0 30 -3 6 -5 -1 -5 -18z"/>
<path d="M4445 390 c3 -5 13 -10 21 -10 8 0 12 5 9 10 -3 6 -13 10 -21 10 -8
0 -12 -4 -9 -10z"/>
<path d="M4655 390 c3 -5 8 -10 11 -10 2 0 4 5 4 10 0 6 -5 10 -11 10 -5 0 -7
-4 -4 -10z"/>
<path d="M4885 377 c6 -15 40 -37 66 -42 12 -3 16 1 12 11 -3 7 -10 11 -15 8
-5 -4 -23 3 -39 15 -15 12 -26 15 -24 8z"/>
<path d="M4925 380 c3 -5 8 -10 11 -10 2 0 4 5 4 10 0 6 -5 10 -11 10 -5 0 -7
-4 -4 -10z"/>
<path d="M4390 370 c0 -5 9 -10 21 -10 11 0 17 5 14 10 -3 6 -13 10 -21 10 -8
0 -14 -4 -14 -10z"/>
<path d="M4730 365 c0 -8 4 -15 9 -15 5 0 17 -7 25 -16 14 -13 16 -13 16 0 0
16 -26 46 -41 46 -5 0 -9 -7 -9 -15z"/>
<path d="M2090 360 c0 -5 5 -10 10 -10 6 0 10 5 10 10 0 6 -4 10 -10 10 -5 0
-10 -4 -10 -10z"/>
<path d="M4518 363 c7 -3 16 -2 19 1 4 3 -2 6 -13 5 -11 0 -14 -3 -6 -6z"/>
<path d="M4822 350 c14 -21 28 -27 28 -10 0 6 -5 10 -11 10 -5 0 -7 5 -4 10 3
6 -1 10 -9 10 -14 0 -14 -3 -4 -20z"/>
<path d="M5110 360 c0 -5 5 -10 10 -10 6 0 10 5 10 10 0 6 -4 10 -10 10 -5 0
-10 -4 -10 -10z"/>
<path d="M5281 359 c2 -7 -1 -24 -5 -37 -5 -14 -2 -33 8 -53 20 -40 10 -57
-15 -27 -10 13 -23 28 -28 34 -5 6 -12 20 -15 30 -3 10 -4 0 -2 -23 2 -24 1
-43 -4 -43 -4 0 -12 -19 -17 -42 -6 -24 -11 -33 -12 -21 -1 23 -21 43 -21 21
0 -10 -2 -10 -8 -1 -4 7 -7 -21 -7 -62 0 -41 -3 -75 -7 -75 -5 0 -8 5 -8 10 0
6 -9 10 -21 10 -15 0 -19 -4 -15 -16 3 -9 9 -27 12 -40 l6 -24 224 1 c123 0
224 4 224 8 0 17 -32 50 -45 45 -14 -6 -40 30 -31 44 3 5 -10 24 -27 43 -19
21 -33 47 -34 64 -1 18 -10 36 -25 47 -36 28 -68 62 -68 73 0 5 12 -3 26 -20
30 -35 28 -25 -5 28 -19 30 -26 35 -37 26 -11 -9 -18 -8 -30 2 -13 11 -15 11
-13 -2z m123 -197 c-5 -15 -4 -15 6 -2 9 12 11 10 7 -12 -2 -17 1 -29 9 -32 8
-3 14 -18 13 -33 0 -15 -3 -22 -6 -15 -2 6 -11 12 -18 12 -15 0 -26 22 -31 63
-2 15 -11 38 -19 51 -9 13 -13 30 -10 39 4 8 2 18 -4 22 -6 3 -11 14 -11 23 0
8 16 -10 35 -42 19 -32 32 -64 29 -74z m6 57 c0 -11 5 -17 10 -14 6 3 10 1 10
-4 0 -18 -19 -12 -30 8 -13 25 -13 44 0 36 6 -3 10 -15 10 -26z m-105 -29 c-4
-6 -1 -17 5 -25 8 -10 9 -15 2 -15 -14 0 -34 35 -25 44 10 10 25 7 18 -4z"/>
<path d="M5861 361 c-12 -8 -11 -13 9 -29 14 -11 29 -18 33 -15 5 3 -2 12 -14
21 -21 15 -22 16 -3 23 13 5 14 8 4 8 -8 0 -22 -3 -29 -8z"/>
<path d="M4590 350 c0 -5 5 -10 10 -10 6 0 10 5 10 10 0 6 -4 10 -10 10 -5 0
-10 -4 -10 -10z"/>
<path d="M4870 340 c0 -5 7 -10 16 -10 8 0 12 5 9 10 -3 6 -10 10 -16 10 -5 0
-9 -4 -9 -10z"/>
<path d="M4528 333 c7 -3 16 -2 19 1 4 3 -2 6 -13 5 -11 0 -14 -3 -6 -6z"/>
<path d="M4358 323 c7 -3 16 -2 19 1 4 3 -2 6 -13 5 -11 0 -14 -3 -6 -6z"/>
<path d="M4730 320 c13 -8 12 -10 -2 -10 -24 0 -23 -12 3 -28 15 -10 24 -10
34 -2 8 7 19 9 25 5 5 -3 10 -4 10 0 0 7 -62 45 -75 45 -5 0 -3 -5 5 -10z"/>
<path d="M4968 315 c-3 -4 -36 -8 -74 -11 -37 -2 -69 -6 -72 -9 -3 -2 16 -25
42 -50 34 -32 56 -45 77 -45 16 0 29 5 29 10 0 6 5 10 10 10 6 0 10 -7 10 -15
0 -8 7 -15 15 -15 13 0 15 7 9 38 -7 40 -37 96 -46 87z m-14 -74 c-7 -7 -33
33 -34 49 0 8 8 2 19 -15 10 -16 17 -32 15 -34z m-50 11 c3 -5 -1 -9 -9 -9 -8
0 -12 4 -9 9 3 4 7 8 9 8 2 0 6 -4 9 -8z"/>
<path d="M5106 307 c3 -10 9 -15 12 -12 3 3 0 11 -7 18 -10 9 -11 8 -5 -6z"/>
<path d="M4560 300 c0 -5 5 -10 11 -10 5 0 7 5 4 10 -3 6 -8 10 -11 10 -2 0
-4 -4 -4 -10z"/>
<path d="M6315 300 c3 -5 8 -10 11 -10 2 0 4 5 4 10 0 6 -5 10 -11 10 -5 0 -7
-4 -4 -10z"/>
<path d="M5022 270 c14 -45 15 -45 20 -15 3 14 3 23 0 21 -3 -3 -11 2 -18 12
-12 14 -12 12 -2 -18z"/>
<path d="M4650 265 c0 -14 34 -34 57 -35 12 0 25 -5 29 -11 3 -6 20 -9 36 -7
16 3 31 1 34 -4 6 -9 54 -11 54 -2 0 9 -41 44 -51 44 -4 0 -10 -4 -14 -10 -3
-5 -13 -6 -21 -3 -13 5 -13 8 -2 15 9 7 7 8 -7 3 -44 -16 -64 -16 -89 0 -14
10 -26 14 -26 10z m170 -35 c0 -5 -2 -10 -4 -10 -3 0 -8 5 -11 10 -3 6 -1 10
4 10 6 0 11 -4 11 -10z"/>
<path d="M5069 268 c-1 -5 -2 -11 -3 -15 -1 -5 -4 -13 -8 -19 -8 -11 -1 -24
13 -24 11 0 17 37 8 51 -5 8 -9 11 -10 7z"/>
<path d="M5420 267 c0 -2 15 -16 33 -33 l32 -29 -29 33 c-28 30 -36 37 -36 29z"/>
<path d="M5570 261 c0 -5 7 -12 16 -15 24 -9 28 -7 14 9 -14 17 -30 20 -30 6z"/>
<path d="M5820 246 c0 -2 7 -7 16 -10 8 -3 12 -2 9 4 -6 10 -25 14 -25 6z"/>
<path d="M2250 225 c0 -8 5 -15 10 -15 6 0 10 7 10 15 0 8 -4 15 -10 15 -5 0
-10 -7 -10 -15z"/>
<path d="M2680 195 c7 -8 10 -21 7 -30 -6 -13 31 -50 40 -41 6 6 -16 57 -31
72 -19 19 -32 18 -16 -1z"/>
<path d="M5476 178 c3 -5 10 -6 15 -3 13 9 11 12 -6 12 -8 0 -12 -4 -9 -9z"/>
<path d="M4855 170 c3 -5 8 -10 11 -10 2 0 4 5 4 10 0 6 -5 10 -11 10 -5 0 -7
-4 -4 -10z"/>
<path d="M2216 143 c-4 -15 -3 -52 4 -83 3 -15 29 49 30 73 0 31 -25 38 -34
10z m21 -30 c-3 -10 -5 -4 -5 12 0 17 2 24 5 18 2 -7 2 -21 0 -30z"/>
<path d="M4380 152 c0 -12 49 -37 57 -29 8 8 -26 36 -44 37 -7 0 -13 -4 -13
-8z"/>
<path d="M4468 149 c-8 -5 -7 -15 6 -33 13 -21 14 -26 2 -26 -8 0 -17 6 -19
13 -4 9 -6 9 -6 -1 -1 -7 6 -15 14 -18 8 -4 12 -10 9 -15 -3 -5 4 -9 15 -9 12
0 21 -4 21 -10 0 -5 -6 -10 -13 -10 -7 0 -13 -9 -13 -20 0 -18 7 -20 75 -20
l75 0 -34 33 c-19 18 -41 31 -49 28 -9 -3 -12 0 -7 7 4 7 2 12 -4 12 -11 0
-60 45 -60 55 0 4 13 -3 29 -14 34 -25 49 -27 31 -6 -11 13 -10 14 4 9 9 -3
16 -2 16 4 0 20 -68 36 -92 21z"/>
<path d="M5515 135 c4 -16 11 -34 16 -40 15 -15 10 17 -7 45 l-15 25 6 -30z"/>
<path d="M5660 139 c0 -18 18 -44 62 -90 37 -39 49 -46 86 -47 23 -1 42 0 42
3 0 12 -112 75 -122 69 -7 -4 -8 -3 -4 4 6 11 0 14 -20 11 -8 -1 -24 22 -24
36 0 5 5 4 12 -3 14 -14 42 -16 34 -3 -9 15 -66 32 -66 20z"/>
<path d="M2270 124 c0 -8 5 -12 10 -9 6 4 8 11 5 16 -9 14 -15 11 -15 -7z"/>
<path d="M5568 130 c18 -21 15 -34 -5 -19 -16 13 -17 12 -4 -3 7 -10 18 -15
23 -12 5 3 18 -2 29 -12 10 -9 22 -15 25 -12 2 3 -14 20 -38 39 -24 18 -37 26
-30 19z"/>
<path d="M5876 109 c10 -21 19 -28 26 -21 6 6 4 17 -8 31 -27 31 -37 26 -18
-10z"/>
<path d="M2962 110 c0 -14 2 -19 5 -12 2 6 2 18 0 25 -3 6 -5 1 -5 -13z"/>
<path d="M4880 110 c6 -11 15 -20 19 -20 5 0 14 -14 20 -32 6 -17 14 -28 17
-25 9 9 -17 69 -36 84 -23 19 -32 15 -20 -7z"/>
<path d="M3918 113 c7 -3 16 -2 19 1 4 3 -2 6 -13 5 -11 0 -14 -3 -6 -6z"/>
<path d="M5101 104 c0 -11 3 -14 6 -6 3 7 2 16 -1 19 -3 4 -6 -2 -5 -13z"/>
<path d="M5121 104 c0 -11 3 -14 6 -6 3 7 2 16 -1 19 -3 4 -6 -2 -5 -13z"/>
<path d="M3132 98 c6 -18 68 -58 89 -58 32 0 21 24 -23 53 -32 20 -72 23 -66
5z"/>
<path d="M2425 81 c-6 -21 3 -51 16 -51 5 0 9 16 9 35 0 37 -15 47 -25 16z"/>
<path d="M2721 74 c0 -11 3 -14 6 -6 3 7 2 16 -1 19 -3 4 -6 -2 -5 -13z"/>
<path d="M2762 78 c-29 -29 5 -70 52 -60 17 4 17 6 -6 25 -14 12 -27 28 -29
35 -3 10 -7 10 -17 0z"/>
<path d="M5022 65 c0 -16 2 -22 5 -12 2 9 2 23 0 30 -3 6 -5 -1 -5 -18z"/>
<path d="M5074 75 c3 -11 8 -32 12 -48 3 -15 10 -27 16 -27 11 0 2 33 -19 70
-10 19 -12 20 -9 5z"/>
<path d="M5581 56 c7 -14 17 -25 21 -24 17 6 13 21 -10 36 -23 15 -23 15 -11
-12z"/>
<path d="M2897 63 c-3 -5 -1 -17 4 -28 4 -11 8 -15 8 -8 1 6 4 18 7 27 6 16
-11 23 -19 9z"/>
<path d="M2290 48 c0 -20 -20 -25 -20 -5 0 8 -4 7 -10 -3 -17 -27 -11 -40 20
-40 32 0 40 20 20 50 -8 13 -10 12 -10 -2z"/>
<path d="M3010 30 c0 -8 -11 -9 -30 -5 -23 5 -30 3 -30 -9 0 -14 15 -16 98
-15 53 1 88 4 77 6 -11 3 -24 9 -30 13 -19 14 -85 22 -85 10z"/>
<path d="M2350 16 c0 -9 7 -16 16 -16 17 0 14 22 -4 28 -7 2 -12 -3 -12 -12z"/>
<path d="M5857 19 c7 -7 15 -10 18 -7 3 3 -2 9 -12 12 -14 6 -15 5 -6 -5z"/>
</g>
</svg>
